<svg width="222" height="60" viewBox="0 0 222 60" fill="none" xmlns="http://www.w3.org/2000/svg">
<path fill-rule="evenodd" clip-rule="evenodd" d="M24.6712 53.2729H11.25L18.999 39.5471H32.4201L24.6712 53.2729ZM37.7969 36.0606L43.8648 25.3125H54.375L48.3071 36.0606H37.7969ZM42.7321 56.25H26.3992L35.8285 39.5467H52.1617L42.7321 56.25ZM27.0739 36.0606L31.2971 28.5799H38.6117L34.3878 36.0606H27.0739Z" fill="white"/>
<path fill-rule="evenodd" clip-rule="evenodd" d="M35.3225 15.5694C36.3178 15.6404 37.292 15.7829 38.2436 15.988L40.9453 9.91529L40.2658 16.5303C41.5074 16.9319 42.6996 17.4463 43.8291 18.0611L46.2573 15.0567L44.8838 18.6745C47.1038 20.0533 49.0507 21.8337 50.625 23.9149C47.3281 22.4078 43.6656 21.5671 39.8087 21.5671C26.649 21.5671 15.76 31.3406 13.9238 44.0625C13.1971 42.0597 12.7601 39.9162 12.6666 37.6837L7.02489 36.7744L12.6649 35.8658C12.7123 34.7299 12.8487 33.617 13.0671 32.5341L5.625 29.1854L13.7332 30.0279C14.0029 29.2183 14.3186 28.4306 14.6789 27.6677L13.7185 26.8825L6.2803 20.8031L15.2354 24.2412L16.3956 24.6867C16.7074 24.2338 17.0361 23.7936 17.3806 23.3676L15.4429 20.6748L9.31984 12.1684L17.7786 18.3245L20.4567 20.2739C20.6293 20.1324 20.8041 19.9935 20.9812 19.8577L18.9967 14.6304L14.9398 3.94303L22.1147 12.821L25.6207 17.1585C25.8573 17.0588 26.0957 16.963 26.3368 16.8721L26.0433 14.0124L24.9893 3.75L29.1791 13.1675L30.3473 15.7935C30.9745 15.6903 31.6108 15.6143 32.2552 15.5687L32.3252 15.1289L33.7891 5.94121L35.2529 15.1289L35.3225 15.5694Z" fill="#7EEA57"/>
<path d="M76.11 40.5L70.02 18.9H74.7L79.74 38.67H78.27L82.77 18.9H88.02L92.46 38.67H91.02L96.09 18.9H100.56L94.47 40.5H89.31L84.72 21.12H85.92L81.27 40.5H76.11ZM103.078 40.5V18.9H107.698V40.5H103.078ZM110.695 40.5V18.9H116.665L126.265 37.98L124.795 38.34V18.9H129.295V40.5H123.325L113.725 21.42L115.195 21.06V40.5H110.695ZM135.107 40.5V36.9H140.567C142.127 36.9 143.447 36.59 144.527 35.97C145.627 35.33 146.457 34.46 147.017 33.36C147.597 32.26 147.887 31 147.887 29.58C147.887 28.18 147.607 26.95 147.047 25.89C146.487 24.83 145.657 24 144.557 23.4C143.477 22.8 142.147 22.5 140.567 22.5H135.197V18.9H140.567C142.987 18.9 145.097 19.34 146.897 20.22C148.697 21.08 150.087 22.32 151.067 23.94C152.067 25.54 152.567 27.44 152.567 29.64C152.567 31.84 152.067 33.76 151.067 35.4C150.067 37.02 148.667 38.28 146.867 39.18C145.087 40.06 142.997 40.5 140.597 40.5H135.107ZM132.287 40.5V18.9H136.907V40.5H132.287ZM165.579 40.8C163.979 40.8 162.499 40.53 161.139 39.99C159.799 39.45 158.629 38.69 157.629 37.71C156.649 36.71 155.879 35.53 155.319 34.17C154.779 32.79 154.509 31.27 154.509 29.61C154.509 27.41 154.979 25.49 155.919 23.85C156.859 22.19 158.159 20.9 159.819 19.98C161.499 19.06 163.409 18.6 165.549 18.6C167.729 18.6 169.649 19.06 171.309 19.98C172.969 20.9 174.269 22.19 175.209 23.85C176.169 25.51 176.649 27.44 176.649 29.64C176.649 31.28 176.369 32.79 175.809 34.17C175.269 35.53 174.499 36.71 173.499 37.71C172.519 38.69 171.349 39.45 169.989 39.99C168.649 40.53 167.179 40.8 165.579 40.8ZM165.549 37.14C166.809 37.14 167.919 36.82 168.879 36.18C169.839 35.54 170.589 34.66 171.129 33.54C171.689 32.4 171.969 31.08 171.969 29.58C171.969 28.1 171.699 26.81 171.159 25.71C170.619 24.61 169.869 23.76 168.909 23.16C167.949 22.56 166.829 22.26 165.549 22.26C164.289 22.26 163.179 22.56 162.219 23.16C161.259 23.76 160.509 24.61 159.969 25.71C159.449 26.79 159.189 28.08 159.189 29.58C159.189 31.1 159.459 32.43 159.999 33.57C160.539 34.69 161.289 35.57 162.249 36.21C163.209 36.83 164.309 37.14 165.549 37.14ZM178.925 40.5V18.9H188.585C190.145 18.9 191.505 19.17 192.665 19.71C193.825 20.23 194.725 20.97 195.365 21.93C196.005 22.89 196.325 24.01 196.325 25.29C196.325 26.55 196.005 27.66 195.365 28.62C194.725 29.56 193.825 30.3 192.665 30.84C191.505 31.36 190.145 31.62 188.585 31.62H182.585V28.23H188.465C189.565 28.23 190.405 27.98 190.985 27.48C191.585 26.96 191.885 26.24 191.885 25.32C191.885 24.38 191.595 23.67 191.015 23.19C190.435 22.69 189.585 22.44 188.465 22.44H183.545V40.5H178.925ZM191.105 40.5L182.435 29.28H187.325L197.345 40.5H191.105ZM199.084 40.5V18.9H203.704V40.5H199.084ZM201.244 40.5V36.96H215.164V40.5H201.244ZM201.244 31.2V27.72H214.114V31.2H201.244ZM201.244 22.44V18.9H214.804V22.44H201.244Z" fill="white"/>
</svg>
