<svg width="162" height="36" viewBox="0 0 162 36" fill="none" xmlns="http://www.w3.org/2000/svg">
<g clip-path="url(#clip0_750_5575)">
<path fill-rule="evenodd" clip-rule="evenodd" d="M32.1914 8.68043L24.5219 11.9456L28.0175 7.43654L23.4262 10.8054L26.5045 3.60124C28.8001 4.7933 30.7306 6.55546 32.1914 8.68043ZM26.1914 3.44576L21.548 9.71699L22.174 4.11953L19.9827 9.30237L19.2001 1.68359C21.7045 1.73542 24.1045 2.35736 26.1914 3.44576ZM31.3567 13.2413L25.7219 13.8633L32.348 8.93957C33.8088 11.1164 34.748 13.7078 34.9045 16.5065L26.1914 15.5218L31.3567 13.2413ZM26.8697 17.5949L34.9045 16.6102C34.9567 16.973 34.9567 17.2839 34.9567 17.5949C34.9567 18.2169 34.9045 18.8388 34.8523 19.4607C32.2436 18.6315 29.5306 18.0095 26.8697 17.5949ZM11.6871 3.44576L16.2784 9.71699L15.6523 4.11953L17.8958 9.30237L18.6784 1.68359C16.174 1.73542 13.774 2.35736 11.6871 3.44576ZM5.68709 8.68043L13.3045 11.9456L9.80883 7.43654L14.4523 10.8054L11.3219 3.60124C9.0784 4.7933 7.14796 6.55546 5.68709 8.68043ZM6.52187 13.2413L12.1567 13.8633L5.53057 8.93957C4.0697 11.1164 3.13057 13.7078 2.97405 16.5065L11.6871 15.5218L6.52187 13.2413ZM11.0088 17.5949L2.92188 16.6102C2.92188 16.973 2.92188 17.2839 2.92188 17.5949C2.92188 18.2169 2.97405 18.8388 3.02622 19.4607C5.63492 18.6315 8.34796 18.0095 11.0088 17.5949Z" fill="url(#paint0_radial_750_5575)"/>
<path fill-rule="evenodd" clip-rule="evenodd" d="M31.0951 29.0488C21.7559 38.8444 6.67767 34.8536 2.76463 23.244C-2.03537 9.04305 11.5298 -3.81039 26.1385 1.8389C19.1472 -1.58177 10.6951 -0.130576 5.2168 5.36323C-0.261461 10.9089 -1.56581 19.3051 1.98202 26.1982C5.52984 33.1432 13.1472 36.9785 20.869 35.7865C28.5907 34.5944 34.6951 28.6342 35.9994 21.0154C33.8081 28.0122 22.382 24.8507 22.1211 33.1951C25.3559 32.4695 28.4342 31.0701 31.0951 29.0488Z" fill="#7EEA57"/>
<path fill-rule="evenodd" clip-rule="evenodd" d="M23.2174 28.4793C21.8087 28.3756 20.3478 28.3756 18.9391 28.3756C17.4783 28.3756 16.0696 28.3756 14.6609 28.4793L14.2435 32.8328C15.7044 33.2993 17.3217 33.5066 18.9391 33.5066C19.7739 33.5066 20.6609 33.4548 21.4957 33.2993C21.5478 31.3817 22.1217 29.775 23.2174 28.4793ZM32.3478 23.8147C31.8261 23.711 31.3044 23.6074 30.7826 23.5556L31.0957 24.4885C31.5652 24.2812 31.9826 24.022 32.3478 23.8147ZM29.4261 19.6166L30.4696 22.6745C31.4087 22.7781 32.2957 22.9336 33.2348 23.0891C33.9652 22.4153 34.487 21.5861 34.6435 20.6532C34.6957 20.5495 34.6957 20.4977 34.6957 20.4459C32.9739 20.0831 31.2 19.8239 29.4261 19.6166ZM23.4783 22.0007C25.5131 22.1044 27.5478 22.3117 29.5826 22.5708L28.487 19.5129C26.7131 19.3056 24.9391 19.1501 23.1652 19.0465L23.4783 22.0007ZM23.5304 22.83L24 27.7018C24 27.7018 24 27.7018 24.0522 27.7018C25.2522 26.6134 26.9739 25.7842 29.1652 25.1622C29.5826 25.0586 29.9478 24.9031 30.3131 24.7994L29.8435 23.4001C27.7565 23.1409 25.6696 22.9336 23.5304 22.83ZM18.9391 22.6745C17.687 22.6745 16.4348 22.7263 15.1826 22.7781L14.7131 27.65C16.1217 27.5463 17.5304 27.5463 18.9391 27.5463C20.3478 27.5463 21.7565 27.5463 23.1652 27.65L22.6957 22.7781C21.4435 22.7263 20.1913 22.6745 18.9391 22.6745ZM15.4957 19.0465L15.2348 21.9489C16.487 21.8971 17.687 21.8971 18.9391 21.8971C20.1391 21.8971 21.3913 21.8971 22.6435 21.9489L22.3304 19.0465C20.087 18.9428 17.7913 18.9428 15.4957 19.0465ZM9.33914 19.5129L8.29566 22.5708C10.3304 22.3117 12.3652 22.1044 14.4 22.0007L14.6609 19.0465C12.887 19.1501 11.1131 19.3056 9.33914 19.5129ZM3.96523 23.2446C5.11305 23.0373 6.26088 22.83 7.4087 22.6745L8.45218 19.6166C6.67827 19.8239 4.90436 20.0831 3.18262 20.4459C3.33914 21.3788 3.60001 22.3117 3.96523 23.2446ZM5.94783 26.9244L7.09566 23.5556C6.15653 23.6592 5.2174 23.8147 4.27827 24.022C4.69566 25.0586 5.26957 25.9915 5.94783 26.9244ZM7.14783 28.3756C9.39131 28.0646 11.6348 27.8055 13.8783 27.7018L14.3478 22.83C12.2087 22.9336 10.1217 23.1409 8.03479 23.4001L6.52175 27.7018C6.73044 27.9091 6.93914 28.1683 7.14783 28.3756ZM13.4087 32.5737L13.8261 28.5311C11.7913 28.6347 9.8087 28.8421 7.8261 29.1012C9.44349 30.6042 11.3217 31.7963 13.4087 32.5737Z" fill="#0068DE"/>
<path fill-rule="evenodd" clip-rule="evenodd" d="M23.6341 32.8325C25.1994 25.8875 34.6428 27.7533 35.9994 21.0156C33.8081 28.0125 22.382 24.8509 22.1211 33.1953C22.6428 33.0916 23.1646 32.9362 23.6341 32.8325Z" fill="#7EEA57"/>
</g>
<path d="M59.94 25.2C58.94 25.2 58 25.02 57.12 24.66C56.2533 24.2867 55.4867 23.7667 54.82 23.1C54.1667 22.4333 53.6533 21.6667 53.28 20.8C52.92 19.92 52.74 18.9733 52.74 17.96C52.74 16.9333 52.9267 15.9867 53.3 15.12C53.6733 14.24 54.1933 13.4733 54.86 12.82C55.5267 12.1533 56.3067 11.64 57.2 11.28C58.0933 10.9067 59.06 10.72 60.1 10.72C61.26 10.72 62.3267 10.94 63.3 11.38C64.2733 11.8067 65.08 12.4133 65.72 13.2L63.88 15.04C63.44 14.4667 62.8933 14.0267 62.24 13.72C61.5867 13.4133 60.8667 13.26 60.08 13.26C59.1867 13.26 58.3933 13.46 57.7 13.86C57.02 14.2467 56.4867 14.7933 56.1 15.5C55.7133 16.1933 55.52 17.0067 55.52 17.94C55.52 18.8733 55.7067 19.7 56.08 20.42C56.4667 21.1267 56.9867 21.68 57.64 22.08C58.3067 22.48 59.0667 22.68 59.92 22.68C60.8 22.68 61.5533 22.52 62.18 22.2C62.8067 21.8667 63.2867 21.3867 63.62 20.76C63.9533 20.12 64.12 19.34 64.12 18.42L65.9 19.64L59.76 19.58V17.22H66.92V17.6C66.92 19.28 66.62 20.6867 66.02 21.82C65.42 22.94 64.5933 23.7867 63.54 24.36C62.5 24.92 61.3 25.2 59.94 25.2ZM71.0064 19.12V17H74.2664C74.9331 17 75.4464 16.8333 75.8064 16.5C76.1797 16.1533 76.3664 15.68 76.3664 15.08C76.3664 14.5333 76.1797 14.08 75.8064 13.72C75.4464 13.3467 74.9331 13.16 74.2664 13.16H71.0064V10.94H74.5064C75.4131 10.94 76.2064 11.12 76.8864 11.48C77.5797 11.8267 78.1131 12.3067 78.4864 12.92C78.8731 13.5333 79.0664 14.24 79.0664 15.04C79.0664 15.8667 78.8731 16.5867 78.4864 17.2C78.1131 17.8 77.5797 18.2733 76.8864 18.62C76.1931 18.9533 75.3864 19.12 74.4664 19.12H71.0064ZM69.0064 25V10.94H71.7264V25H69.0064ZM76.6864 25L72.0464 18.92L74.5464 18.14L79.9864 25H76.6864ZM81.5259 25V10.94H84.2459V25H81.5259ZM83.5259 25V22.6H91.3059V25H83.5259ZM83.5259 18.98V16.66H90.6059V18.98H83.5259ZM83.5259 13.34V10.94H91.2059V13.34H83.5259ZM93.5572 25V10.94H96.2772V25H93.5572ZM95.5572 25V22.6H103.337V25H95.5572ZM95.5572 18.98V16.66H102.637V18.98H95.5572ZM95.5572 13.34V10.94H103.237V13.34H95.5572ZM105.588 25V10.94H107.488L108.308 13.66V25H105.588ZM115.308 25L106.968 14.2L107.488 10.94L115.828 21.74L115.308 25ZM115.308 25L114.528 22.36V10.94H117.268V25H115.308ZM119.08 25L124.74 10.94H126.96L132.6 25H129.7L125.34 13.46H126.34L121.92 25H119.08ZM122.08 22.38V20.1H129.64V22.38H122.08ZM136.26 19.12V17H139.52C140.187 17 140.7 16.8333 141.06 16.5C141.434 16.1533 141.62 15.68 141.62 15.08C141.62 14.5333 141.434 14.08 141.06 13.72C140.7 13.3467 140.187 13.16 139.52 13.16H136.26V10.94H139.76C140.667 10.94 141.46 11.12 142.14 11.48C142.834 11.8267 143.367 12.3067 143.74 12.92C144.127 13.5333 144.32 14.24 144.32 15.04C144.32 15.8667 144.127 16.5867 143.74 17.2C143.367 17.8 142.834 18.2733 142.14 18.62C141.447 18.9533 140.64 19.12 139.72 19.12H136.26ZM134.26 25V10.94H136.98V25H134.26ZM141.94 25L137.3 18.92L139.8 18.14L145.24 25H141.94ZM153.262 25.22C152.236 25.22 151.276 25.0333 150.382 24.66C149.502 24.2867 148.729 23.7733 148.062 23.12C147.409 22.4533 146.896 21.68 146.522 20.8C146.149 19.9067 145.962 18.9533 145.962 17.94C145.962 16.9267 146.142 15.9867 146.502 15.12C146.876 14.24 147.389 13.4733 148.042 12.82C148.709 12.1533 149.482 11.64 150.362 11.28C151.242 10.9067 152.196 10.72 153.222 10.72C154.262 10.72 155.222 10.9067 156.102 11.28C156.982 11.64 157.749 12.1533 158.402 12.82C159.069 13.4733 159.589 14.24 159.962 15.12C160.336 16 160.522 16.9467 160.522 17.96C160.522 18.9733 160.336 19.92 159.962 20.8C159.589 21.68 159.069 22.4533 158.402 23.12C157.749 23.7733 156.982 24.2867 156.102 24.66C155.236 25.0333 154.289 25.22 153.262 25.22ZM153.222 22.68C154.129 22.68 154.916 22.48 155.582 22.08C156.249 21.68 156.769 21.1267 157.142 20.42C157.529 19.7133 157.722 18.8867 157.722 17.94C157.722 17.2467 157.616 16.6133 157.402 16.04C157.189 15.4667 156.882 14.9733 156.482 14.56C156.082 14.1333 155.609 13.8067 155.062 13.58C154.516 13.3533 153.902 13.24 153.222 13.24C152.342 13.24 151.562 13.44 150.882 13.84C150.216 14.2267 149.689 14.7733 149.302 15.48C148.929 16.1867 148.742 17.0067 148.742 17.94C148.742 18.6467 148.849 19.2933 149.062 19.88C149.289 20.4667 149.596 20.9667 149.982 21.38C150.382 21.7933 150.856 22.1133 151.402 22.34C151.962 22.5667 152.569 22.68 153.222 22.68Z" fill="black"/>
<defs>
<radialGradient id="paint0_radial_750_5575" cx="0" cy="0" r="1" gradientUnits="userSpaceOnUse" gradientTransform="translate(18.9367 16.7795) scale(11.5274 11.4511)">
<stop stop-color="#FFCB21"/>
<stop offset="0.6706" stop-color="#FE9C17"/>
<stop offset="1" stop-color="#FE6E0E"/>
</radialGradient>
<clipPath id="clip0_750_5575">
<rect width="36" height="36" fill="white"/>
</clipPath>
</defs>
</svg>
