<svg width="178" height="40" viewBox="0 0 178 40" fill="none" xmlns="http://www.w3.org/2000/svg">
<g clip-path="url(#clip0_2017_7419)">
<path fill-rule="evenodd" clip-rule="evenodd" d="M35.7678 9.64535L27.2461 13.2733L31.1302 8.26326L26.0287 12.0064L29.449 4.00182C31.9997 5.32632 34.1446 7.28428 35.7678 9.64535ZM29.1012 3.82906L23.9417 10.7971L24.6374 4.57769L22.2026 10.3364L21.333 1.87109C24.1157 1.92868 26.7823 2.61973 29.1012 3.82906ZM34.8403 14.713L28.5794 15.4041L35.9417 9.93329C37.5649 12.3519 38.6084 15.2313 38.7823 18.341L29.1012 17.2468L34.8403 14.713ZM29.8548 19.5503L38.7823 18.4562C38.8403 18.8593 38.8403 19.2048 38.8403 19.5503C38.8403 20.2414 38.7823 20.9324 38.7244 21.6235C35.8258 20.7021 32.8113 20.011 29.8548 19.5503ZM12.9852 3.82906L18.0867 10.7971L17.391 4.57769L19.8838 10.3364L20.7533 1.87109C17.9707 1.92868 15.3041 2.61973 12.9852 3.82906ZM6.31856 9.64535L14.7823 13.2733L10.8983 8.26326L16.0577 12.0064L12.5794 4.00182C10.0867 5.32632 7.94175 7.28428 6.31856 9.64535ZM7.24609 14.713L13.507 15.4041L6.14464 9.93329C4.52146 12.3519 3.47798 15.2313 3.30406 18.341L12.9852 17.2468L7.24609 14.713ZM12.2316 19.5503L3.24609 18.4562C3.24609 18.8593 3.24609 19.2048 3.24609 19.5503C3.24609 20.2414 3.30406 20.9324 3.36204 21.6235C6.26059 20.7021 9.27508 20.011 12.2316 19.5503Z" fill="url(#paint0_radial_2017_7419)"/>
<path fill-rule="evenodd" clip-rule="evenodd" d="M34.5498 32.2764C24.173 43.1604 7.41941 38.7262 3.07159 25.8267C-2.26174 10.0478 12.8107 -4.23377 29.0426 2.04323C21.2745 -1.75752 11.8832 -0.145084 5.79623 5.95915C-0.290729 12.121 -1.74 21.4501 2.20202 29.1092C6.14405 36.8258 14.6078 41.0873 23.1875 39.7628C31.7672 38.4383 38.5498 31.8158 39.9991 23.3505C37.5643 31.1247 24.8687 27.6119 24.5788 36.8834C28.173 36.0772 31.5933 34.5223 34.5498 32.2764Z" fill="#7EEA57"/>
<path fill-rule="evenodd" clip-rule="evenodd" d="M25.797 31.6454C24.2318 31.5302 22.6086 31.5302 21.0434 31.5302C19.4202 31.5302 17.855 31.5302 16.2898 31.6454L15.826 36.4827C17.4492 37.001 19.2463 37.2313 21.0434 37.2313C21.9709 37.2313 22.9564 37.1737 23.884 37.001C23.9419 34.8702 24.5796 33.085 25.797 31.6454ZM35.9419 26.4625C35.3622 26.3473 34.7825 26.2322 34.2028 26.1746L34.5506 27.2112C35.0724 26.9808 35.5361 26.6929 35.9419 26.4625ZM32.6956 21.798L33.855 25.1956C34.8985 25.3108 35.884 25.4835 36.9274 25.6563C37.739 24.9077 38.3187 23.9863 38.4927 22.9497C38.5506 22.8345 38.5506 22.7769 38.5506 22.7194C36.6376 22.3162 34.6666 22.0283 32.6956 21.798ZM26.0869 24.447C28.3477 24.5621 30.6086 24.7925 32.8695 25.0804L31.6521 21.6828C29.6811 21.4524 27.71 21.2797 25.739 21.1645L26.0869 24.447ZM26.1448 25.3684L26.6666 30.7816C26.6666 30.7816 26.6666 30.7816 26.7245 30.7816C28.0579 29.5722 29.9709 28.6508 32.4057 27.9598C32.8695 27.8446 33.2753 27.6718 33.6811 27.5567L33.1593 26.0018C30.8405 25.7139 28.5216 25.4835 26.1448 25.3684ZM21.0434 25.1956C19.6521 25.1956 18.2608 25.2532 16.8695 25.3108L16.3477 30.724C17.9129 30.6088 19.4782 30.6088 21.0434 30.6088C22.6086 30.6088 24.1738 30.6088 25.739 30.724L25.2173 25.3108C23.826 25.2532 22.4347 25.1956 21.0434 25.1956ZM17.2173 21.1645L16.9274 24.3894C18.3187 24.3318 19.6521 24.3318 21.0434 24.3318C22.3767 24.3318 23.768 24.3318 25.1593 24.3894L24.8115 21.1645C22.3187 21.0493 19.768 21.0493 17.2173 21.1645ZM10.3767 21.6828L9.21729 25.0804C11.4782 24.7925 13.739 24.5621 15.9999 24.447L16.2898 21.1645C14.3187 21.2797 12.3477 21.4524 10.3767 21.6828ZM4.4057 25.8291C5.68106 25.5987 6.95642 25.3684 8.23178 25.1956L9.39121 21.798C7.42019 22.0283 5.44918 22.3162 3.53613 22.7194C3.71005 23.7559 3.9999 24.7925 4.4057 25.8291ZM6.6086 29.9177L7.88396 26.1746C6.84048 26.2898 5.797 26.4625 4.75352 26.6929C5.21729 27.8446 5.85497 28.8812 6.6086 29.9177ZM7.94193 31.5302C10.4347 31.1847 12.9274 30.8967 15.4202 30.7816L15.9419 25.3684C13.5651 25.4835 11.2463 25.7139 8.92744 26.0018L7.24628 30.7816C7.47816 31.0119 7.71005 31.2998 7.94193 31.5302ZM14.8985 36.1947L15.3622 31.7029C13.1013 31.8181 10.8985 32.0485 8.69555 32.3364C10.4927 34.0064 12.5796 35.3309 14.8985 36.1947Z" fill="white"/>
<path fill-rule="evenodd" clip-rule="evenodd" d="M26.2598 36.4814C27.9989 28.7648 38.4917 30.8379 39.9989 23.3516C37.5641 31.1258 24.8685 27.613 24.5786 36.8845C25.1583 36.7694 25.738 36.5966 26.2598 36.4814Z" fill="#7EEA57"/>
</g>
<path d="M169.447 28.0564C168.306 28.0564 167.24 27.849 166.247 27.4342C165.269 27.0194 164.41 26.449 163.669 25.7231C162.943 24.9824 162.373 24.1231 161.958 23.1453C161.543 22.1527 161.336 21.0935 161.336 19.9675C161.336 18.8416 161.536 17.7972 161.936 16.8342C162.351 15.8564 162.921 15.0046 163.647 14.2786C164.388 13.5379 165.247 12.9675 166.225 12.5675C167.203 12.1527 168.262 11.9453 169.403 11.9453C170.558 11.9453 171.625 12.1527 172.603 12.5675C173.58 12.9675 174.432 13.5379 175.158 14.2786C175.899 15.0046 176.477 15.8564 176.891 16.8342C177.306 17.812 177.514 18.8638 177.514 19.9898C177.514 21.1157 177.306 22.1675 176.891 23.1453C176.477 24.1231 175.899 24.9824 175.158 25.7231C174.432 26.449 173.58 27.0194 172.603 27.4342C171.64 27.849 170.588 28.0564 169.447 28.0564ZM169.403 25.2342C170.41 25.2342 171.284 25.012 172.025 24.5675C172.766 24.1231 173.343 23.5083 173.758 22.7231C174.188 21.9379 174.403 21.0194 174.403 19.9675C174.403 19.1972 174.284 18.4935 174.047 17.8564C173.81 17.2194 173.469 16.6712 173.025 16.212C172.58 15.7379 172.054 15.3749 171.447 15.1231C170.84 14.8712 170.158 14.7453 169.403 14.7453C168.425 14.7453 167.558 14.9675 166.803 15.412C166.062 15.8416 165.477 16.449 165.047 17.2342C164.632 18.0194 164.425 18.9305 164.425 19.9675C164.425 20.7527 164.543 21.4712 164.78 22.1231C165.032 22.7749 165.373 23.3305 165.803 23.7898C166.247 24.249 166.773 24.6046 167.38 24.8564C168.003 25.1083 168.677 25.2342 169.403 25.2342Z" fill="white"/>
<path d="M150.578 21.2803V18.9247H154.2C154.941 18.9247 155.511 18.7396 155.911 18.3692C156.326 17.984 156.533 17.4581 156.533 16.7914C156.533 16.184 156.326 15.6803 155.911 15.2803C155.511 14.8655 154.941 14.6581 154.2 14.6581H150.578V12.1914H154.467C155.474 12.1914 156.355 12.3914 157.111 12.7914C157.881 13.1766 158.474 13.7099 158.889 14.3914C159.318 15.0729 159.533 15.8581 159.533 16.747C159.533 17.6655 159.318 18.4655 158.889 19.147C158.474 19.8136 157.881 20.3396 157.111 20.7247C156.341 21.0951 155.444 21.2803 154.422 21.2803H150.578ZM148.355 27.8136V12.1914H151.378V27.8136H148.355ZM156.889 27.8136L151.733 21.0581L154.511 20.1914L160.555 27.8136H156.889Z" fill="white"/>
<path d="M131.488 27.8136L137.777 12.1914H140.243L146.51 27.8136H143.288L138.443 14.9914H139.554L134.643 27.8136H131.488ZM134.821 24.9025V22.3692H143.221V24.9025H134.821Z" fill="white"/>
<path d="M116.498 27.8136V12.1914H118.609L119.52 15.2136V27.8136H116.498ZM127.298 27.8136L118.031 15.8136L118.609 12.1914L127.875 24.1914L127.298 27.8136ZM127.298 27.8136L126.431 24.8803V12.1914H129.475V27.8136H127.298Z" fill="white"/>
<path d="M103.13 27.8136V12.1914H106.152V27.8136H103.13ZM105.352 27.8136V25.147H113.997V27.8136H105.352ZM105.352 21.1247V18.547H113.219V21.1247H105.352ZM105.352 14.8581V12.1914H113.885V14.8581H105.352Z" fill="white"/>
<path d="M89.7617 27.8136V12.1914H92.7839V27.8136H89.7617ZM91.9839 27.8136V25.147H100.628V27.8136H91.9839ZM91.9839 21.1247V18.547H99.8506V21.1247H91.9839ZM91.9839 14.8581V12.1914H100.517V14.8581H91.9839Z" fill="white"/>
<path d="M78.0733 21.2803V18.9247H81.6955C82.4363 18.9247 83.0066 18.7396 83.4066 18.3692C83.8214 17.984 84.0289 17.4581 84.0289 16.7914C84.0289 16.184 83.8214 15.6803 83.4066 15.2803C83.0066 14.8655 82.4363 14.6581 81.6955 14.6581H78.0733V12.1914H81.9622C82.9696 12.1914 83.8511 12.3914 84.6066 12.7914C85.377 13.1766 85.9696 13.7099 86.3844 14.3914C86.814 15.0729 87.0289 15.8581 87.0289 16.747C87.0289 17.6655 86.814 18.4655 86.3844 19.147C85.9696 19.8136 85.377 20.3396 84.6066 20.7247C83.8363 21.0951 82.94 21.2803 81.9177 21.2803H78.0733ZM75.8511 27.8136V12.1914H78.8733V27.8136H75.8511ZM84.3844 27.8136L79.2289 21.0581L82.0066 20.1914L88.0511 27.8136H84.3844Z" fill="white"/>
<path d="M65.7773 28.0342C64.6662 28.0342 63.6218 27.8342 62.644 27.4342C61.681 27.0194 60.8292 26.4416 60.0885 25.7009C59.3625 24.9601 58.7922 24.1083 58.3773 23.1453C57.9773 22.1675 57.7773 21.1157 57.7773 19.9898C57.7773 18.849 57.9848 17.7972 58.3996 16.8342C58.8144 15.8564 59.3922 15.0046 60.1329 14.2786C60.8736 13.5379 61.7403 12.9675 62.7329 12.5675C63.7255 12.1527 64.7996 11.9453 65.9551 11.9453C67.244 11.9453 68.4292 12.1898 69.5107 12.6786C70.5922 13.1527 71.4885 13.8268 72.1996 14.7009L70.1551 16.7453C69.6662 16.1083 69.0588 15.6194 68.3329 15.2786C67.607 14.9379 66.807 14.7675 65.9329 14.7675C64.9403 14.7675 64.0588 14.9898 63.2885 15.4342C62.5329 15.8638 61.9403 16.4712 61.5107 17.2564C61.081 18.0268 60.8662 18.9305 60.8662 19.9675C60.8662 21.0046 61.0736 21.9231 61.4885 22.7231C61.9181 23.5083 62.4959 24.1231 63.2218 24.5675C63.9625 25.012 64.807 25.2342 65.7551 25.2342C66.7329 25.2342 67.5699 25.0564 68.2662 24.7009C68.9625 24.3305 69.4959 23.7972 69.8662 23.1009C70.2366 22.3898 70.4218 21.5231 70.4218 20.5009L72.3996 21.8564L65.5773 21.7898V19.1675H73.5329V19.5898C73.5329 21.4564 73.1996 23.0194 72.5329 24.2786C71.8662 25.5231 70.9477 26.4638 69.7773 27.1009C68.6218 27.7231 67.2885 28.0342 65.7773 28.0342Z" fill="white"/>
<defs>
<radialGradient id="paint0_radial_2017_7419" cx="0" cy="0" r="1" gradientUnits="userSpaceOnUse" gradientTransform="translate(21.0404 18.6443) scale(12.8083 12.7234)">
<stop stop-color="#FFCB21"/>
<stop offset="0.6706" stop-color="#FE9C17"/>
<stop offset="1" stop-color="#FE6E0E"/>
</radialGradient>
<clipPath id="clip0_2017_7419">
<rect width="40" height="40" fill="white"/>
</clipPath>
</defs>
</svg>
