<svg width="32" height="25" viewBox="0 0 32 25" fill="none" xmlns="http://www.w3.org/2000/svg">
<path d="M26.107 11.1875C26.107 11.1875 26.4898 13.2109 26.5992 13.6484H24.7945C24.9585 13.1562 25.6695 11.2422 25.6695 11.2422C25.6148 11.2969 25.8335 10.75 25.9429 10.4219L26.107 11.1875ZM31.9038 2.875V22.125C31.9038 23.6016 30.7007 24.75 29.2788 24.75H3.02885C1.55228 24.75 0.403847 23.6016 0.403847 22.125V2.875C0.403847 1.45312 1.55228 0.25 3.02885 0.25H29.2788C30.7007 0.25 31.9038 1.45312 31.9038 2.875ZM8.71635 16.6562L12.1617 8.125H9.86478L7.67728 13.9219L7.45853 12.7734L6.69291 8.89062C6.58353 8.34375 6.20072 8.17969 5.70853 8.125H2.15385V8.34375C2.97416 8.5625 3.73978 8.83594 4.45072 9.27344L6.41947 16.6562H8.71635ZM13.857 16.6562L15.2788 8.125H13.0367L11.6695 16.6562H13.857ZM21.5132 13.8672C21.5679 12.8828 20.9663 12.1719 19.7085 11.5703C18.9429 11.1875 18.4507 10.9141 18.4507 10.5312C18.4507 10.1484 18.8335 9.76562 19.7085 9.76562C20.4195 9.76562 20.9663 9.92969 21.3492 10.0938L21.5679 10.2031L21.8413 8.34375C21.4038 8.17969 20.7476 8.01562 19.8726 8.01562C17.6851 8.01562 16.1538 9.16406 16.1538 10.8047C16.1538 12.0078 17.2476 12.7188 18.0679 13.1016C18.9429 13.5391 19.2163 13.8125 19.2163 14.1406C19.2163 14.7422 18.5601 15.0156 17.9038 15.0156C17.0288 15.0156 16.5913 14.8516 15.8257 14.5234L15.5523 14.4141L15.2788 16.3281C15.771 16.5469 16.7007 16.7656 17.6851 16.7656C20.0367 16.7656 21.5132 15.6172 21.5132 13.8672ZM29.2788 16.6562L27.4742 8.125H25.7788C25.232 8.125 24.8492 8.28906 24.6304 8.83594L21.3492 16.6562H23.7007C23.7007 16.6562 24.0288 15.6172 24.1382 15.3984H26.982C27.0367 15.6719 27.2007 16.6562 27.2007 16.6562H29.2788Z" fill="#D9D9D9"/>
</svg>
