<svg width="33" height="25" viewBox="0 0 33 25" fill="none" xmlns="http://www.w3.org/2000/svg">
<path d="M10.7486 12.6641C10.7486 13.3203 10.2017 13.8125 9.54545 13.8125C9.05326 13.8125 8.67045 13.5391 8.67045 12.9922C8.67045 12.3359 9.16264 11.7891 9.87357 11.7891C10.3658 11.7891 10.7486 12.1172 10.7486 12.6641ZM4.9517 9.98438H4.67826C4.62357 9.98438 4.5142 10.0391 4.5142 10.1484L4.29545 11.625L4.73295 11.5703C5.33451 11.5703 5.8267 11.5156 5.93607 10.8047C6.04545 10.0938 5.55326 9.98438 4.9517 9.98438ZM20.4829 9.98438H20.2642C20.1548 9.98438 20.1001 10.0391 20.0454 10.1484L19.8267 11.625L20.2642 11.5703C20.9751 11.5703 21.4673 11.4062 21.4673 10.5859C21.4673 10.0391 20.9751 9.98438 20.4829 9.98438ZM32.0767 2.875V22.125C32.0767 23.6016 30.8736 24.75 29.4517 24.75H3.2017C1.72514 24.75 0.576698 23.6016 0.576698 22.125V2.875C0.576698 1.45312 1.72514 0.25 3.2017 0.25H29.4517C30.8736 0.25 32.0767 1.45312 32.0767 2.875ZM7.5767 10.3125C7.5767 9.16406 6.7017 8.78125 5.66264 8.78125H3.47514C3.36576 8.78125 3.2017 8.89062 3.2017 9.05469L2.3267 14.6328C2.27201 14.7422 2.38139 14.8516 2.49076 14.8516H3.52982C3.6392 14.8516 3.80326 14.6875 3.80326 14.5234L4.0767 13.0469C4.13139 12.6641 4.78764 12.8281 5.06107 12.8281C6.59232 12.8281 7.5767 11.8984 7.5767 10.3125ZM12.1704 10.8047H11.1314C10.9126 10.8047 10.9126 11.0781 10.9126 11.2422C10.5845 10.75 10.147 10.6953 9.60014 10.6953C8.28764 10.6953 7.24857 11.8438 7.24857 13.1562C7.24857 14.25 7.90482 14.9062 8.99857 14.9062C9.49076 14.9062 10.0923 14.6328 10.4204 14.25C10.4204 14.3594 10.3658 14.5234 10.3658 14.6328C10.3658 14.7422 10.4204 14.8516 10.5298 14.8516H11.5142C11.6236 14.8516 11.7876 14.6875 11.7876 14.5234L12.3345 11.0234C12.3892 10.9141 12.2798 10.8047 12.1704 10.8047ZM14.4126 16.1641L17.8579 11.0781C17.9126 11.0234 17.9126 11.0234 17.9126 10.9688C17.9126 10.9141 17.8033 10.8047 17.7486 10.8047H16.6548C16.6001 10.8047 16.4908 10.8594 16.4361 10.9141L14.9595 13.0469L14.3579 11.0234C14.3579 10.9141 14.1939 10.8047 14.0845 10.8047H13.0454C12.9361 10.8047 12.8814 10.9141 12.8814 10.9688C12.8814 11.0234 13.9204 14.0859 14.0298 14.3594C13.8658 14.5781 12.9361 15.9453 12.9361 16.1094C12.9361 16.2188 12.9908 16.2734 13.1001 16.2734H14.1392C14.2486 16.2734 14.3579 16.2188 14.4126 16.1641ZM23.1079 10.3125C23.1079 9.16406 22.2329 8.78125 21.1939 8.78125H19.0064C18.897 8.78125 18.7329 8.89062 18.7329 9.05469L17.8579 14.6328C17.8579 14.7422 17.9126 14.8516 18.022 14.8516H19.1158C19.2251 14.8516 19.3345 14.7422 19.3345 14.6328L19.6079 13.0469C19.6626 12.6641 20.3189 12.8281 20.5923 12.8281C22.1236 12.8281 23.1079 11.8984 23.1079 10.3125ZM27.7017 10.8047H26.6626C26.4439 10.8047 26.4439 11.0781 26.4439 11.2422C26.1158 10.75 25.6783 10.6953 25.1314 10.6953C23.8189 10.6953 22.7798 11.8438 22.7798 13.1562C22.7798 14.25 23.4361 14.9062 24.5298 14.9062C25.022 14.9062 25.6236 14.6328 25.9517 14.25C25.9517 14.3594 25.897 14.5234 25.897 14.6328C25.897 14.7422 25.9517 14.8516 26.0611 14.8516H27.0454C27.1548 14.8516 27.3189 14.6875 27.3189 14.5234L27.8658 11.0234C27.9204 10.9141 27.8111 10.8047 27.7017 10.8047ZM30.3267 8.94531C30.3267 8.83594 30.2173 8.78125 30.1079 8.78125H29.1236C29.0142 8.78125 28.9595 8.83594 28.9595 8.94531L28.0298 14.6328C28.0298 14.7422 28.1392 14.8516 28.2486 14.8516H29.1236C29.2876 14.8516 29.397 14.6875 29.397 14.5234L30.3267 9V8.94531ZM25.4048 11.7891C24.6939 11.7891 24.2017 12.3359 24.2017 12.9922C24.2017 13.5391 24.5845 13.8125 25.0767 13.8125C25.7329 13.8125 26.2798 13.3203 26.2798 12.6641C26.2798 12.1172 25.897 11.7891 25.4048 11.7891Z" fill="#D9D9D9"/>
</svg>
