<svg width="33" height="25" viewBox="0 0 33 25" fill="none" xmlns="http://www.w3.org/2000/svg">
<path d="M24.3199 11.8984V10.0938C26.562 10.0938 26.4527 10.1484 26.4527 10.1484C26.8355 10.2031 27.1636 10.5312 27.1636 11.0234C27.1636 11.4609 26.8355 11.7891 26.4527 11.8438C26.3433 11.8984 26.2339 11.8984 24.3199 11.8984ZM26.6714 12.9922C26.5074 12.9375 26.5074 12.9375 24.3199 12.9375V14.8516C26.5074 14.8516 26.5074 14.9062 26.6714 14.8516C27.0542 14.7422 27.3824 14.4141 27.3824 13.9219C27.3824 13.4297 27.0542 13.0469 26.6714 12.9922ZM32.2495 2.875V22.125C32.2495 23.6016 31.0464 24.75 29.6245 24.75H3.37455C1.89799 24.75 0.74955 23.6016 0.74955 22.125V2.875C0.74955 1.45312 1.89799 0.25 3.37455 0.25H29.6245C31.0464 0.25 32.2495 1.45312 32.2495 2.875ZM10.7027 9.05469H7.58549C7.58549 12.7188 8.13236 15.0156 5.61674 15.0156C4.52299 15.0156 3.48392 14.7422 2.49955 14.25V15.7812C4.14017 16.2188 6.2183 16.2188 6.2183 16.2188C11.523 16.2188 10.7027 13.5938 10.7027 9.05469ZM20.437 9.27344C16.9917 8.39844 11.4136 8.45312 11.4136 12.5547C11.4136 16.7656 17.3199 16.5469 20.437 15.7812V14.1953C17.812 15.5625 14.5855 15.3984 14.5855 12.5C14.5855 9.60156 17.812 9.49219 20.437 10.8047V9.27344ZM30.4995 14.1953C30.4995 13.1562 29.5699 12.5 28.4214 12.4453V12.3906C29.4605 12.2266 30.062 11.5703 30.062 10.75C30.062 9.71094 29.187 9.10938 28.0386 9.05469C28.0386 9.05469 28.3667 9.05469 21.4761 9.05469V16H28.148C29.5152 16 30.4995 15.2891 30.4995 14.1953Z" fill="#D9D9D9"/>
</svg>
