<svg width="33" height="25" viewBox="0 0 33 25" fill="none" xmlns="http://www.w3.org/2000/svg">
<path d="M17.439 10.4766C17.439 11.4062 16.8374 11.9531 15.8531 11.9531H14.4859V9H15.8531C16.8374 9 17.439 9.54688 17.439 10.4766ZM20.0093 13.8672C20.0093 14.3594 20.3921 14.6328 21.0484 14.6328C21.814 14.6328 22.4156 14.1406 22.4156 13.4297V13.0469L21.1031 13.1016C20.3921 13.1562 20.0093 13.4297 20.0093 13.8672ZM32.4234 2.82031V22.0703C32.4234 23.5469 31.2203 24.6953 29.7984 24.6953H3.54838C2.07182 24.6953 0.923378 23.5469 0.923378 22.0703V2.82031C0.923378 1.39844 2.07182 0.195312 3.54838 0.195312H29.7984C31.2203 0.195312 32.4234 1.39844 32.4234 2.82031ZM7.86869 9.32812C8.36088 9.32812 8.79838 9.05469 9.07182 8.72656C9.39994 8.39844 9.564 7.90625 9.50932 7.46875C9.1265 7.46875 8.63432 7.6875 8.30619 8.07031C8.03275 8.34375 7.814 8.83594 7.86869 9.32812ZM11.2046 13.375C11.2046 13.375 10.1109 12.9922 10.1109 11.7344C10.1109 10.6953 10.9312 10.2031 10.9859 10.2031C10.4937 9.49219 9.78275 9.4375 9.50932 9.38281C8.85307 9.38281 8.2515 9.76562 7.97807 9.76562C7.64994 9.76562 7.15775 9.4375 6.61088 9.4375C5.95463 9.4375 5.29838 9.82031 4.97025 10.4219C4.25932 11.6797 4.7515 13.4844 5.46244 14.5234C5.79057 15.0156 6.22807 15.5625 6.77494 15.5078C7.26713 15.5078 7.48588 15.1797 8.08744 15.1797C8.689 15.1797 8.85307 15.5078 9.39994 15.5078C9.94682 15.5078 10.3296 15.0156 10.6578 14.5234C11.0406 13.9766 11.2046 13.4297 11.2046 13.375ZM18.5874 10.4766C18.5874 9 17.6031 8.01562 16.1265 8.01562H13.3374V15.4531H14.4859V12.9375H16.1265C17.6031 12.9375 18.5874 11.8984 18.5874 10.4766ZM23.5093 11.7344C23.5093 10.6953 22.689 9.98438 21.3218 9.98438C20.1187 9.98438 19.189 10.6953 19.189 11.6797H20.2281C20.2828 11.1875 20.7203 10.9141 21.3218 10.9141C22.0328 10.9141 22.4156 11.2422 22.4156 11.8438V12.2266L20.9937 12.3359C19.6265 12.3906 18.9156 12.9922 18.9156 13.9219C18.9156 14.9062 19.6265 15.5078 20.7203 15.5078C21.4312 15.5078 22.1421 15.1797 22.4156 14.5781H22.4703V15.4531H23.5093V11.7344ZM29.1421 10.0391H27.939L26.5718 14.4688L25.2046 10.0391H24.0015L25.9156 15.5078L25.8609 15.8359C25.6421 16.3828 25.3687 16.6016 24.8765 16.6016C24.7671 16.6016 24.6031 16.6016 24.4937 16.6016V17.4766C24.6031 17.4766 24.8765 17.4766 24.9859 17.4766C26.0796 17.4766 26.6265 17.0938 27.064 15.7812L29.1421 10.0391Z" fill="#D9D9D9"/>
</svg>
