<svg width="32" height="25" viewBox="0 0 32 25" fill="none" xmlns="http://www.w3.org/2000/svg">
<path d="M28.5337 9.27344C28.5337 9.71094 28.2056 9.92969 27.6587 9.92969H27.3853V8.5625H27.6587C28.2056 8.5625 28.5337 8.83594 28.5337 9.27344ZM28.9712 0.25C30.3931 0.25 31.5962 1.45312 31.5962 2.875V22.125C31.5962 23.6016 30.3931 24.75 28.9712 24.75H2.72123C1.24467 24.75 0.0962296 23.6016 0.0962296 22.125V2.875C0.0962296 1.45312 1.24467 0.25 2.72123 0.25H28.9712ZM26.5103 7.85156V12.3359H27.3853V10.5859H27.5494L28.7525 12.3359H29.7915L28.4244 10.4766C29.0806 10.3125 29.4087 9.875 29.4087 9.21875C29.4087 7.63281 27.7681 7.85156 26.5103 7.85156ZM23.5025 7.85156V12.3359H25.9634V11.625H24.3775V10.3672H25.9087V9.65625H24.3775V8.61719H25.9634V7.85156H23.5025ZM19.729 7.85156H18.7447L20.6587 12.5H21.1509L23.065 7.85156H22.1353L20.9322 10.9141L19.729 7.85156ZM16.6665 7.6875C15.2994 7.6875 14.2056 8.78125 14.2056 10.1484C14.2056 11.5156 15.2994 12.6094 16.6665 12.6094C18.0337 12.6094 19.1275 11.5156 19.1275 10.1484C19.1275 8.78125 18.0337 7.6875 16.6665 7.6875ZM13.9869 8.07031C12.2915 7.25 10.4869 8.39844 10.4869 10.1484C10.4869 11.8984 12.3462 12.9922 13.9869 12.2266V11.1875C12.8931 12.2266 11.4165 11.5156 11.4165 10.1484C11.4165 8.83594 12.8931 7.96094 13.9869 9.10938V8.07031ZM8.62748 11.6797C8.24467 11.6797 7.91654 11.4609 7.69779 11.0781L7.15092 11.625C8.0806 13.0469 10.2134 12.6094 10.2134 11.0234C10.2134 10.3125 9.93998 9.98438 8.9556 9.60156C8.40873 9.4375 8.24467 9.27344 8.24467 9.05469C8.24467 8.5625 9.06498 8.28906 9.61185 8.89062L10.104 8.28906C9.06498 7.35938 7.36967 7.85156 7.36967 9.10938C7.36967 9.71094 7.6431 10.0391 8.46342 10.3125C9.88529 10.8594 9.28373 11.6797 8.62748 11.6797ZM3.10404 12.3359C4.79935 12.3359 5.51029 11.1328 5.51029 10.1484C5.51029 8.78125 4.52592 7.85156 3.10404 7.85156H1.84623V12.3359H3.10404ZM6.7681 12.3359V7.85156H5.8931V12.3359H6.7681ZM29.8462 22.1797V14.25C27.9869 15.3984 17.4322 21.0859 7.09623 23H29.0259C29.4634 23 29.8462 22.6719 29.8462 22.1797ZM4.1431 9C4.41654 9.27344 4.63529 9.71094 4.63529 10.1484C4.63529 10.5312 4.41654 10.9688 4.1431 11.2422C3.86967 11.5156 3.48685 11.625 2.93998 11.625H2.72123V8.61719H2.93998C3.48685 8.61719 3.81498 8.72656 4.1431 9Z" fill="#D9D9D9"/>
</svg>
