<svg width="36" height="36" viewBox="0 0 36 36" fill="none" xmlns="http://www.w3.org/2000/svg">
<g clip-path="url(#clip0_750_5576)">
<path fill-rule="evenodd" clip-rule="evenodd" d="M32.1914 8.68043L24.5219 11.9456L28.0175 7.43654L23.4262 10.8054L26.5045 3.60124C28.8001 4.7933 30.7306 6.55546 32.1914 8.68043ZM26.1914 3.44576L21.548 9.71699L22.174 4.11953L19.9827 9.30237L19.2001 1.68359C21.7045 1.73542 24.1045 2.35736 26.1914 3.44576ZM31.3567 13.2413L25.7219 13.8633L32.348 8.93957C33.8088 11.1164 34.748 13.7078 34.9045 16.5065L26.1914 15.5218L31.3567 13.2413ZM26.8697 17.5949L34.9045 16.6102C34.9567 16.973 34.9567 17.2839 34.9567 17.5949C34.9567 18.2169 34.9045 18.8388 34.8523 19.4607C32.2436 18.6315 29.5306 18.0095 26.8697 17.5949ZM11.6871 3.44576L16.2784 9.71699L15.6523 4.11953L17.8958 9.30237L18.6784 1.68359C16.174 1.73542 13.774 2.35736 11.6871 3.44576ZM5.68709 8.68043L13.3045 11.9456L9.80883 7.43654L14.4523 10.8054L11.3219 3.60124C9.0784 4.7933 7.14796 6.55546 5.68709 8.68043ZM6.52187 13.2413L12.1567 13.8633L5.53057 8.93957C4.0697 11.1164 3.13057 13.7078 2.97405 16.5065L11.6871 15.5218L6.52187 13.2413ZM11.0088 17.5949L2.92188 16.6102C2.92188 16.973 2.92188 17.2839 2.92188 17.5949C2.92188 18.2169 2.97405 18.8388 3.02622 19.4607C5.63492 18.6315 8.34796 18.0095 11.0088 17.5949Z" fill="url(#paint0_radial_750_5576)"/>
<path fill-rule="evenodd" clip-rule="evenodd" d="M31.0951 29.0488C21.7559 38.8444 6.67767 34.8536 2.76463 23.244C-2.03537 9.04305 11.5298 -3.81039 26.1385 1.8389C19.1472 -1.58177 10.6951 -0.130576 5.2168 5.36323C-0.261461 10.9089 -1.56581 19.3051 1.98202 26.1982C5.52984 33.1432 13.1472 36.9785 20.869 35.7865C28.5907 34.5944 34.6951 28.6342 35.9994 21.0154C33.8081 28.0122 22.382 24.8507 22.1211 33.1951C25.3559 32.4695 28.4342 31.0701 31.0951 29.0488Z" fill="#7EEA57"/>
<path fill-rule="evenodd" clip-rule="evenodd" d="M23.2174 28.4793C21.8087 28.3756 20.3478 28.3756 18.9391 28.3756C17.4783 28.3756 16.0696 28.3756 14.6609 28.4793L14.2435 32.8328C15.7044 33.2993 17.3217 33.5066 18.9391 33.5066C19.7739 33.5066 20.6609 33.4548 21.4957 33.2993C21.5478 31.3817 22.1217 29.775 23.2174 28.4793ZM32.3478 23.8147C31.8261 23.711 31.3044 23.6074 30.7826 23.5556L31.0957 24.4885C31.5652 24.2812 31.9826 24.022 32.3478 23.8147ZM29.4261 19.6166L30.4696 22.6745C31.4087 22.7781 32.2957 22.9336 33.2348 23.0891C33.9652 22.4153 34.487 21.5861 34.6435 20.6532C34.6957 20.5495 34.6957 20.4977 34.6957 20.4459C32.9739 20.0831 31.2 19.8239 29.4261 19.6166ZM23.4783 22.0007C25.5131 22.1044 27.5478 22.3117 29.5826 22.5708L28.487 19.5129C26.7131 19.3056 24.9391 19.1501 23.1652 19.0465L23.4783 22.0007ZM23.5304 22.83L24 27.7018C24 27.7018 24 27.7018 24.0522 27.7018C25.2522 26.6134 26.9739 25.7842 29.1652 25.1622C29.5826 25.0586 29.9478 24.9031 30.3131 24.7994L29.8435 23.4001C27.7565 23.1409 25.6696 22.9336 23.5304 22.83ZM18.9391 22.6745C17.687 22.6745 16.4348 22.7263 15.1826 22.7781L14.7131 27.65C16.1217 27.5463 17.5304 27.5463 18.9391 27.5463C20.3478 27.5463 21.7565 27.5463 23.1652 27.65L22.6957 22.7781C21.4435 22.7263 20.1913 22.6745 18.9391 22.6745ZM15.4957 19.0465L15.2348 21.9489C16.487 21.8971 17.687 21.8971 18.9391 21.8971C20.1391 21.8971 21.3913 21.8971 22.6435 21.9489L22.3304 19.0465C20.087 18.9428 17.7913 18.9428 15.4957 19.0465ZM9.33914 19.5129L8.29566 22.5708C10.3304 22.3117 12.3652 22.1044 14.4 22.0007L14.6609 19.0465C12.887 19.1501 11.1131 19.3056 9.33914 19.5129ZM3.96523 23.2446C5.11305 23.0373 6.26088 22.83 7.4087 22.6745L8.45218 19.6166C6.67827 19.8239 4.90436 20.0831 3.18262 20.4459C3.33914 21.3788 3.60001 22.3117 3.96523 23.2446ZM5.94783 26.9244L7.09566 23.5556C6.15653 23.6592 5.2174 23.8147 4.27827 24.022C4.69566 25.0586 5.26957 25.9915 5.94783 26.9244ZM7.14783 28.3756C9.39131 28.0646 11.6348 27.8055 13.8783 27.7018L14.3478 22.83C12.2087 22.9336 10.1217 23.1409 8.03479 23.4001L6.52175 27.7018C6.73044 27.9091 6.93914 28.1683 7.14783 28.3756ZM13.4087 32.5737L13.8261 28.5311C11.7913 28.6347 9.8087 28.8421 7.8261 29.1012C9.44349 30.6042 11.3217 31.7963 13.4087 32.5737Z" fill="#0068DE"/>
<path fill-rule="evenodd" clip-rule="evenodd" d="M23.6341 32.8325C25.1994 25.8875 34.6428 27.7533 35.9994 21.0156C33.8081 28.0125 22.382 24.8509 22.1211 33.1953C22.6428 33.0916 23.1646 32.9362 23.6341 32.8325Z" fill="#7EEA57"/>
</g>
<defs>
<radialGradient id="paint0_radial_750_5576" cx="0" cy="0" r="1" gradientUnits="userSpaceOnUse" gradientTransform="translate(18.9367 16.7795) scale(11.5274 11.4511)">
<stop stop-color="#FFCB21"/>
<stop offset="0.6706" stop-color="#FE9C17"/>
<stop offset="1" stop-color="#FE6E0E"/>
</radialGradient>
<clipPath id="clip0_750_5576">
<rect width="36" height="36" fill="white"/>
</clipPath>
</defs>
</svg>
