<svg width="144" height="144" viewBox="0 0 144 144" fill="none" xmlns="http://www.w3.org/2000/svg">
<path d="M101.548 130.893H13.6113C12.5903 130.893 11.7627 130.065 11.7627 129.044C11.7627 128.023 12.5903 127.195 13.6113 127.195H101.548C102.569 127.195 103.396 128.023 103.396 129.044C103.396 130.065 102.569 130.893 101.548 130.893Z" fill="#002D2C"/>
<path d="M74.2 130.893H40.959C39.9379 130.893 39.1104 130.065 39.1104 129.044V122.965C39.1104 118.706 42.5751 115.241 46.8342 115.241H68.3241C72.5832 115.241 76.0487 118.706 76.0487 122.965V129.044C76.0487 130.065 75.2211 130.893 74.2 130.893ZM42.8076 127.195H72.3514V122.965C72.3514 120.745 70.5446 118.939 68.3241 118.939H46.8342C44.6137 118.939 42.8076 120.745 42.8076 122.965V127.195Z" fill="#002D2C"/>
<path d="M49.6107 108.589C49.5645 108.589 49.5176 108.587 49.4706 108.583C48.4524 108.508 47.6891 107.62 47.765 106.603L50.9741 63.6985C51.0514 62.681 51.941 61.9184 52.9556 61.9928C53.9738 62.0693 54.7371 62.9561 54.6613 63.9743L51.4521 106.877C51.3792 107.849 50.569 108.589 49.6107 108.589Z" fill="#002D2C"/>
<path d="M65.5499 108.589C64.5916 108.589 63.7814 107.849 63.7085 106.877L60.4993 63.9743C60.4235 62.9561 61.1868 62.0693 62.205 61.9928C63.2225 61.9148 64.1107 62.6802 64.1865 63.6984L67.3957 106.603C67.4715 107.62 66.7082 108.508 65.69 108.583C65.6431 108.587 65.5961 108.589 65.5499 108.589Z" fill="#002D2C"/>
<path d="M87.5501 140.4H27.6084C26.5873 140.4 25.7598 139.572 25.7598 138.551C25.7598 137.53 26.5873 136.703 27.6084 136.703H87.5501C88.5712 136.703 89.3988 137.53 89.3988 138.551C89.3988 139.572 88.5712 140.4 87.5501 140.4Z" fill="#002D2C"/>
<path d="M54.3562 50.2597C53.3351 50.2597 52.5076 49.4322 52.5076 48.4111V46.5776H48.8399C47.8188 46.5776 46.9912 45.75 46.9912 44.7289V5.44878C46.9912 4.73099 47.4072 4.07818 48.0571 3.77417C48.7063 3.47015 49.4761 3.5698 50.0256 4.03052C61.0294 13.2348 65.243 28.2377 62.5487 48.6234C62.4151 49.6358 61.4858 50.3558 60.4741 50.2142C59.4616 50.0806 58.7496 49.1513 58.8832 48.1396C61.1615 30.898 58.4795 18.2897 50.6885 9.76639V42.8803H54.3562C55.3773 42.8803 56.2048 43.7079 56.2048 44.7289V48.4111C56.2048 49.4322 55.3773 50.2597 54.3562 50.2597Z" fill="#002D2C"/>
<path d="M17.7233 91.463C17.3521 91.463 16.9817 91.3518 16.6647 91.1294C16.0761 90.7192 15.7793 90.0043 15.9021 89.2981C18.392 74.9826 28.9734 64.1413 48.2506 56.1538C49.1908 55.7624 50.2754 56.2101 50.6661 57.154C51.0568 58.0971 50.609 59.1788 49.6659 59.5695C33.5878 66.2318 24.0109 74.8584 20.5353 85.8564L49.2153 69.2966L47.3855 66.1192C46.8764 65.2353 47.1804 64.1052 48.0643 63.5954L51.2438 61.7619C52.1262 61.2513 53.2578 61.5553 53.7691 62.4399C54.2789 63.3246 53.9756 64.4547 53.091 64.9652L51.5117 65.8758L53.3401 69.0518C53.8492 69.9356 53.5459 71.065 52.6628 71.5749L18.6476 91.2146C18.361 91.3807 18.0418 91.463 17.7233 91.463Z" fill="#002D2C"/>
<path d="M94.8737 78.3579C84.6447 78.3579 73.7702 73.8605 61.9425 64.7855C61.1322 64.1637 60.9791 63.0033 61.6009 62.1937C62.2205 61.3835 63.3831 61.229 64.1926 61.8522C77.9867 72.4342 90.2448 76.411 101.514 73.9269L72.8271 57.3707L70.9994 60.5437C70.7553 60.969 70.3517 61.2795 69.8779 61.4066C69.4042 61.5344 68.9002 61.4687 68.4741 61.2232L65.2939 59.3897C64.41 58.8799 64.106 57.749 64.6158 56.8644C65.1249 55.9791 66.2557 55.6773 67.1411 56.1864L68.7189 57.0962L70.5466 53.9225C70.7914 53.4972 71.1951 53.1866 71.6688 53.0595C72.1411 52.9303 72.6466 52.9974 73.0726 53.2437L107.102 72.8834C107.724 73.2423 108.081 73.9283 108.019 74.6432C107.958 75.3596 107.487 75.9734 106.813 76.2204C102.923 77.6444 98.9494 78.3579 94.8737 78.3579Z" fill="#002D2C"/>
<path d="M57.5796 67.1023C51.7441 67.1023 46.9961 62.3543 46.9961 56.5181C46.9961 50.6826 51.7441 45.9346 57.5796 45.9346C63.4151 45.9346 68.1631 50.6826 68.1631 56.5181C68.1631 62.3543 63.4151 67.1023 57.5796 67.1023ZM57.5796 49.6319C53.7827 49.6319 50.6934 52.7211 50.6934 56.5181C50.6934 60.3158 53.7827 63.405 57.5796 63.405C61.3766 63.405 64.4658 60.3158 64.4658 56.5181C64.4658 52.7211 61.3766 49.6319 57.5796 49.6319Z" fill="#002D2C"/>
<path d="M37.0104 44.5426C36.6551 44.5426 36.2962 44.4408 35.9792 44.2271C35.1322 43.6566 34.9083 42.5084 35.4788 41.6613C38.5955 37.0332 42.9918 33.5518 48.1926 31.5927C49.1465 31.2316 50.2138 31.7162 50.5742 32.6716C50.9338 33.6269 50.4514 34.6928 49.4953 35.0531C45.0174 36.74 41.2313 39.739 38.5449 43.7266C38.1882 44.2567 37.6047 44.5426 37.0104 44.5426Z" fill="#002D2C"/>
<path d="M30.0694 28.2439C29.5682 28.2439 29.0685 28.0417 28.7038 27.6423C28.0149 26.8884 28.0676 25.7193 28.8215 25.0304C32.2054 21.9382 36.0341 19.4267 40.2015 17.565C41.1352 17.1498 42.2271 17.5665 42.6431 18.4988C43.0597 19.431 42.6416 20.5243 41.7093 20.9403C37.9037 22.6409 34.4065 24.9351 31.3158 27.76C30.9612 28.0843 30.5142 28.2439 30.0694 28.2439Z" fill="#002D2C"/>
<path d="M98.3393 60.1289C98.3119 60.1289 98.2852 60.1282 98.2577 60.1275C97.2381 60.0834 96.4466 59.2205 96.4907 58.2001C96.5152 57.6426 96.5268 57.0822 96.5268 56.5183C96.5268 49.1121 94.4406 41.9082 90.4927 35.6856C89.946 34.8241 90.2017 33.6817 91.0639 33.1343C91.9254 32.5869 93.0678 32.8426 93.6152 33.7055C97.9386 40.521 100.224 48.4095 100.224 56.5183C100.224 57.1357 100.211 57.7495 100.185 58.3604C100.142 59.3526 99.3236 60.1289 98.3393 60.1289Z" fill="#002D2C"/>
<path d="M41.5923 95.9112C41.3511 95.9112 41.1056 95.8636 40.8694 95.7639C37.2379 94.22 33.8345 92.1706 30.7553 89.6735C29.9624 89.0308 29.8411 87.8667 30.4845 87.0738C31.1272 86.2809 32.2891 86.1596 33.0849 86.8023C35.8954 89.0813 39.0013 90.9516 42.3166 92.3612C43.2561 92.7613 43.6937 93.8459 43.2943 94.7861C42.9954 95.4895 42.3115 95.9112 41.5923 95.9112Z" fill="#002D2C"/>
<path d="M118.064 11.2408H70.9717C69.9506 11.2408 69.123 10.4132 69.123 9.39211C69.123 8.37102 69.9506 7.54346 70.9717 7.54346H118.064C119.085 7.54346 119.912 8.37102 119.912 9.39211C119.912 10.4132 119.085 11.2408 118.064 11.2408Z" fill="#002D2C"/>
<path d="M121.922 34.6665H102.898C101.877 34.6665 101.05 33.839 101.05 32.8179C101.05 31.7968 101.877 30.9692 102.898 30.9692H121.922C122.943 30.9692 123.771 31.7968 123.771 32.8179C123.771 33.839 122.943 34.6665 121.922 34.6665Z" fill="#002D2C"/>
<path d="M121.922 98.9903H112.409C111.388 98.9903 110.561 98.1627 110.561 97.1416C110.561 96.1205 111.388 95.293 112.409 95.293H121.922C122.943 95.293 123.77 96.1205 123.77 97.1416C123.77 98.1627 122.943 98.9903 121.922 98.9903Z" fill="#002D2C"/>
<path d="M98.8485 98.9903H74.8291C73.808 98.9903 72.9805 98.1627 72.9805 97.1416C72.9805 96.1205 73.808 95.293 74.8291 95.293H98.8485C99.8696 95.293 100.697 96.1205 100.697 97.1416C100.697 98.1627 99.8696 98.9903 98.8485 98.9903Z" fill="#002D2C"/>
<path d="M130.389 67.5113H121.922C120.901 67.5113 120.073 66.6837 120.073 65.6626C120.073 64.6415 120.901 63.814 121.922 63.814H130.389C131.41 63.814 132.237 64.6415 132.237 65.6626C132.237 66.6837 131.41 67.5113 130.389 67.5113Z" fill="#002D2C"/>
</svg>
