<svg width="131" height="163" viewBox="0 0 131 163" fill="none" xmlns="http://www.w3.org/2000/svg">
<path d="M128.587 107.955L108.37 96.2836C111.707 89.6276 113.455 82.2889 113.477 74.8436C113.5 67.3983 111.797 60.0491 108.501 53.3729L128.743 41.6845C129.071 41.4947 129.36 41.242 129.591 40.9409C129.822 40.6397 129.991 40.296 130.09 39.9293C130.188 39.5626 130.213 39.1802 130.163 38.8038C130.114 38.4274 129.991 38.0645 129.801 37.7357C129.611 37.4069 129.359 37.1188 129.057 36.8876C128.756 36.6565 128.413 36.487 128.046 36.3887C127.679 36.2904 127.297 36.2653 126.92 36.3148C126.544 36.3643 126.181 36.4875 125.852 36.6773L105.62 48.3605C101.524 42.1463 96.044 36.965 89.6104 33.2227C83.1768 29.4804 75.9641 27.2787 68.5373 26.7902V3.40772C68.5258 2.64876 68.2161 1.92479 67.6753 1.39217C67.1345 0.859544 66.4059 0.561009 65.6469 0.561035C64.8878 0.561062 64.1593 0.859648 63.6185 1.39231C63.0777 1.92497 62.7682 2.64896 62.7567 3.40792V26.7711C55.3262 27.2099 48.0983 29.3635 41.6394 33.0631C35.1805 36.7628 29.6661 41.908 25.5285 48.0954L5.2865 36.4091C4.62362 36.0444 3.8442 35.9541 3.11548 36.1574C2.38675 36.3608 1.76678 36.8418 1.38857 37.497C1.01037 38.1523 0.904075 38.9297 1.09249 39.6624C1.2809 40.3952 1.74902 41.0249 2.3964 41.4164L22.6123 53.0878C19.2763 59.7439 17.5284 67.0827 17.5059 74.528C17.4833 81.9733 19.1867 89.3224 22.4824 95.9987L2.23955 107.687C1.59219 108.079 1.12412 108.709 0.935765 109.441C0.747411 110.174 0.853785 110.952 1.23206 111.607C1.61033 112.262 2.23037 112.743 2.95914 112.946C3.6879 113.15 4.46733 113.059 5.13018 112.694L25.4135 100.982C26.3493 102.412 27.3601 103.791 28.4415 105.114L7.07736 140.006C5.59689 142.489 4.87783 145.352 5.00937 148.24C5.14091 151.128 6.11726 153.913 7.81733 156.252C9.5174 158.59 11.8664 160.378 14.5731 161.393C17.2797 162.409 20.225 162.608 23.0436 161.965C24.9219 161.519 26.6932 160.705 28.2547 159.57C29.8162 158.435 31.1369 157.001 32.1404 155.352L53.1431 121.051C56.1873 121.858 59.3032 122.365 62.4462 122.566V145.964C62.4578 146.723 62.7674 147.447 63.3082 147.98C63.849 148.512 64.5776 148.811 65.3366 148.811C66.0957 148.811 66.8243 148.512 67.365 147.979C67.9058 147.447 68.2153 146.723 68.2268 145.964V122.601C75.6572 122.162 82.885 120.008 89.3437 116.308C95.8023 112.609 101.316 107.463 105.453 101.275L125.697 112.963C126.36 113.326 127.138 113.415 127.866 113.211C128.594 113.007 129.213 112.527 129.591 111.872C129.968 111.218 130.075 110.441 129.887 109.709C129.7 108.977 129.233 108.348 128.587 107.955ZM27.2094 152.332C25.9621 154.32 23.9812 155.735 21.6966 156.271C19.4121 156.808 17.0082 156.421 15.0068 155.196C13.0054 153.971 11.5681 152.005 11.0068 149.727C10.4454 147.448 10.8054 145.04 12.0086 143.026L44.8885 89.3265C45.1362 88.8605 45.2654 88.3407 45.2646 87.813C45.2639 87.2853 45.1332 86.7659 44.8841 86.3007C35.3816 71.7677 46.2575 51.1608 63.4882 50.7018L54.6207 65.1824C54.3733 65.5871 54.2291 66.0463 54.2008 66.5198C54.1725 66.9932 54.2609 67.4664 54.4584 67.8977L59.6448 79.2048C59.8844 79.7264 60.2738 80.1648 60.7633 80.4644C61.2529 80.764 61.8205 80.9112 62.394 80.8871L74.8232 80.365C75.2968 80.3456 75.7583 80.2098 76.1669 79.9695C76.5756 79.7293 76.9187 79.392 77.1659 78.9876L86.0333 64.506C87.6595 68.252 88.283 72.3567 87.8424 76.4166C87.4018 80.4765 85.9124 84.352 83.5205 87.6619C81.1287 90.9719 77.9167 93.6026 74.2002 95.2953C70.4838 96.988 66.3909 97.6845 62.3237 97.3164C61.8761 97.353 61.4426 97.4904 61.0556 97.7183C60.6687 97.9463 60.3383 98.2588 60.0893 98.6325L27.2094 152.332ZM66.1076 116.886C62.8136 116.904 59.5271 116.569 56.3043 115.887L64.1359 103.097C69.5296 103.205 74.8474 101.813 79.4973 99.0777C84.1472 96.3423 87.9468 92.3701 90.4732 87.6034C92.9996 82.8367 94.1537 77.4624 93.807 72.0787C93.4603 66.695 91.6265 61.5131 88.5096 57.1098C88.0526 56.4996 87.3784 56.0886 86.6266 55.9619C85.8748 55.8352 85.1032 56.0026 84.4714 56.4294C84.1915 56.6923 83.9291 56.9733 83.6859 57.2705L73.042 74.6547L64.0903 75.0302L60.356 66.8871L70.9985 49.5057C71.2386 49.0959 71.3754 48.6338 71.3971 48.1593C71.4188 47.6848 71.3248 47.2122 71.1231 46.7821C70.9214 46.3521 70.6181 45.9775 70.2394 45.6908C69.8606 45.4042 69.4179 45.2139 68.9492 45.1365C63.6151 44.3559 58.1689 45.0726 53.2183 47.2066C48.2677 49.3405 44.0073 52.8079 40.9122 57.2219C37.8172 61.6358 36.0092 66.8229 35.6901 72.2044C35.3709 77.5859 36.5531 82.9503 39.1047 87.6991L31.6419 99.8872C11.0924 72.679 30.6931 32.8706 64.8901 32.4856C70.4331 32.4037 75.938 33.4146 81.0903 35.4606C86.2426 37.5066 90.9414 40.5476 94.9181 44.4099C98.8949 48.2722 102.072 52.8801 104.267 57.9705C106.463 63.0608 107.634 68.5338 107.714 74.0769C107.794 79.62 106.781 85.1245 104.733 90.2761C102.686 95.4277 99.643 100.125 95.7793 104.101C91.9155 108.076 87.3065 111.251 82.2154 113.445C77.1242 115.639 71.6507 116.808 66.1076 116.886Z" fill="#002D2C"/>
</svg>
