<svg width="151" height="143" viewBox="0 0 151 143" fill="none" xmlns="http://www.w3.org/2000/svg">
<path d="M149.736 87.5125C149.523 85.6266 148.062 84.1125 146.123 83.8734L135.392 82.4391C134.728 80.2609 133.851 78.1359 132.762 76.0906L139.323 67.4578C140.439 65.9172 140.439 63.8453 139.296 62.3844C136.906 59.3297 134.17 56.5937 131.115 54.2031C129.654 53.0609 127.582 53.0344 126.015 54.2031L120.729 58.2141C120.65 56.9391 120.57 55.6641 120.411 54.3891C120.171 52.2906 118.525 50.6172 116.4 50.3516L102.986 48.5453C102.136 45.6766 100.993 42.9406 99.6121 40.3641L107.793 29.6063C109.068 27.9062 109.068 25.5687 107.793 23.9219C104.898 20.2562 101.551 16.9094 97.8855 14.0141C96.2387 12.7125 93.9012 12.7125 92.2012 14.0141L81.4434 22.1953C78.8668 20.8141 76.1309 19.6719 73.2621 18.8219L71.4559 5.40781C71.1637 3.28281 69.5168 1.63594 67.4184 1.39687C62.7168 0.839063 58.1215 0.839063 53.4199 1.39687C51.3215 1.63594 49.648 3.28281 49.3824 5.40781L47.5762 18.8219C44.7074 19.6719 41.9715 20.8141 39.3949 22.1953L28.6371 14.0141C26.9371 12.7125 24.5996 12.7391 22.9527 14.0141C19.2871 16.9094 15.9402 20.2297 13.0449 23.9219C11.7434 25.5687 11.7434 27.9062 13.0449 29.6063L21.2262 40.3641C19.8449 42.9406 18.7027 45.6766 17.8527 48.5453L4.43867 50.3516C2.31367 50.6437 0.666797 52.2906 0.427735 54.3891C0.16211 56.7266 0.0292969 59.0906 0.0292969 61.375C0.0292969 63.6594 0.16211 66.0234 0.427735 68.3609C0.666797 70.4594 2.31367 72.1062 4.43867 72.3984L17.8527 74.2047C18.7027 77.0734 19.8449 79.8359 21.2262 82.3859L13.0449 93.1437C11.7699 94.8437 11.7699 97.1812 13.0449 98.8281C15.9402 102.52 19.2871 105.841 22.9527 108.736C24.5996 110.037 26.9371 110.037 28.6371 108.736L39.3949 100.555C41.9715 101.936 44.7074 103.078 47.5762 103.928L49.3824 117.342C49.6746 119.467 51.3215 121.114 53.4199 121.353C55.7574 121.619 58.0949 121.752 60.3793 121.752C60.4059 122.575 60.698 123.398 61.2293 124.062C63.6199 127.117 66.3559 129.853 69.4105 132.244C70.8715 133.386 72.9434 133.412 74.5105 132.244L83.1168 125.709C85.1621 126.798 87.2871 127.675 89.4652 128.339L90.8996 139.07C91.1652 140.983 92.6527 142.47 94.5387 142.683C96.4246 142.895 98.3371 143.002 100.303 143.002C102.268 143.002 104.181 142.895 106.04 142.683C107.926 142.47 109.44 141.009 109.679 139.07L111.114 128.339C113.292 127.675 115.417 126.798 117.462 125.709L126.095 132.27C127.636 133.386 129.707 133.386 131.168 132.244C134.223 129.853 136.959 127.117 139.35 124.062C140.492 122.602 140.518 120.53 139.35 118.962L132.815 110.356C133.904 108.311 134.781 106.186 135.445 104.008L146.176 102.573C148.089 102.308 149.576 100.82 149.789 98.9344C150.001 97.0484 150.107 95.1359 150.107 93.1703C150.107 91.2047 150.001 89.2922 149.789 87.4328L149.736 87.5125ZM53.3137 116.864L51.3215 102.148C51.2152 101.352 50.6309 100.687 49.8605 100.502C46.4074 99.5719 43.1668 98.2437 40.2184 96.5172C39.8996 96.3312 39.5543 96.2516 39.209 96.2516C38.784 96.2516 38.359 96.3844 38.0137 96.65L26.2199 105.628C25.9809 105.814 25.6355 105.814 25.423 105.628C21.9965 102.919 18.8887 99.8109 16.1793 96.3844C15.9934 96.1719 16.0199 95.8266 16.1793 95.5875L25.1574 83.7937C25.6355 83.1562 25.6887 82.2797 25.2902 81.5891C23.5637 78.6406 22.209 75.3734 21.3059 71.9203C21.0934 71.15 20.4559 70.5656 19.659 70.4594L4.94336 68.4672C4.65117 68.4141 4.38555 68.2016 4.35898 67.9094C4.09336 65.7047 3.98711 63.5 3.98711 61.375C3.98711 59.25 4.11992 57.0453 4.35898 54.8406C4.38555 54.5484 4.62461 54.3359 4.94336 54.2828L19.659 52.2906C20.4559 52.1844 21.1199 51.6 21.3059 50.8297C22.2355 47.3766 23.5637 44.1359 25.2902 41.1609C25.6887 40.4703 25.6355 39.5937 25.1574 38.9562L16.1793 27.1625C15.9934 26.9234 15.9934 26.5781 16.1793 26.3656C18.8887 22.9391 21.9965 19.8047 25.423 17.1219C25.6355 16.9625 25.9809 16.9625 26.2199 17.1219L38.0137 26.1C38.6512 26.5781 39.5277 26.6313 40.2184 26.2328C43.1668 24.5063 46.434 23.1516 49.8605 22.2484C50.6309 22.0359 51.2152 21.3984 51.3215 20.6016L53.3137 5.88594C53.3668 5.59375 53.5793 5.32812 53.8715 5.30156C58.2543 4.79687 62.5574 4.79687 66.9402 5.30156C67.2059 5.32812 67.4449 5.56719 67.498 5.88594L69.4902 20.6016C69.5965 21.3984 70.1809 22.0625 70.9512 22.2484C74.4043 23.1781 77.6449 24.5063 80.5934 26.2328C81.284 26.6313 82.1605 26.5781 82.798 26.1L94.5918 17.1219C94.8309 16.9359 95.1762 16.9359 95.3887 17.1219C98.8152 19.8312 101.923 22.9391 104.632 26.3656C104.818 26.5781 104.792 26.9234 104.632 27.1625L95.6543 38.9562C95.1762 39.5937 95.123 40.4703 95.5215 41.1609C97.248 44.1359 98.6027 47.3766 99.5059 50.8297C99.7184 51.6 100.356 52.1844 101.153 52.2906L115.868 54.2828C116.187 54.3359 116.426 54.5484 116.453 54.8406C116.718 57.0453 116.825 59.25 116.825 61.375C116.825 63.5 116.692 65.7047 116.453 67.9094C116.426 68.2016 116.187 68.4141 115.868 68.4672L101.153 70.4594C100.356 70.5656 99.6918 71.15 99.5059 71.9203C98.5762 75.3734 97.248 78.6141 95.5215 81.5891C95.123 82.2797 95.1762 83.1562 95.6543 83.7937L104.632 95.5875C104.818 95.8266 104.818 96.1719 104.632 96.3844C101.923 99.8109 98.8152 102.919 95.3887 105.628C95.1762 105.814 94.8309 105.787 94.5918 105.628L82.798 96.65C82.1605 96.1719 81.284 96.1187 80.5934 96.5172C77.6449 98.2437 74.3777 99.5984 70.9512 100.502C70.1809 100.714 69.5965 101.352 69.4902 102.148L67.498 116.864C67.4449 117.156 67.2324 117.422 66.9402 117.448C62.5574 117.953 58.2543 117.953 53.8715 117.448C53.6059 117.422 53.3668 117.183 53.3137 116.864ZM107.793 93.1703L99.6121 82.4125C100.993 79.8359 102.136 77.1 102.986 74.2312H103.118C112.468 75.6125 119.481 83.7406 119.481 93.25C119.481 103.875 110.848 112.508 100.223 112.508C92.8652 112.508 86.198 108.231 82.984 101.803L92.148 108.789C93.848 110.064 96.1855 110.064 97.8324 108.789C101.498 105.894 104.845 102.547 107.74 98.8812C109.042 97.2344 109.042 94.8969 107.74 93.1969L107.793 93.1703ZM145.592 98.6953L133.559 100.316C132.762 100.422 132.098 101.006 131.912 101.777C131.195 104.486 130.106 107.116 128.698 109.586C128.3 110.277 128.353 111.153 128.831 111.791L136.189 121.645C134.011 124.434 131.487 126.958 128.459 129.136L118.817 121.805C118.179 121.327 117.303 121.273 116.612 121.672C114.142 123.106 111.512 124.195 108.803 124.886C108.032 125.098 107.448 125.736 107.342 126.533L105.562 138.752C102.136 139.15 98.5762 139.336 94.8309 138.566L93.2105 126.533C93.1043 125.736 92.5199 125.072 91.7496 124.886C89.0402 124.169 86.4105 123.08 83.9402 121.672C83.2496 121.273 82.373 121.327 81.7355 121.805L71.8809 129.162C69.1449 127.011 66.6746 124.567 64.523 121.645C65.5059 121.566 66.4621 121.512 67.4449 121.38C69.5434 121.141 71.2168 119.494 71.4824 117.369L73.2887 103.955C75.1746 103.397 76.9809 102.68 78.734 101.883C82.2137 110.569 90.7668 116.466 100.276 116.466C113.106 116.466 123.518 106.053 123.518 93.2234C123.518 84.6703 118.79 77.0469 111.698 73.0359L116.426 72.3984C118.551 72.1062 120.198 70.4594 120.437 68.3609C120.65 66.6344 120.729 64.9078 120.782 63.1812L128.671 57.3375C131.461 59.5156 133.984 62.0391 136.162 65.0672L128.831 74.7094C128.353 75.3469 128.3 76.2234 128.698 76.914C130.132 79.3844 131.221 82.0141 131.912 84.7234C132.125 85.4937 132.762 86.0781 133.559 86.1844L145.778 87.9641C145.99 89.6906 146.096 91.4703 146.096 93.25C146.096 95.0297 145.99 96.8094 145.618 98.6953H145.592ZM60.4059 87.2734C57.5371 87.2734 54.748 86.8219 52.1449 85.9187C51.109 85.5734 50.5512 84.4312 50.923 83.3953C51.2949 82.3594 52.4105 81.8016 53.4465 82.1734C55.6512 82.9172 57.9887 83.3156 60.4324 83.3156C72.5184 83.3156 82.3465 73.4875 82.3465 61.4016C82.3465 53.0344 77.6715 45.5172 70.1809 41.7719C69.198 41.2938 68.7996 40.0984 69.2777 39.0891C69.7559 38.1062 70.9777 37.7078 71.9605 38.1859C80.8324 42.5953 86.3574 51.4672 86.3574 61.375C86.3574 75.6656 74.7496 87.2734 60.459 87.2734H60.4059ZM38.4918 61.375C38.4918 63.8187 38.8637 66.1562 39.634 68.3609C40.0059 69.3969 39.448 70.5391 38.4121 70.8844C38.1996 70.9641 37.9871 70.9906 37.7746 70.9906C36.9512 70.9906 36.1809 70.4594 35.8887 69.6359C34.9855 67.0328 34.534 64.2437 34.534 61.375C34.534 51.4672 40.059 42.5953 48.9309 38.1859C49.9137 37.7078 51.109 38.1062 51.6137 39.0891C52.1184 40.0719 51.6934 41.2672 50.7105 41.7719C43.1934 45.4906 38.5449 53.0078 38.5449 61.4016L38.4918 61.375ZM61.8137 62.7828L44.9199 79.6766C44.5215 80.075 44.0168 80.2609 43.5121 80.2609C43.0074 80.2609 42.5027 80.075 42.1043 79.6766C41.334 78.9062 41.334 77.6312 42.1043 76.8609L58.4137 60.5516V34.8125C58.4137 33.7234 59.3168 32.8203 60.4059 32.8203C61.4949 32.8203 62.398 33.7234 62.398 34.8125V61.375C62.398 61.9062 62.1855 62.4109 61.8137 62.7828Z" fill="#002D2C"/>
</svg>
