<svg width="131" height="131" viewBox="0 0 131 131" fill="none" xmlns="http://www.w3.org/2000/svg">
<path d="M121.802 57.1138C121.3 42.8246 115.514 29.4626 105.353 19.3019C94.703 8.64994 80.5489 2.78564 65.5003 2.78564C35.1062 2.78564 10.2715 26.9777 9.20097 57.1138C4.56275 59.175 1.31641 63.8173 1.31641 69.2129V84.0773C1.31641 91.3764 7.25439 97.3165 14.5556 97.3165C19.2798 97.3165 23.1218 93.4745 23.1218 88.7503V64.5378C23.1218 60.1022 19.7199 56.4854 15.3948 56.0556C16.9914 29.8003 38.8479 8.92627 65.5003 8.92627C78.9114 8.92627 91.5222 14.154 101.014 23.6453C109.729 32.3609 114.83 43.7211 115.598 56.0576C111.277 56.4916 107.881 60.1063 107.881 64.5378V88.7483C107.881 93.2207 111.336 96.86 115.712 97.2387V103.357C115.712 110.247 110.106 115.851 103.216 115.851H93.9621C93.5077 114.553 92.7953 113.354 91.7965 112.359C90.0464 110.601 87.713 109.633 85.228 109.633H75.6896C74.3203 109.633 73.0061 109.923 71.8026 110.484C68.5194 111.993 66.3988 115.304 66.3988 118.921C66.3988 121.406 67.367 123.74 69.1212 125.486C70.8754 127.244 73.2088 128.212 75.6896 128.212H85.228C89.1826 128.212 92.6684 125.655 93.9682 121.992H103.216C113.493 121.992 121.853 113.632 121.853 103.357V96.1457C126.462 94.0722 129.684 89.4462 129.684 84.0732V69.2088C129.684 63.8173 126.438 59.175 121.802 57.1138ZM16.9791 64.5378V88.7483C16.9791 90.0849 15.8922 91.1738 14.5535 91.1738C10.6399 91.1738 7.45498 87.9889 7.45498 84.0752V69.2108C7.45498 65.2952 10.6399 62.1123 14.5535 62.1123C15.8922 62.1123 16.9791 63.2012 16.9791 64.5378ZM88.3086 119.58C88.0036 121.025 86.7059 122.075 85.226 122.075H75.6876C74.8483 122.075 74.0603 121.748 73.4585 121.146C72.8649 120.555 72.5374 119.765 72.5374 118.925C72.5374 117.699 73.2559 116.58 74.3817 116.062C74.7828 115.873 75.2229 115.777 75.6876 115.777H85.226C86.0652 115.777 86.8533 116.103 87.453 116.704C88.0466 117.296 88.3741 118.086 88.3741 118.925C88.3761 119.15 88.3516 119.376 88.3086 119.58ZM123.543 84.0752C123.543 87.9889 120.359 91.1738 116.445 91.1738C115.108 91.1738 114.019 90.0869 114.019 88.7483V64.5378C114.019 63.2012 115.106 62.1123 116.445 62.1123C120.359 62.1123 123.543 65.2972 123.543 69.2108V84.0752Z" fill="#002D2C"/>
<path d="M85.3819 85.1334C92.5562 85.1334 98.3918 79.2958 98.3918 72.1235V45.6144C98.3918 42.147 97.0368 38.8802 94.5765 36.4199C92.1161 33.9595 88.8514 32.6045 85.3819 32.6045H45.6193C38.445 32.6045 32.6094 38.4401 32.6094 45.6144V72.1235C32.6094 79.2978 38.445 85.1334 45.6193 85.1334H45.8629V92.0028C45.8629 94.6228 47.4247 96.948 49.84 97.9285C50.6198 98.2416 51.4304 98.3972 52.2328 98.3972C53.9051 98.3972 55.5344 97.734 56.7277 96.4997L68.1554 85.1334H85.3819ZM64.7269 79.8853L52.3597 92.1849C52.3044 92.2422 52.2635 92.2852 52.1468 92.2341C52.0056 92.1767 52.0056 92.0846 52.0056 92.0028V82.0631C52.0056 80.3683 50.6321 78.9928 48.9352 78.9928H45.6214C41.8326 78.9928 38.752 75.9102 38.752 72.1235V45.6144C38.752 41.8257 41.8326 38.7451 45.6214 38.7451H85.3839C87.2139 38.7451 88.9353 39.4615 90.2371 40.7613C91.5389 42.0631 92.2533 43.7866 92.2533 45.6144V72.1235C92.2533 75.9123 89.1707 78.9928 85.3839 78.9928H66.8925C66.0799 78.9928 65.3021 79.3142 64.7269 79.8853Z" fill="#002D2C"/>
<path d="M50.5844 54.8296C48.0872 54.8296 46.0547 56.8642 46.0547 59.3593C46.0547 61.8545 48.0893 63.8891 50.5844 63.8891C53.0837 63.8891 55.1182 61.8545 55.1182 59.3593C55.1182 56.8642 53.0857 54.8296 50.5844 54.8296Z" fill="#002D2C"/>
<path d="M65.4985 54.8296C63.0013 54.8296 60.9688 56.8642 60.9688 59.3593C60.9688 61.8545 63.0033 63.8891 65.4985 63.8891C67.9998 63.8891 70.0323 61.8545 70.0323 59.3593C70.0323 56.8642 67.9998 54.8296 65.4985 54.8296Z" fill="#002D2C"/>
<path d="M80.4116 54.8296C77.9144 54.8296 75.8818 56.8642 75.8818 59.3593C75.8818 61.8545 77.9164 63.8891 80.4116 63.8891C82.9108 63.8891 84.9454 61.8545 84.9454 59.3593C84.9454 56.8642 82.9108 54.8296 80.4116 54.8296Z" fill="#002D2C"/>
</svg>
