<svg width="60" height="60" viewBox="0 0 60 60" fill="none" xmlns="http://www.w3.org/2000/svg">
<path d="M53.7245 11.9231C53.4695 8.58975 50.6633 6.02565 47.347 5.76922C42.245 5.2564 35.102 5 29.4897 5C23.8776 5 16.9898 5.2564 11.8877 5.76922C10.102 5.76922 8.82653 6.53845 7.55103 7.82053C6.5306 8.84615 5.7653 10.3846 5.7653 11.9231C5.5102 16.0257 5 21.6667 5 26.0258C5 30.3845 5.5102 36.0257 5.7653 40.1283C6.0204 43.4615 8.82653 46.0257 12.1428 46.282C17.2449 46.795 24.3878 47.0512 30 47.0512C35.6122 47.0512 42.755 46.5385 47.8573 46.282C51.1735 46.0257 53.7245 43.4615 54.2347 40.1283C54.745 36.0257 55 30.3845 55 26.0258C55 21.6667 54.2347 16.0257 53.7245 11.9231ZM41.2245 20.8974L33.5715 28.5897C32.806 29.359 31.5305 29.359 30.7652 28.5897L27.194 25L20.8163 31.4103C20.3061 31.6667 20.051 31.923 19.5408 31.923C19.0306 31.923 18.5204 31.6667 18.2653 31.4103C17.5 30.641 17.5 29.359 18.2653 28.5897L25.9183 20.8974C26.6838 20.1282 27.9593 20.1282 28.7245 20.8974L32.296 24.4872L38.6735 18.0769C39.4388 17.3077 40.7143 17.3077 41.4795 18.0769C41.9897 19.1026 41.9897 20.1282 41.2245 20.8974Z" fill="#B4E33D"/>
<path d="M39.949 55.0009H19.5408C18.5204 55.0009 17.5 54.2317 17.5 52.9497C17.5 51.6677 18.2653 50.8984 19.5408 50.8984H39.949C40.9695 50.8984 41.9897 51.6677 41.9897 52.9497C41.9897 54.2317 40.9695 55.0009 39.949 55.0009Z" fill="#B4E33D"/>
</svg>
