<svg width="60" height="60" viewBox="0 0 60 60" fill="none" xmlns="http://www.w3.org/2000/svg">
<path d="M56.9145 4.15847C56.7262 3.49496 56.142 3 55.4178 3H49.0897C48.2153 3 47.5077 3.70759 47.5077 4.58203C47.5077 5.45647 48.2153 6.16406 49.0897 6.16406H52.7897L45.2346 14.6941C35.0488 26.2164 20.0592 32.3066 4.7178 30.9733C3.87585 30.8853 3.08167 31.5419 3.00605 32.4132C2.93032 33.283 3.57463 34.0493 4.4459 34.1249C5.92595 34.2532 7.1748 34.3165 8.6503 34.3165C23.4339 34.3165 37.7401 27.9466 47.6047 16.789L53.8358 9.75632V10.9101C53.8358 11.7846 54.5434 12.4922 55.4178 12.4922C56.2923 12.4922 56.9999 11.7846 56.9999 10.9101V6.14318L56.9145 4.15847Z" fill="#B4E33D"/>
<path d="M55.4179 53.8364H53.7304V18.2682C53.7304 17.6038 53.3148 17.0106 52.6907 16.7819C52.0681 16.5579 51.3682 16.7401 50.9387 17.2485L49.967 18.4025C48.3603 20.309 46.6098 22.1212 44.762 23.7851C44.4283 24.0849 44.2382 24.5127 44.2382 24.9608V53.8364H41.0742V29.897C41.0742 29.313 40.7512 28.7754 40.2369 28.5004C39.7224 28.2285 39.0936 28.2563 38.61 28.5838C36.6464 29.9032 34.5761 31.1083 32.4564 32.1681C31.9203 32.4353 31.582 32.9838 31.582 33.5833V53.8364H28.4179V36.2807C28.4179 35.7662 28.1677 35.2843 27.7475 34.9876C27.3288 34.6925 26.788 34.6214 26.3044 34.7914C24.2976 35.5067 22.2273 36.1139 20.1509 36.5928C19.434 36.7597 18.9258 37.3977 18.9258 38.1346V53.8364H15.7617V39.2254C15.7617 38.7743 15.5686 38.3447 15.2333 38.0451C14.895 37.7454 14.4361 37.5924 14.0005 37.6542C11.9704 37.886 9.90176 38.0049 7.85008 38.008C6.97722 38.0096 6.26963 38.7171 6.26963 39.59V53.8364H4.58203C3.70759 53.8364 3 54.544 3 55.4184C3 56.2929 3.70759 57.0004 4.58203 57.0004H55.4179C56.2923 57.0004 56.9999 56.2929 56.9999 55.4184C56.9999 54.544 56.2923 53.8364 55.4179 53.8364Z" fill="#B4E33D"/>
</svg>
