<svg width="36" height="38" viewBox="0 0 36 38" fill="none" xmlns="http://www.w3.org/2000/svg">
<path d="M0.399902 27.8V27.8125C0.412415 29.875 1.82491 31.6 3.72494 32.1125C4.16242 35.2875 6.86247 37.75 10.1624 37.75H17.9999C18.6874 37.75 19.2499 37.1875 19.2499 36.5C19.2499 35.8125 18.6874 35.25 17.9999 35.25H10.1624C8.22492 35.25 6.61244 33.875 6.22495 32.0625C8.03747 31.4875 9.3749 29.8 9.3749 27.8V20.6375C9.3749 18.1624 7.36242 16.15 4.88744 16.15C4.19995 16.15 3.54993 16.325 2.96239 16.5999C3.5999 8.86251 10.0999 2.75 17.9999 2.75C22.0249 2.75 25.8124 4.32501 28.6749 7.17497C31.225 9.73746 32.7499 13.05 33.0375 16.6125C32.4499 16.325 31.7999 16.15 31.1124 16.15C28.6374 16.15 26.625 18.1624 26.625 20.6375V27.8C26.625 30.275 28.6374 32.2875 31.1124 32.2875C33.575 32.2875 35.5874 30.275 35.6 27.8125C35.6 27.8 35.6 27.8 35.6 27.8V17.8499C35.6 13.1624 33.7624 8.73747 30.4375 5.4C27.1 2.07495 22.6874 0.25 17.9999 0.25C8.29992 0.25 0.399902 8.1375 0.399902 17.8499V27.8Z" fill="#DFFF03"/>
</svg>
