<svg width="60" height="60" viewBox="0 0 60 60" fill="none" xmlns="http://www.w3.org/2000/svg">
<g clip-path="url(#clip0_368_906)">
<path d="M25.7409 9.81784C25.8862 9.81784 26.0337 9.78173 26.1696 9.70564L28.5436 8.3763C29.5037 7.83878 28.6883 6.27989 27.6845 6.84192L25.3105 8.17126C24.5521 8.59601 24.8703 9.81784 25.7409 9.81784Z" fill="#002524"/>
<path d="M6.26811 19.8423C6.03094 19.4186 5.49517 19.2674 5.07136 19.5047L2.69733 20.834C1.73635 21.372 2.55501 22.9295 3.55644 22.3684L5.93047 21.0391C6.35416 20.8019 6.50527 20.2661 6.26811 19.8423Z" fill="#002524"/>
<path d="M9.16843 4.95228C9.70959 5.91221 11.2648 5.09003 10.7002 4.0886L9.36632 1.72278C8.82598 0.764257 7.26956 1.58432 7.83452 2.58646L9.16843 4.95228Z" fill="#002524"/>
<path d="M18.5172 4.31353C18.9469 4.43451 19.4798 4.13861 19.6019 3.70531L20.3373 1.09247C20.6353 0.0333551 18.9563 -0.491628 18.6445 0.616018L17.9091 3.22886C17.7775 3.6964 18.0498 4.18187 18.5172 4.31353Z" fill="#002524"/>
<path d="M4.44428 12.3606C5.42613 12.3606 5.62157 10.8973 4.68063 10.6343L2.05876 9.9013C0.998715 9.60457 0.477483 11.2852 1.58513 11.5949L4.207 12.3279C4.28625 12.35 4.36597 12.3606 4.44428 12.3606Z" fill="#002524"/>
<path d="M26.5656 28.4944V30.2963H25.7524C23.7703 30.2963 22.1577 31.9089 22.1577 33.891V49.5447C22.2016 51.5466 23.7643 53.0992 25.7631 53.1394H27.7861C29.3238 53.465 29.0255 50.8508 27.6522 51.3809H25.7631C24.7634 51.3809 23.9163 50.552 23.9163 49.5447V46.1112H37.1289V49.5447C37.1289 50.5483 36.285 51.3809 35.2819 51.3809H32.9754C31.6021 50.8508 31.3039 53.465 32.8416 53.1394H35.2819C37.2808 53.096 38.8467 51.5465 38.8874 49.5447V33.891C38.8874 31.9089 37.2748 30.2963 35.2927 30.2963H34.4795V28.4944C34.4795 27.2851 33.4955 26.3011 32.2862 26.3011H28.7587C27.5495 26.3011 26.5656 27.2851 26.5656 28.4944ZM23.9164 44.3528V39.0832H37.129V44.3528H23.9164ZM37.129 33.891V37.3245H23.9164V33.891C23.9164 32.8786 24.7401 32.0549 25.7525 32.0549H35.2928C36.3053 32.0549 37.129 32.8787 37.129 33.891ZM32.721 28.4944V30.2963H28.3241V28.4944C28.3241 28.2547 28.5191 28.0597 28.7588 28.0597H32.2863C32.5261 28.0597 32.721 28.2547 32.721 28.4944Z" fill="#002524"/>
<path d="M48.8209 15.5351H54.7563C55.1271 15.5351 55.458 15.3025 55.5836 14.9536L58.9813 5.51567C59.1843 4.95165 58.7533 4.33862 58.1539 4.33862H43.8141C43.4433 4.33862 43.1124 4.57122 42.9867 4.92011L39.6228 14.2646C39.4156 14.8399 39.9289 15.5351 40.5326 15.5351H47.0623V20.3057L42.0047 17.2178C41.0652 16.6447 40.1064 18.1194 41.0883 18.7188L54.8569 27.1249C56.7297 28.2801 54.9292 31.2178 53.0066 30.0322L40.2169 22.2298L30.9844 16.5386C30.7016 16.3643 30.3444 16.3643 30.0616 16.5386L20.8294 22.2297L8.03587 30.0344C6.15083 31.1972 4.28666 28.2984 6.18565 27.127L29.8882 12.6557C30.3345 12.4065 30.7113 12.4066 31.1577 12.6557L36.2454 15.7619C37.1846 16.3354 38.1437 14.8603 37.1618 14.2609L32.0606 11.1466C32.0524 11.1416 32.0441 11.1368 32.0357 11.132C31.0519 10.575 29.9942 10.5748 29.0101 11.132C29.0018 11.1368 28.9935 11.1416 28.9852 11.1466L23.7671 14.3325C23.7228 13.0393 23.3699 11.7633 22.727 10.6231C20.5251 6.71769 15.5461 5.32563 11.6283 7.51947C9.72711 8.58409 8.35686 10.3233 7.76962 12.4168C7.1838 14.5055 7.44828 16.6969 8.51431 18.5875C9.26673 19.9221 10.3588 20.994 11.673 21.7163L5.26581 25.6281C1.42774 27.9957 5.14225 33.8845 8.95535 31.5334L9.65712 31.1053V59.1207C9.65712 59.6064 10.0507 60 10.5364 60H50.5095C50.9953 60 51.3888 59.6064 51.3888 59.1207V31.1053L52.0871 31.5313C55.9226 33.8969 59.5962 27.982 55.7766 25.6261L48.8155 21.3762C48.8189 21.3449 48.8209 21.3131 48.8209 21.2809V15.5351ZM47.1982 11.6908L49.212 6.09716H52.1229L51.1139 8.89993L49.3582 13.7766H46.4473L47.1982 11.6908ZM54.1382 13.7766H51.2273L52.2363 10.9738L53.992 6.09716H56.9029L54.1382 13.7766ZM44.432 6.09716H47.343L46.5921 8.18291L44.5783 13.7766H41.6675L44.432 6.09716ZM10.0461 17.7238C9.21128 16.2432 9.004 14.5271 9.46275 12.8917C9.9229 11.2514 10.997 9.88846 12.4874 9.05386C15.5618 7.33236 19.468 8.42371 21.195 11.4867C21.8716 12.6868 22.1389 14.0782 21.9592 15.4362L13.4879 20.6082C12.0252 20.0944 10.8118 19.0819 10.0461 17.7238ZM49.6303 30.0983V58.2414H11.4157V30.0983L21.7641 23.7193L30.5229 18.3758L39.2823 23.7196L49.6303 30.0983Z" fill="#002524"/>
</g>
<defs>
<clipPath id="clip0_368_906">
<rect width="60" height="60" fill="white"/>
</clipPath>
</defs>
</svg>
