<svg width="45" height="45" viewBox="0 0 45 45" fill="none" xmlns="http://www.w3.org/2000/svg">
<path d="M28.4199 34.2285L30.9375 32.541C32.3995 31.5613 33.6411 30.2865 34.583 28.7998C35.5248 27.3132 36.1469 25.6466 36.4082 23.9062H28.125C27.3791 23.9062 26.6642 23.6095 26.1367 23.082C25.6093 22.5546 25.3125 21.8397 25.3125 21.0938V12.6562C25.3125 11.9103 25.6093 11.1954 26.1367 10.668C26.6642 10.1405 27.3791 9.84375 28.125 9.84375H36.5625C37.3084 9.84375 38.0233 10.1405 38.5508 10.668C39.0782 11.1954 39.375 11.9103 39.375 12.6562V22.0078C39.3741 24.554 38.745 27.0611 37.543 29.3057C36.3409 31.5502 34.6031 33.4631 32.4844 34.875L29.9668 36.5625L28.4199 34.2285ZM8.73242 34.2285L11.25 32.541C12.712 31.5613 13.9536 30.2865 14.8955 28.7998C15.8373 27.3132 16.4594 25.6466 16.7207 23.9062H8.4375C7.69158 23.9062 6.97666 23.6095 6.44922 23.082C5.92177 22.5546 5.625 21.8397 5.625 21.0938V12.6562C5.625 11.9103 5.92177 11.1954 6.44922 10.668C6.97666 10.1405 7.69158 9.84375 8.4375 9.84375H16.875C17.6209 9.84375 18.3358 10.1405 18.8633 10.668C19.3907 11.1954 19.6875 11.9103 19.6875 12.6562V22.0078C19.6866 24.554 19.0575 27.0611 17.8555 29.3057C16.6534 31.5502 14.9156 33.4631 12.7969 34.875L10.2656 36.5625L8.73242 34.2285Z" fill="#002524"/>
</svg>
