<svg width="55" height="53" viewBox="0 0 55 53" fill="none" xmlns="http://www.w3.org/2000/svg">
<path d="M23.6808 3.19659V12.3743C23.6808 13.6191 22.6718 14.6276 21.4271 14.6276C16.9862 14.6276 14.5705 19.1824 14.2357 28.1722H21.4271C22.6718 28.1722 23.6808 29.1817 23.6808 30.4259V49.8043C23.6808 51.0483 22.6718 52.057 21.4271 52.057H2.25324C1.00806 52.057 0 51.0476 0 49.8043V30.4259C0 26.1164 0.433914 22.1617 1.2893 18.6704C2.16658 15.0905 3.51323 11.9604 5.29064 9.36688C7.11957 6.70147 9.40731 4.60989 12.0908 3.15279C14.7925 1.68688 17.9342 0.943359 21.4279 0.943359C22.6718 0.943359 23.6808 1.95189 23.6808 3.19659ZM52.7461 14.6277C53.9902 14.6277 55 13.6183 55 12.3745V3.19675C55 1.95205 53.9904 0.943517 52.7461 0.943517C49.2539 0.943517 46.1117 1.68719 43.411 3.15295C40.727 4.61005 38.438 6.70163 36.6087 9.36703C34.832 11.9606 33.4853 15.0908 32.6079 18.6715C31.753 22.1639 31.319 26.1186 31.319 30.4261V49.8044C31.319 51.0485 32.3284 52.0572 33.5728 52.0572H52.746C53.9901 52.0572 54.9989 51.0477 54.9989 49.8044V30.4259C54.9989 29.1818 53.9902 28.1722 52.746 28.1722H45.6571C45.9869 19.1826 48.3673 14.6277 52.7461 14.6277Z" fill="#002524"/>
</svg>
