<svg width="60" height="60" viewBox="0 0 60 60" fill="none" xmlns="http://www.w3.org/2000/svg">
<path d="M48.9235 36.6468V26.3493L57.6563 11.7614C57.7309 11.6369 57.771 11.495 57.7728 11.3499C57.7746 11.2049 57.7378 11.062 57.6664 10.9358C57.5949 10.8096 57.4912 10.7045 57.366 10.6314C57.2407 10.5583 57.0983 10.5198 56.9532 10.5197H28.7382C28.5965 10.5199 28.4573 10.5568 28.3341 10.6267C28.2108 10.6967 28.1079 10.7974 28.0351 10.919L11.8993 37.8722C11.8248 37.9966 11.7846 38.1385 11.7828 38.2835C11.781 38.4286 11.8177 38.5714 11.8892 38.6976C11.9607 38.8238 12.0644 38.9288 12.1897 39.0018C12.315 39.0749 12.4574 39.1134 12.6024 39.1134H40.8174C40.9591 39.1133 41.0984 39.0765 41.2216 39.0066C41.3448 38.9367 41.4478 38.8361 41.5206 38.7145L42.2813 37.4414C42.3071 37.4475 42.3329 37.4512 42.3592 37.455V47.6343H30.0001C29.7825 47.6343 29.5739 47.7208 29.42 47.8746C29.2662 48.0284 29.1798 48.2371 29.1798 48.4547V53.3765H25.5657V52.7343C25.5657 52.5168 25.4793 52.3081 25.3255 52.1543C25.1716 52.0005 24.963 51.914 24.7454 51.914H22.7523V45.7031C22.7523 45.4855 22.6659 45.2769 22.512 45.123C22.3582 44.9692 22.1495 44.8828 21.932 44.8828H19.9548V42.8906C19.9548 42.673 19.8684 42.4644 19.7145 42.3105C19.5607 42.1567 19.352 42.0703 19.1345 42.0703H16.322C16.1044 42.0703 15.8958 42.1567 15.7419 42.3105C15.5881 42.4644 15.5017 42.673 15.5017 42.8906V44.8828H9.70322V42.8906C9.70328 42.7828 9.68211 42.6761 9.64091 42.5766C9.5997 42.477 9.53928 42.3866 9.4631 42.3104C9.38691 42.2342 9.29646 42.1738 9.1969 42.1326C9.09735 42.0914 8.99065 42.0702 8.88291 42.0703H6.07041C5.85285 42.0703 5.6442 42.1567 5.49036 42.3105C5.33652 42.4644 5.2501 42.673 5.2501 42.8906V44.8828H3.27197C3.05441 44.8828 2.84576 44.9692 2.69192 45.123C2.53809 45.2769 2.45166 45.4855 2.45166 45.7031V56.9531C2.45166 57.1706 2.53809 57.3793 2.69192 57.5331C2.84576 57.687 3.05441 57.7734 3.27197 57.7734H21.932C22.1495 57.7734 22.3582 57.687 22.512 57.5331C22.6659 57.3793 22.7523 57.1706 22.7523 56.9531V56.3671H24.7454C24.963 56.3671 25.1716 56.2807 25.3255 56.1269C25.4793 55.973 25.5657 55.7644 25.5657 55.5468V55.0172H30.0001C30.2177 55.0172 30.4263 54.9307 30.5801 54.7769C30.734 54.623 30.8204 54.4144 30.8204 54.1968V49.275H42.361V50.5078H39.4435C39.3358 50.5077 39.2291 50.5289 39.1295 50.5701C39.03 50.6113 38.9395 50.6717 38.8633 50.7479C38.7872 50.8241 38.7267 50.9145 38.6855 51.0141C38.6443 51.1136 38.6232 51.2203 38.6232 51.3281V53.3203H35.9588C35.7413 53.3203 35.5326 53.4067 35.3788 53.5605C35.225 53.7144 35.1385 53.923 35.1385 54.1406V56.9531C35.1385 57.1706 35.225 57.3793 35.3788 57.5331C35.5326 57.687 35.7413 57.7734 35.9588 57.7734H54.6188C54.8364 57.7734 55.0451 57.687 55.1989 57.5331C55.3527 57.3793 55.4392 57.1706 55.4392 56.9531V54.1406C55.4392 53.923 55.3527 53.7144 55.1989 53.5605C55.0451 53.4067 54.8364 53.3203 54.6188 53.3203H51.954V51.3281C51.9541 51.2203 51.9329 51.1136 51.8917 51.0141C51.8505 50.9145 51.7901 50.8241 51.7139 50.7479C51.6377 50.6717 51.5472 50.6113 51.4477 50.5701C51.3481 50.5289 51.2414 50.5077 51.1337 50.5078H48.2204V37.4531C48.4149 37.4256 48.593 37.329 48.7222 37.1809C48.8513 37.0329 48.9228 36.8433 48.9235 36.6468ZM17.1423 43.7109H18.3142V44.8828H17.1423V43.7109ZM6.89072 43.7109H8.0626V44.8828H6.89072V43.7109ZM21.1117 56.1328H4.09228V46.5234H21.1117V56.1328ZM23.9242 54.7265H22.7523V53.5546H23.9242V54.7265ZM47.282 35.8265H43.2976V35.7454L47.282 29.0892V35.8265ZM23.3795 37.4728L25.6243 33.7228H33.0423L30.7974 37.4728H23.3795ZM26.6063 32.0822L28.8517 28.3322H36.2696L34.0243 32.0822H26.6063ZM19.5217 28.3322H26.9396L24.6948 32.0822H17.2763L19.5217 28.3322ZM22.7485 22.9415H30.167L27.9217 26.6915H20.5037L22.7485 22.9415ZM25.9759 17.5509H33.3938L31.149 21.3009H23.731L25.9759 17.5509ZM45.9512 12.1603L43.7059 15.9103H36.2879L38.5332 12.1603H45.9512ZM42.7238 17.5509L40.479 21.3009H33.061L35.3059 17.5509H42.7238ZM50.0363 21.3009H42.3906L44.6359 17.5509H52.2788L50.0363 21.3009ZM46.809 26.6915H39.1684L41.4132 22.9415H49.0562L46.809 26.6915ZM37.254 26.6915H29.8337L32.0785 22.9415H39.4965L37.254 26.6915ZM38.1835 28.3322H45.8246L43.5793 32.0822H35.9387L38.1835 28.3322ZM53.2632 15.9103H45.6179L47.8628 12.1603H55.5062L53.2632 15.9103ZM29.2056 12.1603H36.6212L34.3763 15.9103H26.9579L29.2056 12.1603ZM16.2967 33.7228H23.7123L21.4674 37.4728H14.0495L16.2967 33.7228ZM40.3543 37.4728H32.709L34.9543 33.7228H42.5949L40.3543 37.4728ZM53.7985 56.1328H36.7792V54.9609H53.7985V56.1328ZM50.3134 53.3203H40.2657V52.1484H50.3153L50.3134 53.3203ZM44.0017 50.5078V37.4672H46.5798V50.5078H44.0017Z" fill="white"/>
<path d="M3.04688 11.6016H4.39406C4.53907 12.7357 4.98532 13.8103 5.68641 14.7136L4.72969 15.6703C4.58076 15.8255 4.49859 16.0329 4.50082 16.248C4.50304 16.4631 4.58948 16.6688 4.74159 16.8209C4.89369 16.973 5.09936 17.0595 5.31446 17.0617C5.52956 17.0639 5.73697 16.9817 5.89219 16.8328L6.84891 15.8761C7.75216 16.5772 8.82676 17.0234 9.96094 17.1684V18.5156C9.96094 18.7332 10.0474 18.9418 10.2012 19.0957C10.355 19.2495 10.5637 19.3359 10.7812 19.3359C10.9988 19.3359 11.2075 19.2495 11.3613 19.0957C11.5151 18.9418 11.6016 18.7332 11.6016 18.5156V17.1684C12.7357 17.0234 13.8103 16.5772 14.7136 15.8761L15.6703 16.8328C15.7461 16.9118 15.8368 16.9748 15.9372 17.0182C16.0376 17.0616 16.1457 17.0846 16.2551 17.0857C16.3645 17.0869 16.473 17.0661 16.5743 17.0248C16.6756 16.9835 16.7676 16.9223 16.845 16.845C16.9223 16.7676 16.9835 16.6756 17.0248 16.5743C17.0661 16.473 17.0869 16.3645 17.0857 16.2551C17.0846 16.1457 17.0616 16.0376 17.0182 15.9372C16.9748 15.8368 16.9118 15.7461 16.8328 15.6703L15.8761 14.7136C16.5772 13.8103 17.0234 12.7357 17.1684 11.6016H18.5156C18.7332 11.6016 18.9418 11.5151 19.0957 11.3613C19.2495 11.2075 19.3359 10.9988 19.3359 10.7812C19.3359 10.5637 19.2495 10.355 19.0957 10.2012C18.9418 10.0474 18.7332 9.96094 18.5156 9.96094H17.1684C17.0234 8.82676 16.5772 7.75216 15.8761 6.84891L16.8328 5.89219C16.9118 5.81644 16.9748 5.72571 17.0182 5.6253C17.0616 5.52488 17.0846 5.41681 17.0857 5.30742C17.0869 5.19802 17.0661 5.0895 17.0248 4.98821C16.9835 4.88692 16.9223 4.7949 16.845 4.71754C16.7676 4.64018 16.6756 4.57904 16.5743 4.53769C16.473 4.49635 16.3645 4.47564 16.2551 4.47677C16.1457 4.4779 16.0376 4.50085 15.9372 4.54428C15.8368 4.58771 15.7461 4.65075 15.6703 4.72969L14.7136 5.68594C13.8102 4.9852 12.7356 4.53913 11.6016 4.39406V3.04688C11.6016 2.82931 11.5151 2.62066 11.3613 2.46683C11.2075 2.31299 10.9988 2.22656 10.7812 2.22656C10.5637 2.22656 10.355 2.31299 10.2012 2.46683C10.0474 2.62066 9.96094 2.82931 9.96094 3.04688V4.39406C8.82686 4.53913 7.75231 4.9852 6.84891 5.68594L5.89219 4.72969C5.73697 4.58076 5.52956 4.49859 5.31446 4.50082C5.09936 4.50304 4.89369 4.58948 4.74159 4.74159C4.58948 4.89369 4.50304 5.09936 4.50082 5.31446C4.49859 5.52956 4.58076 5.73697 4.72969 5.89219L5.68641 6.84891C4.98532 7.75216 4.53907 8.82676 4.39406 9.96094H3.04688C2.82931 9.96094 2.62066 10.0474 2.46683 10.2012C2.31299 10.355 2.22656 10.5637 2.22656 10.7812C2.22656 10.9988 2.31299 11.2075 2.46683 11.3613C2.62066 11.5151 2.82931 11.6016 3.04688 11.6016ZM10.7812 5.97656C11.7315 5.97656 12.6605 6.25835 13.4506 6.7863C14.2407 7.31424 14.8565 8.06463 15.2202 8.94258C15.5839 9.82052 15.679 10.7866 15.4936 11.7186C15.3082 12.6506 14.8506 13.5067 14.1787 14.1787C13.5067 14.8506 12.6506 15.3082 11.7186 15.4936C10.7866 15.679 9.82052 15.5839 8.94258 15.2202C8.06463 14.8565 7.31424 14.2407 6.7863 13.4506C6.25835 12.6605 5.97656 11.7315 5.97656 10.7812C5.97793 9.50739 6.48457 8.28609 7.38533 7.38533C8.28609 6.48457 9.50739 5.97793 10.7812 5.97656Z" fill="white"/>
<path d="M6.08447 49.6875C5.86691 49.6875 5.65826 49.7739 5.50442 49.9278C5.35059 50.0816 5.26416 50.2903 5.26416 50.5078V53.4375C5.26416 53.6551 5.35059 53.8637 5.50442 54.0175C5.65826 54.1714 5.86691 54.2578 6.08447 54.2578C6.30203 54.2578 6.51068 54.1714 6.66452 54.0175C6.81836 53.8637 6.90479 53.6551 6.90479 53.4375V50.5078C6.90485 50.4001 6.88367 50.2934 6.84247 50.1938C6.80127 50.0943 6.74084 50.0038 6.66466 49.9276C6.58847 49.8514 6.49802 49.791 6.39847 49.7498C6.29891 49.7086 6.19221 49.6874 6.08447 49.6875Z" fill="white"/>
<path d="M13.5977 50.5079H12.7595L13.3773 48.7266C13.4471 48.5214 13.4328 48.297 13.3376 48.1023C13.2424 47.9076 13.074 47.7585 12.8693 47.6876C12.6645 47.6166 12.44 47.6295 12.2447 47.7236C12.0495 47.8176 11.8994 47.9851 11.8272 48.1894L10.832 51.0605C10.7891 51.1841 10.7764 51.3161 10.7949 51.4456C10.8134 51.5751 10.8626 51.6983 10.9385 51.8049C11.0143 51.9115 11.1146 51.9984 11.2308 52.0583C11.3471 52.1183 11.4761 52.1495 11.6069 52.1494H12.445L11.8272 53.9307C11.7919 54.0324 11.777 54.1402 11.7833 54.2477C11.7896 54.3552 11.8171 54.4604 11.8641 54.5573C11.9111 54.6542 11.9768 54.7409 12.0573 54.8124C12.1378 54.8839 12.2317 54.9389 12.3334 54.9741C12.4196 55.0049 12.5105 55.0208 12.602 55.021C12.7726 55.021 12.9389 54.9678 13.0778 54.869C13.2167 54.7701 13.3214 54.6304 13.3773 54.4693L14.3725 51.5982C14.4154 51.4746 14.4282 51.3426 14.4097 51.2131C14.3911 51.0836 14.3419 50.9604 14.2661 50.8538C14.1902 50.7472 14.09 50.6603 13.9737 50.6004C13.8574 50.5405 13.7285 50.5092 13.5977 50.5093V50.5079Z" fill="white"/>
</svg>
