<svg width="60" height="60" viewBox="0 0 60 60" fill="none" xmlns="http://www.w3.org/2000/svg">
<path d="M12.1875 49.6875H4.68749C4.50012 49.6875 4.31706 49.7436 4.16191 49.8487C4.00676 49.9537 3.88664 50.1029 3.81705 50.2768L1.94205 54.9643C1.88515 55.1066 1.86398 55.2606 1.88039 55.4129C1.8968 55.5652 1.95029 55.7112 2.03618 55.8381C2.12207 55.9649 2.23775 56.0688 2.37308 56.1406C2.50841 56.2124 2.65928 56.25 2.81249 56.25H6.56249V58.125H8.43749V56.25H10.3125C10.4999 56.25 10.6829 56.1939 10.8381 56.0888C10.9932 55.9838 11.1133 55.8346 11.1829 55.6607L13.0579 50.9732C13.1148 50.8309 13.136 50.6769 13.1196 50.5246C13.1032 50.3723 13.0497 50.2263 12.9638 50.0994C12.8779 49.9726 12.7622 49.8687 12.6269 49.7969C12.4916 49.7251 12.3407 49.6875 12.1875 49.6875ZM9.67774 54.375H4.19722L5.32223 51.5625H10.8028L9.67774 54.375Z" fill="#002524"/>
<path d="M24.375 49.6875H16.875C16.6876 49.6875 16.5046 49.7436 16.3494 49.8487C16.1943 49.9537 16.0741 50.1029 16.0046 50.2768L14.1296 54.9643C14.0727 55.1066 14.0515 55.2606 14.0679 55.4129C14.0843 55.5652 14.1378 55.7112 14.2237 55.8381C14.3096 55.9649 14.4252 56.0688 14.5606 56.1406C14.6959 56.2124 14.8468 56.25 15 56.25H18.75V58.125H20.625V56.25H22.5C22.6874 56.25 22.8704 56.1939 23.0256 56.0888C23.1807 55.9838 23.3008 55.8346 23.3704 55.6607L25.2454 50.9732C25.3023 50.8309 25.3235 50.6769 25.3071 50.5246C25.2907 50.3723 25.2372 50.2263 25.1513 50.0994C25.0654 49.9726 24.9497 49.8687 24.8144 49.7969C24.6791 49.7251 24.5282 49.6875 24.375 49.6875ZM21.8652 54.375H16.3847L17.5097 51.5625H22.9903L21.8652 54.375Z" fill="#002524"/>
<path d="M36.5625 49.6875H29.0625C28.8751 49.6875 28.6921 49.7436 28.5369 49.8487C28.3818 49.9537 28.2616 50.1029 28.1921 50.2768L26.3171 54.9643C26.2602 55.1066 26.239 55.2606 26.2554 55.4129C26.2718 55.5652 26.3253 55.7112 26.4112 55.8381C26.4971 55.9649 26.6127 56.0688 26.7481 56.1406C26.8834 56.2124 27.0343 56.25 27.1875 56.25H30.9375V58.125H32.8125V56.25H34.6875C34.8749 56.25 35.0579 56.1939 35.2131 56.0888C35.3682 55.9838 35.4883 55.8346 35.5579 55.6607L37.4329 50.9732C37.4898 50.8309 37.511 50.6769 37.4946 50.5246C37.4782 50.3723 37.4247 50.2263 37.3388 50.0994C37.2529 49.9726 37.1372 49.8687 37.0019 49.7969C36.8666 49.7251 36.7157 49.6875 36.5625 49.6875ZM34.0527 54.375H28.5722L29.6972 51.5625H35.1778L34.0527 54.375Z" fill="#002524"/>
<path d="M57.1875 35.625H55.3125V16.875C55.3125 16.6864 55.2556 16.5022 55.1493 16.3464C55.0429 16.1906 54.892 16.0705 54.7164 16.0019C54.5407 15.9332 54.3484 15.9191 54.1646 15.9614C53.9808 16.0037 53.8141 16.1005 53.6861 16.2391L44.0625 26.6647V16.875C44.0625 16.6864 44.0056 16.5022 43.8993 16.3464C43.7929 16.1906 43.642 16.0705 43.4664 16.0019C43.2907 15.9332 43.0984 15.9191 42.9146 15.9614C42.7308 16.0037 42.5641 16.1005 42.4361 16.2391L32.8125 26.6647V16.875C32.8125 16.6864 32.7556 16.5022 32.6493 16.3464C32.5429 16.1906 32.392 16.0705 32.2164 16.0019C32.0407 15.9332 31.8484 15.9191 31.6646 15.9614C31.4808 16.0037 31.3141 16.1005 31.1861 16.2391L19.9361 28.4266C19.7763 28.5998 19.6875 28.8268 19.6875 29.0625V30.9375H2.8125C2.68938 30.9375 2.56747 30.9617 2.45373 31.0088C2.33999 31.056 2.23664 31.125 2.14958 31.2121C2.06252 31.2991 1.99347 31.4025 1.94636 31.5162C1.89924 31.63 1.875 31.7519 1.875 31.875V47.8125H3.75V32.8125H37.5V35.625H21.5625C21.4394 35.625 21.3175 35.6492 21.2037 35.6963C21.09 35.7435 20.9866 35.8125 20.8996 35.8996C20.8125 35.9866 20.7435 36.09 20.6964 36.2037C20.6492 36.3175 20.625 36.4394 20.625 36.5625V47.8125H22.5V37.5H56.25V55.3125H54.375V41.25C54.375 41.1269 54.3508 41.005 54.3036 40.8912C54.2565 40.7775 54.1875 40.6741 54.1004 40.5871C54.0134 40.5 53.91 40.431 53.7963 40.3838C53.6825 40.3367 53.5606 40.3125 53.4375 40.3125H45.9375C45.8144 40.3125 45.6925 40.3367 45.5787 40.3838C45.465 40.431 45.3616 40.5 45.2746 40.5871C45.1875 40.6741 45.1185 40.7775 45.0714 40.8912C45.0242 41.005 45 41.1269 45 41.25V55.3125H38.4375V57.1875H57.1875C57.3106 57.1875 57.4325 57.1632 57.5463 57.1161C57.66 57.069 57.7634 57 57.8504 56.9129C57.9375 56.8259 58.0065 56.7225 58.0536 56.6088C58.1008 56.495 58.125 56.3731 58.125 56.25V36.5625C58.125 36.4394 58.1008 36.3175 58.0536 36.2037C58.0065 36.09 57.9375 35.9866 57.8504 35.8996C57.7634 35.8125 57.66 35.7435 57.5463 35.6963C57.4325 35.6492 57.3106 35.625 57.1875 35.625ZM53.4375 19.2728V35.625H44.0625V29.429L53.4375 19.2728ZM21.5625 29.429L30.9375 19.2728V30.9375H21.5625V29.429ZM38.4375 30.9375H32.8125V29.429L42.1875 19.2728V35.625H39.375V31.875C39.375 31.7519 39.3508 31.63 39.3036 31.5162C39.2565 31.4025 39.1875 31.2991 39.1004 31.2121C39.0134 31.125 38.91 31.056 38.7963 31.0088C38.6825 30.9617 38.5606 30.9375 38.4375 30.9375ZM46.875 42.1875H52.5V55.3125H46.875V42.1875Z" fill="#002524"/>
<path d="M4.87543 15C6.10578 15 6.75426 14.237 7.18336 13.7321C7.57331 13.2733 7.72752 13.125 8.06261 13.125C8.19602 13.1197 8.32783 13.1557 8.44 13.2281C8.45412 14.0615 8.65455 14.8812 9.0266 15.6272C8.83214 15.7421 8.65317 15.8814 8.49405 16.0417C7.62413 16.9117 7.70504 17.9097 7.75865 18.5702C7.80728 19.1703 7.80311 19.3843 7.56622 19.6212C7.32921 19.8582 7.11509 19.8622 6.51508 19.8137L6.36356 21.6825C6.53768 21.6966 6.7352 21.7127 6.94772 21.7127C7.54127 21.7127 8.25143 21.5876 8.89201 20.947C9.76199 20.077 9.68108 19.079 9.62747 18.4185C9.57884 17.8184 9.58301 17.6044 9.8199 17.3675C9.9111 17.2686 10.0308 17.2005 10.1625 17.1728C10.7617 17.7511 11.4817 18.1892 12.2706 18.4557C12.2145 18.6743 12.1866 18.8991 12.1874 19.1248C12.1874 20.3552 12.9504 21.0037 13.4553 21.4327C13.9141 21.8227 14.0624 21.9769 14.0624 22.312C14.0624 22.6471 13.9141 22.8014 13.4552 23.1914L14.6696 24.62C15.1744 24.1909 15.9374 23.5424 15.9374 22.312C15.9374 21.0816 15.1744 20.4332 14.6695 20.0041C14.2107 19.6141 14.0624 19.4599 14.0624 19.1248C14.057 18.9914 14.093 18.8596 14.1655 18.7474C14.9988 18.7333 15.8185 18.5329 16.5644 18.1609C16.6794 18.3553 16.8187 18.5343 16.979 18.6934C17.849 19.5632 18.8468 19.4823 19.5076 19.4288C20.1076 19.3801 20.3216 19.3843 20.5586 19.6212C20.7955 19.8582 20.7997 20.0722 20.7511 20.6723L22.6199 20.8239C22.6734 20.1634 22.7544 19.1654 21.8844 18.2954C21.0144 17.4254 20.0165 17.5063 19.3559 17.56C18.7556 17.6085 18.5418 17.6044 18.3048 17.3675C18.2059 17.2763 18.1379 17.1566 18.1102 17.025C18.6884 16.4258 19.1266 15.7058 19.3931 14.9168C19.6117 14.9729 19.8365 15.0009 20.0622 15C21.2925 15 21.941 14.237 22.3701 13.7321C22.7601 13.2733 22.9143 13.125 23.2494 13.125C23.5845 13.125 23.7388 13.2733 24.1287 13.7322L25.5574 12.5179C25.1283 12.013 24.4798 11.25 23.2494 11.25C22.019 11.25 21.3705 12.013 20.9414 12.5179C20.5515 12.9767 20.3973 13.125 20.0622 13.125C19.9288 13.1304 19.797 13.0944 19.6848 13.022C19.6707 12.1885 19.4702 11.3688 19.0982 10.6228C19.2926 10.5079 19.4716 10.3687 19.6308 10.2084C20.5007 9.33834 20.4198 8.3403 20.3661 7.67987C20.3175 7.07974 20.3217 6.86579 20.5586 6.62884C20.7955 6.39189 21.0094 6.38771 21.6097 6.43635L21.7612 4.56753C21.1009 4.51403 20.1027 4.43306 19.2328 5.30304C18.3628 6.17302 18.4437 7.17106 18.4973 7.8315C18.546 8.43169 18.5418 8.64563 18.3049 8.88258C18.2138 8.98152 18.094 9.04959 17.9624 9.0773C17.3632 8.49903 16.6432 8.06086 15.8542 7.79435C15.9103 7.57575 15.9382 7.3509 15.9374 7.12523C15.9374 5.89488 15.1744 5.24639 14.6695 4.8173C14.2107 4.42734 14.0624 4.27313 14.0624 3.93805C14.0624 3.60291 14.2107 3.44864 14.6696 3.05869L13.4552 1.63C12.9504 2.05916 12.1874 2.70764 12.1874 3.93805C12.1874 5.1684 12.9504 5.81688 13.4553 6.24598C13.9141 6.63594 14.0624 6.79015 14.0624 7.12523C14.0678 7.25865 14.0318 7.39046 13.9593 7.50263C13.126 7.51675 12.3063 7.71715 11.5604 8.08916C11.4454 7.89474 11.3061 7.71579 11.1458 7.55667C10.2757 6.68669 9.2778 6.76766 8.61724 6.82127C8.01717 6.86991 7.80323 6.86573 7.56622 6.62884C7.32927 6.39189 7.32509 6.17789 7.37373 5.5777L5.50491 5.42618C5.45135 6.08662 5.37038 7.08466 6.24042 7.95464C7.11029 8.8245 8.1081 8.74359 8.76888 8.69009C9.36924 8.6414 9.58301 8.64557 9.81996 8.88252C9.91886 8.97371 9.9869 9.09345 10.0146 9.22509C9.43638 9.82429 8.99822 10.5443 8.73173 11.3332C8.51313 11.2771 8.28828 11.2492 8.06261 11.25C6.83226 11.25 6.18377 12.013 5.75468 12.5179C5.36472 12.9767 5.21051 13.125 4.87543 13.125C4.54029 13.125 4.38602 12.9767 3.99606 12.5179L2.56738 13.7322C2.99654 14.237 3.64502 15 4.87543 15ZM17.8124 13.125C17.8124 13.8667 17.5925 14.5917 17.1804 15.2084C16.7684 15.8251 16.1827 16.3057 15.4975 16.5896C14.8122 16.8734 14.0582 16.9477 13.3308 16.803C12.6034 16.6583 11.9352 16.3011 11.4108 15.7767C10.8863 15.2522 10.5292 14.584 10.3845 13.8566C10.2398 13.1292 10.314 12.3752 10.5979 11.69C10.8817 11.0047 11.3623 10.4191 11.979 10.007C12.5957 9.59496 13.3207 9.37502 14.0624 9.37502C15.0566 9.37614 16.0098 9.77159 16.7128 10.4746C17.4158 11.1776 17.8113 12.1308 17.8124 13.125Z" fill="#002524"/>
<path d="M15.9375 43.125C16.0606 43.125 16.1825 43.1008 16.2963 43.0536C16.41 43.0065 16.5134 42.9375 16.6004 42.8504C16.6875 42.7634 16.7565 42.66 16.8036 42.5463C16.8508 42.4325 16.875 42.3106 16.875 42.1875V38.4375C16.875 38.3144 16.8508 38.1925 16.8036 38.0787C16.7565 37.965 16.6875 37.8616 16.6004 37.7746C16.5134 37.6875 16.41 37.6185 16.2963 37.5714C16.1825 37.5242 16.0606 37.5 15.9375 37.5H6.5625C6.43938 37.5 6.31747 37.5242 6.20373 37.5714C6.08999 37.6185 5.98664 37.6875 5.89958 37.7746C5.81252 37.8616 5.74347 37.965 5.69636 38.0787C5.64924 38.1925 5.625 38.3144 5.625 38.4375V42.1875C5.625 42.3106 5.64924 42.4325 5.69636 42.5463C5.74347 42.66 5.81252 42.7634 5.89958 42.8504C5.98664 42.9375 6.08999 43.0065 6.20373 43.0536C6.31747 43.1008 6.43938 43.125 6.5625 43.125H15.9375ZM7.5 39.375H15V41.25H7.5V39.375Z" fill="#002524"/>
<path d="M43.125 45.9375V41.25C43.125 41.1269 43.1008 41.005 43.0536 40.8912C43.0065 40.7775 42.9375 40.6741 42.8504 40.5871C42.7634 40.5 42.66 40.431 42.5463 40.3839C42.4325 40.3367 42.3106 40.3125 42.1875 40.3125H25.3125C25.1894 40.3125 25.0675 40.3367 24.9537 40.3839C24.84 40.431 24.7366 40.5 24.6496 40.5871C24.5625 40.6741 24.4935 40.7775 24.4464 40.8912C24.3992 41.005 24.375 41.1269 24.375 41.25V45.9375C24.375 46.0606 24.3992 46.1825 24.4464 46.2963C24.4935 46.41 24.5625 46.5134 24.6496 46.6004C24.7366 46.6875 24.84 46.7565 24.9537 46.8036C25.0675 46.8508 25.1894 46.875 25.3125 46.875H42.1875C42.3106 46.875 42.4325 46.8508 42.5463 46.8036C42.66 46.7565 42.7634 46.6875 42.8504 46.6004C42.9375 46.5134 43.0065 46.41 43.0536 46.2963C43.1008 46.1825 43.125 46.0606 43.125 45.9375ZM41.25 45H26.25V42.1875H41.25V45Z" fill="#002524"/>
</svg>
