<svg width="248" height="79" viewBox="0 0 248 79" fill="none" xmlns="http://www.w3.org/2000/svg">
<g clip-path="url(#clip0_656_3252)">
<g clip-path="url(#clip1_656_3252)">
<path fill-rule="evenodd" clip-rule="evenodd" d="M53.1965 18.8477C50.9488 18.8477 48.7932 19.7516 47.2039 21.3607L39.5347 29.125V32.679C39.5347 35.1898 40.6 37.4488 42.298 39.0178C40.6 40.5869 39.5347 42.8458 39.5347 45.3568V48.9108L47.2039 56.675C48.7932 58.2841 50.9488 59.1881 53.1965 59.1881C55.6766 59.1881 57.9079 58.1095 59.4578 56.3905C61.0076 58.1095 63.2388 59.1881 65.719 59.1881C67.9667 59.1881 70.1223 58.2841 71.7117 56.675L79.3809 48.9108V45.3568C79.3809 42.8458 78.3156 40.5869 76.6176 39.0178C78.3156 37.4488 79.3809 35.1898 79.3809 32.679V29.125L71.7117 21.3607C70.1223 19.7516 67.9667 18.8477 65.719 18.8477C63.2388 18.8477 61.0076 19.9262 59.4578 21.6453C57.9079 19.9262 55.6766 18.8477 53.1965 18.8477ZM65.1944 39.0178C65.0988 38.9296 65.0051 38.8389 64.9134 38.746L59.4578 33.2227L54.0022 38.746C53.9103 38.8389 53.8166 38.9296 53.7211 39.0178C53.8166 39.1061 53.9103 39.1968 54.0022 39.2897L59.4578 44.8129L64.9134 39.2897C65.0051 39.1968 65.0988 39.1061 65.1944 39.0178ZM61.6714 48.9108V50.608C61.6714 52.8712 63.4836 54.7059 65.719 54.7059C66.7925 54.7059 67.8219 54.2741 68.5811 53.5056L74.9536 47.054V45.3568C74.9536 43.0937 73.1413 41.2589 70.9059 41.2589C69.8325 41.2589 68.803 41.6907 68.044 42.4592L61.6714 48.9108ZM57.2441 48.9108L50.8716 42.4592C50.1125 41.6907 49.0831 41.2589 48.0096 41.2589C45.7742 41.2589 43.962 43.0937 43.962 45.3568V47.054L50.3344 53.5056C51.0935 54.2741 52.1231 54.7059 53.1965 54.7059C55.4318 54.7059 57.2441 52.8712 57.2441 50.608V48.9108ZM57.2441 27.4276V29.125L50.8716 35.5765C50.1125 36.345 49.0831 36.7767 48.0096 36.7767C45.7742 36.7767 43.962 34.9421 43.962 32.679V30.9816L50.3344 24.5301C51.0935 23.7617 52.1231 23.3299 53.1965 23.3299C55.4318 23.3299 57.2441 25.1645 57.2441 27.4276ZM68.044 35.5765L61.6714 29.125V27.4276C61.6714 25.1645 63.4836 23.3299 65.719 23.3299C66.7925 23.3299 67.8219 23.7617 68.5811 24.5301L74.9536 30.9816V32.679C74.9536 34.9421 73.1413 36.7767 70.9059 36.7767C69.8325 36.7767 68.803 36.345 68.044 35.5765Z" fill="#FF630B"/>
<path d="M93.5411 41.2306V53.6258H87.6675V32.1855H93.2653V35.9682H93.5135C93.9823 34.7212 94.7681 33.7349 95.8711 33.009C96.9741 32.2738 98.3116 31.9062 99.8833 31.9062C101.354 31.9062 102.636 32.232 103.73 32.8834C104.824 33.5348 105.674 34.4653 106.281 35.6751C106.887 36.8756 107.191 38.3086 107.191 39.9743V53.6258H101.317V41.0352C101.326 39.7231 100.996 38.6995 100.325 37.9643C99.6536 37.2198 98.7298 36.8476 97.5532 36.8476C96.7627 36.8476 96.0641 37.0198 95.4576 37.364C94.86 37.7083 94.3913 38.2109 94.0512 38.8716C93.7203 39.523 93.5503 40.3094 93.5411 41.2306Z" fill="#361807"/>
<path d="M120.246 54.0445C118.104 54.0445 116.252 53.584 114.689 52.6627C113.136 51.7321 111.936 50.4386 111.091 48.7821C110.245 47.1165 109.822 45.1855 109.822 42.9894C109.822 40.7747 110.245 38.839 111.091 37.1827C111.936 35.5169 113.136 34.2233 114.689 33.3021C116.252 32.3716 118.104 31.9062 120.246 31.9062C122.387 31.9062 124.235 32.3716 125.788 33.3021C127.351 34.2233 128.555 35.5169 129.401 37.1827C130.246 38.839 130.669 40.7747 130.669 42.9894C130.669 45.1855 130.246 47.1165 129.401 48.7821C128.555 50.4386 127.351 51.7321 125.788 52.6627C124.235 53.584 122.387 54.0445 120.246 54.0445ZM120.273 49.4383C121.248 49.4383 122.061 49.1589 122.714 48.6006C123.366 48.0331 123.858 47.2607 124.189 46.2836C124.529 45.3065 124.699 44.1944 124.699 42.9475C124.699 41.7006 124.529 40.5885 124.189 39.6115C123.858 38.6342 123.366 37.8619 122.714 37.2943C122.061 36.7266 121.248 36.4428 120.273 36.4428C119.29 36.4428 118.463 36.7266 117.792 37.2943C117.13 37.8619 116.629 38.6342 116.289 39.6115C115.958 40.5885 115.792 41.7006 115.792 42.9475C115.792 44.1944 115.958 45.3065 116.289 46.2836C116.629 47.2607 117.13 48.0331 117.792 48.6006C118.463 49.1589 119.29 49.4383 120.273 49.4383Z" fill="#361807"/>
<path d="M152.408 32.1836L145.005 53.6239H138.386L130.982 32.1836H137.187L141.585 47.524H141.806L146.19 32.1836H152.408Z" fill="#361807"/>
<path d="M159.744 54.0307C158.392 54.0307 157.187 53.7933 156.13 53.3187C155.073 52.8348 154.237 52.1229 153.621 51.183C153.015 50.2339 152.711 49.052 152.711 47.6375C152.711 46.4464 152.928 45.4461 153.359 44.6364C153.791 43.8269 154.38 43.1755 155.124 42.6822C155.869 42.1891 156.714 41.8168 157.662 41.5656C158.617 41.3142 159.618 41.1375 160.666 41.0352C161.898 40.9048 162.891 40.7839 163.644 40.6723C164.399 40.5512 164.946 40.3745 165.286 40.1418C165.626 39.9092 165.797 39.5648 165.797 39.1089V39.0251C165.797 38.1412 165.52 37.4571 164.968 36.9733C164.426 36.4893 163.654 36.2473 162.653 36.2473C161.596 36.2473 160.755 36.4846 160.129 36.9592C159.504 37.4246 159.09 38.0108 158.887 38.7181L153.456 38.2713C153.732 36.9686 154.273 35.8426 155.082 34.8934C155.892 33.935 156.935 33.1997 158.213 32.6879C159.5 32.1668 160.989 31.9062 162.68 31.9062C163.857 31.9062 164.982 32.0459 166.058 32.3251C167.142 32.6042 168.103 33.037 168.939 33.6231C169.785 34.2094 170.451 34.9632 170.938 35.8845C171.426 36.7964 171.669 37.8898 171.669 39.1648V53.6258H166.099V50.6526H165.934C165.594 51.3226 165.139 51.9136 164.569 52.4254C163.999 52.9279 163.314 53.3234 162.515 53.6118C161.714 53.891 160.791 54.0307 159.744 54.0307ZM161.425 49.9268C162.288 49.9268 163.052 49.7546 163.714 49.4103C164.375 49.0566 164.895 48.5821 165.273 47.9865C165.648 47.3909 165.837 46.7163 165.837 45.9625V43.6873C165.654 43.8083 165.401 43.9199 165.079 44.0223C164.766 44.1154 164.413 44.2037 164.018 44.2875C163.621 44.362 163.228 44.4317 162.831 44.4968C162.436 44.5527 162.078 44.6038 161.756 44.6504C161.066 44.7528 160.465 44.9156 159.95 45.139C159.435 45.3623 159.036 45.6647 158.75 46.0463C158.465 46.4184 158.323 46.8837 158.323 47.4421C158.323 48.2517 158.612 48.8706 159.192 49.2987C159.779 49.7174 160.525 49.9268 161.425 49.9268Z" fill="#361807"/>
<path d="M182.889 53.9751C181.281 53.9751 179.823 53.5564 178.518 52.7188C177.222 51.8722 176.193 50.6297 175.429 48.992C174.676 47.3448 174.299 45.3255 174.299 42.934C174.299 40.4772 174.689 38.4346 175.471 36.8062C176.252 35.1684 177.291 33.9446 178.587 33.1349C179.893 32.3162 181.321 31.9067 182.875 31.9067C184.06 31.9067 185.049 32.1114 185.84 32.5209C186.638 32.921 187.282 33.4235 187.769 34.0284C188.267 34.624 188.643 35.2102 188.899 35.7872H189.079V25.0391H194.94V53.6262H189.148V50.1924H188.899C188.624 50.7879 188.234 51.3789 187.728 51.965C187.232 52.5421 186.584 53.0213 185.784 53.4028C184.994 53.7844 184.028 53.9751 182.889 53.9751ZM184.75 49.2433C185.698 49.2433 186.497 48.9827 187.15 48.4615C187.811 47.9312 188.317 47.1913 188.666 46.2421C189.025 45.293 189.204 44.1809 189.204 42.906C189.204 41.6312 189.028 40.5237 188.68 39.5839C188.33 38.6439 187.825 37.9182 187.162 37.4064C186.501 36.8945 185.698 36.6387 184.75 36.6387C183.785 36.6387 182.971 36.9039 182.309 37.4342C181.648 37.9648 181.147 38.6998 180.807 39.6397C180.467 40.5796 180.297 41.6684 180.297 42.906C180.297 44.153 180.467 45.2557 180.807 46.2142C181.156 47.1634 181.657 47.9078 182.309 48.4476C182.971 48.9779 183.785 49.2433 184.75 49.2433Z" fill="#361807"/>
<path d="M208.275 54.0445C206.097 54.0445 204.222 53.5978 202.65 52.7045C201.088 51.8019 199.883 50.5269 199.038 48.8799C198.192 47.2234 197.77 45.2646 197.77 43.0034C197.77 40.7978 198.192 38.8623 199.038 37.1965C199.883 35.5308 201.074 34.2327 202.609 33.3021C204.153 32.3716 205.964 31.9062 208.041 31.9062C209.438 31.9062 210.739 32.1342 211.943 32.5903C213.156 33.037 214.213 33.7115 215.115 34.6143C216.024 35.5169 216.731 36.6521 217.237 38.0201C217.743 39.3787 217.995 40.97 217.995 42.794V44.4271H200.114V40.7421H212.467C212.467 39.8859 212.283 39.1274 211.916 38.4667C211.548 37.8061 211.037 37.2896 210.386 36.9174C209.742 36.5359 208.992 36.345 208.138 36.345C207.246 36.345 206.456 36.5544 205.766 36.9733C205.087 37.3828 204.553 37.9364 204.167 38.6342C203.781 39.3229 203.584 40.0906 203.575 40.9374V44.4411C203.575 45.5019 203.767 46.4184 204.153 47.1908C204.548 47.9633 205.105 48.5589 205.821 48.9776C206.539 49.3963 207.389 49.6058 208.372 49.6058C209.025 49.6058 209.622 49.5126 210.165 49.3265C210.707 49.1404 211.171 48.8612 211.558 48.489C211.943 48.1168 212.237 47.6609 212.439 47.1211L217.872 47.484C217.596 48.8054 217.03 49.9593 216.176 50.9458C215.33 51.9228 214.236 52.6858 212.895 53.235C211.561 53.7747 210.022 54.0445 208.275 54.0445Z" fill="#361807"/>
<path d="M225.216 32.1836L229.104 39.6793L233.088 32.1836H239.114L232.979 42.9037L239.28 53.6239H233.282L229.104 46.2119L224.995 53.6239H218.929L225.216 42.9037L219.149 32.1836H225.216Z" fill="#361807"/>
</g>
</g>
<defs>
<clipPath id="clip0_656_3252">
<rect width="201.45" height="47.4" fill="white" transform="translate(39.5 15.3008)"/>
</clipPath>
<clipPath id="clip1_656_3252">
<rect width="201.45" height="47.4" fill="white" transform="translate(39.5 15.3008)"/>
</clipPath>
</defs>
</svg>
