<svg width="248" height="79" viewBox="0 0 248 79" fill="none" xmlns="http://www.w3.org/2000/svg">
<g clip-path="url(#clip0_656_3254)">
<g clip-path="url(#clip1_656_3254)">
<mask id="mask0_656_3254" style="mask-type:luminance" maskUnits="userSpaceOnUse" x="54" y="15" width="173" height="48">
<path d="M226.601 15.4258H54.5391V62.5763H226.601V15.4258Z" fill="white"/>
</mask>
<g mask="url(#mask0_656_3254)">
<path d="M83.8846 17.7002L79.3428 16.4883L75.5153 30.7134L72.06 17.8709L67.5181 19.0828L71.2515 32.9582L61.9524 23.6977L58.6276 27.0088L68.8275 37.1666L56.1252 33.7771L54.9082 38.3001L68.7871 42.0036C68.6281 41.3211 68.5441 40.6099 68.5441 39.8791C68.5441 34.7069 72.7544 30.5139 77.9482 30.5139C83.1419 30.5139 87.3522 34.7069 87.3522 39.8791C87.3522 40.6052 87.2692 41.312 87.1123 41.9905L99.7256 45.3562L100.942 40.8332L87.0085 37.1149L99.7115 33.7252L98.4946 29.2023L84.5611 32.9202L93.8601 23.6597L90.5353 20.3486L80.4768 30.3654L83.8846 17.7002Z" fill="#7DB535"/>
<path d="M87.1002 42.043C86.7109 43.6824 85.8888 45.1553 84.7607 46.3353L93.8985 55.4355L97.2233 52.1243L87.1002 42.043Z" fill="#7FCB1E"/>
<path d="M84.6685 46.4297C83.5269 47.5909 82.0843 48.4574 80.4663 48.904L83.7915 61.262L88.3331 60.05L84.6685 46.4297Z" fill="#7FCB1E"/>
<path d="M80.2958 48.9527C79.5451 49.1449 78.7584 49.2471 77.9477 49.2471C77.079 49.2471 76.238 49.1297 75.4394 48.9102L72.1113 61.2794L76.6531 62.4914L80.2958 48.9527Z" fill="#7FCB1E"/>
<path d="M75.2794 48.8624C73.6862 48.3938 72.2692 47.5161 71.1509 46.3516L61.9907 55.4741L65.3156 58.7852L75.2794 48.8624Z" fill="#7FCB1E"/>
<path d="M71.0731 46.2704C69.9739 45.0985 69.1733 43.6453 68.7922 42.0312L56.1377 45.408L57.3547 49.931L71.0731 46.2704Z" fill="#7FCB1E"/>
<path d="M128.54 28.9453L120.473 52.2261H115.121L107.119 28.9453H111.629L117.805 46.7682L124.029 28.9453H128.54Z" fill="#322727"/>
<path d="M130.609 28.9453H135.313V52.2261H130.609V28.9453Z" fill="#322727"/>
<path d="M157.539 52.2261H152.641L148.841 43.2584H144.104V52.2261H139.4V28.9453H149.262C151.126 28.9453 152.651 29.2403 153.837 29.8308C155.023 30.4211 155.896 31.2422 156.456 32.2941C157.016 33.3352 157.297 34.5373 157.297 35.9005C157.297 37.1242 157.103 38.1599 156.715 39.0078C156.337 39.8451 155.836 40.5427 155.211 41.1009C154.597 41.659 153.923 42.1152 153.19 42.4694L157.539 52.2261ZM148.421 39.6358C149.682 39.6358 150.679 39.2977 151.412 38.6215C152.156 37.9453 152.527 37.0759 152.527 36.0133C152.527 34.9398 152.172 34.092 151.46 33.4694C150.749 32.8468 149.849 32.5356 148.761 32.5356H144.104V39.6358H148.421Z" fill="#322727"/>
<path d="M160.759 52.2261V28.9453H176.813L176.797 32.906H165.496V38.557H175.309V42.4372H165.464V48.2172L176.975 48.2332V52.2261H160.759Z" fill="#322727"/>
<path d="M189.718 52.5498C187.509 52.5498 185.595 52.072 183.978 51.1169C182.372 50.1508 181.127 48.7824 180.244 47.0113C179.372 45.2295 178.935 43.1043 178.935 40.6357C178.935 38.1563 179.377 36.0203 180.26 34.2278C181.155 32.4353 182.411 31.0561 184.027 30.09C185.643 29.1132 187.541 28.625 189.718 28.625C191.884 28.625 193.77 29.108 195.376 30.0739C196.982 31.0399 198.221 32.4191 199.094 34.2117C199.978 36.0041 200.42 38.1454 200.42 40.6357C200.42 43.0936 199.984 45.2134 199.11 46.9952C198.249 48.777 197.015 50.1508 195.408 51.1169C193.802 52.072 191.906 52.5498 189.718 52.5498ZM189.718 48.6858C190.86 48.6858 191.845 48.4174 192.676 47.8808C193.516 47.3334 194.163 46.4746 194.616 45.3047C195.069 44.1241 195.295 42.589 195.295 40.7C195.295 38.7572 195.063 37.1848 194.6 35.9827C194.147 34.7805 193.5 33.9004 192.66 33.3423C191.829 32.7734 190.85 32.489 189.718 32.489C188.587 32.489 187.6 32.7734 186.759 33.3423C185.919 33.9004 185.266 34.7859 184.803 35.9988C184.34 37.2009 184.108 38.7681 184.108 40.7C184.108 42.5999 184.34 44.1347 184.803 45.3047C185.266 46.4746 185.919 47.3334 186.759 47.8808C187.6 48.4174 188.587 48.6858 189.718 48.6858Z" fill="#322727"/>
<path d="M218.786 28.9453H223.506V52.2261H219.254L208.148 36.2065V52.2261H203.443V28.9453H208.116L218.786 44.3532V28.9453Z" fill="#322727"/>
</g>
</g>
</g>
<defs>
<clipPath id="clip0_656_3254">
<rect width="173.8" height="47.4" fill="white" transform="translate(53.5449 15.3008)"/>
</clipPath>
<clipPath id="clip1_656_3254">
<rect width="173.8" height="47.4" fill="white" transform="translate(53.5449 15.3008)"/>
</clipPath>
</defs>
</svg>
