<svg width="248" height="79" viewBox="0 0 248 79" fill="none" xmlns="http://www.w3.org/2000/svg">
<g clip-path="url(#clip0_656_3256)">
<g clip-path="url(#clip1_656_3256)">
<mask id="mask0_656_3256" style="mask-type:luminance" maskUnits="userSpaceOnUse" x="53" y="19" width="175" height="40">
<path d="M227.295 19.4805H53.5698V58.5158H227.295V19.4805Z" fill="white"/>
</mask>
<g mask="url(#mask0_656_3256)">
<mask id="mask1_656_3256" style="mask-type:luminance" maskUnits="userSpaceOnUse" x="53" y="19" width="175" height="40">
<path d="M227.292 19.4805H53.5674V58.5158H227.292V19.4805Z" fill="white"/>
</mask>
<g mask="url(#mask1_656_3256)">
<mask id="mask2_656_3256" style="mask-type:luminance" maskUnits="userSpaceOnUse" x="53" y="19" width="40" height="40">
<path d="M92.2076 19.4805H53.6021V58.5158H92.2076V19.4805Z" fill="white"/>
</mask>
<g mask="url(#mask2_656_3256)">
<path fill-rule="evenodd" clip-rule="evenodd" d="M78.2668 30.8839C76.6797 29.8117 74.8136 29.2393 72.9049 29.2393V19.4805C76.7225 19.4805 80.4545 20.6252 83.6288 22.7698C86.8032 24.9144 89.2772 27.9626 90.7382 31.529C92.1992 35.0954 92.5815 39.0197 91.8367 42.8058C91.0919 46.5919 89.2534 50.0696 86.5539 52.7992C83.8544 55.5288 80.4149 57.3877 76.6706 58.1408C72.9262 58.8938 69.045 58.5073 65.5179 57.0301C61.9908 55.5528 58.9762 53.0512 56.8552 49.8416C54.7341 46.6318 53.6021 42.8583 53.6021 38.9981H63.2534C63.2534 40.9282 63.8195 42.815 64.88 44.4198C65.9404 46.0247 67.4478 47.2755 69.2114 48.0141C70.975 48.7528 72.9155 48.946 74.7878 48.5693C76.6599 48.1929 78.3796 47.2635 79.7294 45.8987C81.0792 44.5338 81.9984 42.795 82.3707 40.902C82.7432 39.0089 82.552 37.0467 81.8215 35.2636C81.091 33.4804 79.854 31.9562 78.2668 30.8839Z" fill="#007DFC"/>
<path fill-rule="evenodd" clip-rule="evenodd" d="M63.2534 19.4805C63.2534 20.762 63.0038 22.031 62.5188 23.215C62.0338 24.399 61.3229 25.4748 60.4266 26.381C59.5304 27.2872 58.4665 28.0061 57.2955 28.4965C56.1245 28.9868 54.8695 29.2393 53.6021 29.2393V38.9981C56.1369 38.9981 58.647 38.4933 60.9889 37.5125C63.3308 36.5316 65.4588 35.0939 67.2511 33.2815C69.0436 31.4692 70.4654 29.3176 71.4355 26.9496C72.4056 24.5816 72.9049 22.0436 72.9049 19.4805H63.2534Z" fill="#007DFC"/>
</g>
<path d="M114.455 54.0473L110.78 50.0657C110.627 50.0877 110.462 50.0989 110.287 50.0989C110.112 50.121 109.948 50.132 109.795 50.132C107.454 50.132 105.431 49.7008 103.724 48.838C102.04 47.9532 100.738 46.6371 99.8195 44.8897C98.9226 43.1421 98.4741 40.9632 98.4741 38.3531C98.4741 35.6766 98.9335 33.4757 99.8523 31.7503C100.771 30.0028 102.095 28.7088 103.823 27.8682C105.551 27.0056 107.608 26.5742 109.992 26.5742C112.42 26.5742 114.488 27.0056 116.194 27.8682C117.922 28.7088 119.246 30.0028 120.165 31.7503C121.083 33.4757 121.543 35.6766 121.543 38.3531C121.543 41.1181 121.04 43.3854 120.033 45.155C119.027 46.9246 117.605 48.2296 115.768 49.0703L120.821 54.0473H114.455ZM109.992 46.0841C111.064 46.0841 112.005 45.9292 112.814 45.6196C113.624 45.3099 114.302 44.8453 114.849 44.226C115.396 43.6066 115.811 42.8545 116.096 41.9698C116.38 41.0628 116.522 40.0342 116.522 38.884V37.8554C116.522 36.6831 116.38 35.6434 116.096 34.7365C115.811 33.8295 115.396 33.0775 114.849 32.4803C114.302 31.8609 113.624 31.3963 112.814 31.0867C112.005 30.777 111.064 30.6222 109.992 30.6222C108.942 30.6222 108.012 30.777 107.203 31.0867C106.393 31.3963 105.715 31.8609 105.168 32.4803C104.621 33.0775 104.206 33.8295 103.921 34.7365C103.659 35.6434 103.528 36.6831 103.528 37.8554V38.884C103.528 40.0342 103.659 41.0628 103.921 41.9698C104.206 42.8545 104.621 43.6066 105.168 44.226C105.715 44.8453 106.393 45.3099 107.203 45.6196C108.012 45.9292 108.942 46.0841 109.992 46.0841Z" fill="#1F3449"/>
<path d="M130.697 50.1321C128.947 50.1321 127.558 49.6455 126.53 48.6722C125.501 47.6989 124.987 46.1283 124.987 43.9606V32.2812H129.549V43.1975C129.549 43.7726 129.614 44.2593 129.745 44.6574C129.877 45.0335 130.063 45.3431 130.303 45.5865C130.566 45.8298 130.883 46.0067 131.255 46.1173C131.627 46.2279 132.043 46.2832 132.502 46.2832C133.18 46.2832 133.793 46.1173 134.34 45.7855C134.886 45.4537 135.313 45.0003 135.619 44.4252C135.926 43.8279 136.079 43.1643 136.079 42.4344V32.2812H140.64V49.734H136.899L136.571 47.345H136.341C135.926 47.8979 135.433 48.3846 134.865 48.8049C134.318 49.2251 133.694 49.5459 132.994 49.7671C132.294 50.0105 131.528 50.1321 130.697 50.1321Z" fill="#1F3449"/>
<path d="M144.828 29.7238V25.7422H149.389V29.7238H144.828ZM144.828 49.7314V32.2787H149.389V49.7314H144.828Z" fill="#1F3449"/>
<path d="M151.772 49.734L158.04 40.6758L152.231 32.2812H157.711L160.993 37.5237H161.157L164.471 32.2812H169.623L163.782 40.6426L169.952 49.734H164.57L160.829 43.7947H160.665L156.924 49.734H151.772Z" fill="#1F3449"/>
<path d="M176.05 50.1318C175.482 50.1318 174.869 50.0654 174.213 49.9327C173.579 49.8 172.977 49.5677 172.408 49.2359C171.839 48.882 171.368 48.3843 170.997 47.7428C170.647 47.0792 170.472 46.2386 170.472 45.2212C170.472 44.0044 170.734 42.9981 171.259 42.2017C171.784 41.4055 172.529 40.786 173.49 40.3437C174.475 39.8791 175.646 39.5584 177.002 39.3814C178.358 39.2044 179.857 39.116 181.497 39.116V37.822C181.497 37.3131 181.41 36.8707 181.235 36.4948C181.082 36.1187 180.798 35.82 180.381 35.5989C179.988 35.3776 179.43 35.2671 178.708 35.2671C177.987 35.2671 177.395 35.3556 176.936 35.5326C176.499 35.7094 176.182 35.9418 175.985 36.2293C175.81 36.4948 175.722 36.7934 175.722 37.1252V37.5234H171.293C171.27 37.4127 171.259 37.3131 171.259 37.2247C171.259 37.1141 171.259 36.9813 171.259 36.8266C171.259 35.809 171.565 34.9353 172.178 34.2054C172.791 33.4533 173.655 32.8782 174.771 32.48C175.886 32.0818 177.189 31.8828 178.675 31.8828C180.272 31.8828 181.606 32.0929 182.679 32.5132C183.772 32.9334 184.604 33.5527 185.173 34.3713C185.764 35.1897 186.059 36.2182 186.059 37.457V45.3871C186.059 45.7852 186.168 46.0838 186.386 46.2829C186.628 46.4598 186.89 46.5484 187.175 46.5484H188.257V49.5677C188.038 49.6783 187.699 49.7889 187.24 49.8995C186.781 50.0323 186.223 50.0986 185.567 50.0986C184.932 50.0986 184.363 49.999 183.861 49.8C183.378 49.623 182.975 49.3687 182.646 49.0369C182.318 48.6829 182.089 48.2625 181.957 47.776H181.728C181.356 48.2405 180.896 48.6496 180.349 49.0036C179.824 49.3575 179.201 49.6341 178.478 49.8331C177.779 50.0323 176.97 50.1318 176.05 50.1318ZM177.592 46.6479C178.206 46.6479 178.752 46.5594 179.233 46.3825C179.715 46.1833 180.119 45.9289 180.448 45.6193C180.776 45.2875 181.027 44.8894 181.203 44.4248C181.4 43.9603 181.497 43.4626 181.497 42.9317V41.9695C180.272 41.9695 179.179 42.0579 178.216 42.235C177.254 42.3897 176.487 42.6663 175.919 43.0645C175.371 43.4626 175.099 44.0155 175.099 44.7235C175.099 45.1216 175.198 45.4644 175.393 45.752C175.591 46.0395 175.876 46.2607 176.247 46.4156C176.619 46.5704 177.068 46.6479 177.592 46.6479Z" fill="#1F3449"/>
<path d="M190.525 49.7336V32.2809H194.299L194.659 34.6699H194.889C195.283 34.0947 195.753 33.597 196.3 33.1768C196.869 32.7565 197.503 32.4357 198.203 32.2146C198.904 31.9933 199.669 31.8828 200.501 31.8828C201.637 31.8828 202.633 32.0929 203.487 32.5132C204.341 32.9334 204.996 33.597 205.456 34.504C205.936 35.4109 206.178 36.5943 206.178 38.0542V49.7336H201.616V38.7842C201.616 38.2312 201.55 37.7667 201.419 37.3906C201.288 36.9925 201.091 36.6717 200.829 36.4285C200.588 36.163 200.282 35.9749 199.91 35.8644C199.537 35.7537 199.123 35.6985 198.663 35.6985C197.984 35.6985 197.372 35.8644 196.826 36.1962C196.278 36.528 195.851 36.9813 195.545 37.5565C195.239 38.1316 195.086 38.7952 195.086 39.5473V49.7336H190.525Z" fill="#1F3449"/>
<path d="M214.826 50.1318C214.258 50.1318 213.644 50.0654 212.988 49.9327C212.354 49.8 211.751 49.5677 211.183 49.2359C210.615 48.882 210.144 48.3843 209.772 47.7428C209.422 47.0792 209.248 46.2386 209.248 45.2212C209.248 44.0044 209.51 42.9981 210.035 42.2017C210.56 41.4055 211.304 40.786 212.266 40.3437C213.251 39.8791 214.421 39.5584 215.777 39.3814C217.134 39.2044 218.632 39.116 220.273 39.116V37.822C220.273 37.3131 220.185 36.8707 220.011 36.4948C219.857 36.1187 219.574 35.82 219.157 35.5989C218.763 35.3776 218.205 35.2671 217.484 35.2671C216.761 35.2671 216.171 35.3556 215.712 35.5326C215.275 35.7094 214.957 35.9418 214.76 36.2293C214.586 36.4948 214.498 36.7934 214.498 37.1252V37.5234H210.067C210.045 37.4127 210.035 37.3131 210.035 37.2247C210.035 37.1141 210.035 36.9813 210.035 36.8266C210.035 35.809 210.341 34.9353 210.953 34.2054C211.567 33.4533 212.43 32.8782 213.545 32.48C214.661 32.0818 215.963 31.8828 217.451 31.8828C219.048 31.8828 220.382 32.0929 221.455 32.5132C222.548 32.9334 223.38 33.5527 223.948 34.3713C224.538 35.1897 224.834 36.2182 224.834 37.457V45.3871C224.834 45.7852 224.943 46.0838 225.162 46.2829C225.402 46.4598 225.666 46.5484 225.95 46.5484H227.033V49.5677C226.814 49.6783 226.475 49.7889 226.016 49.8995C225.557 50.0323 224.999 50.0986 224.342 50.0986C223.708 50.0986 223.139 49.999 222.635 49.8C222.154 49.623 221.749 49.3687 221.421 49.0369C221.093 48.6829 220.863 48.2625 220.732 47.776H220.503C220.131 48.2405 219.672 48.6496 219.125 49.0036C218.599 49.3575 217.976 49.6341 217.254 49.8331C216.554 50.0323 215.744 50.1318 214.826 50.1318ZM216.368 46.6479C216.981 46.6479 217.527 46.5594 218.009 46.3825C218.49 46.1833 218.895 45.9289 219.223 45.6193C219.55 45.2875 219.803 44.8894 219.977 44.4248C220.174 43.9603 220.273 43.4626 220.273 42.9317V41.9695C219.048 41.9695 217.954 42.0579 216.991 42.235C216.03 42.3897 215.263 42.6663 214.695 43.0645C214.147 43.4626 213.874 44.0155 213.874 44.7235C213.874 45.1216 213.972 45.4644 214.169 45.752C214.367 46.0395 214.651 46.2607 215.023 46.4156C215.394 46.5704 215.843 46.6479 216.368 46.6479Z" fill="#1F3449"/>
</g>
</g>
</g>
</g>
<defs>
<clipPath id="clip0_656_3256">
<rect width="175.117" height="39.5" fill="white" transform="translate(53.1055 19.25)"/>
</clipPath>
<clipPath id="clip1_656_3256">
<rect width="175.117" height="39.5" fill="white" transform="translate(53.1055 19.25)"/>
</clipPath>
</defs>
</svg>
