<svg width="248" height="79" viewBox="0 0 248 79" fill="none" xmlns="http://www.w3.org/2000/svg">
<g clip-path="url(#clip0_656_3258)">
<mask id="mask0_656_3258" style="mask-type:luminance" maskUnits="userSpaceOnUse" x="50" y="17" width="180" height="44">
<path d="M229.497 17.207H50.2622V60.7956H229.497V17.207Z" fill="white"/>
</mask>
<g mask="url(#mask0_656_3258)">
<path fill-rule="evenodd" clip-rule="evenodd" d="M71.8148 59.877C83.3251 59.877 92.656 50.3573 92.656 38.6143C92.656 26.8712 83.3251 17.3516 71.8148 17.3516C60.3045 17.3516 50.9736 26.8712 50.9736 38.6143C50.9736 50.3573 60.3045 59.877 71.8148 59.877ZM78.3166 27.2566C78.633 26.1097 77.5421 25.4315 76.5458 26.1557L62.6375 36.2643C61.557 37.0496 61.7269 38.6143 62.8929 38.6143H66.5552V38.5853H73.6931L67.8771 40.679L65.3131 49.972C64.9967 51.1188 66.0875 51.7971 67.0839 51.0729L80.9922 40.9643C82.0727 40.179 81.9026 38.6143 80.7368 38.6143H75.1828L78.3166 27.2566Z" fill="#3BC56A"/>
<path d="M101.215 50.1644V26.9688H106.022V46.1211H115.769V50.1644H101.215Z" fill="#192129"/>
<path d="M128.755 42.7551V32.7656H133.485V50.1623H128.944V47.0024H128.766C128.382 48.0216 127.741 48.841 126.846 49.4601C125.958 50.0793 124.874 50.3888 123.593 50.3888C122.453 50.3888 121.45 50.1246 120.585 49.5961C119.719 49.0675 119.042 48.3162 118.553 47.3421C118.072 46.3681 117.828 45.2015 117.82 43.8424V32.7656H122.55V42.9816C122.557 44.0085 122.827 44.8202 123.36 45.4167C123.893 46.0133 124.607 46.3115 125.503 46.3115C126.072 46.3115 126.605 46.1794 127.101 45.9151C127.597 45.6432 127.997 45.243 128.3 44.7144C128.611 44.186 128.763 43.5328 128.755 42.7551Z" fill="#192129"/>
<path d="M136.227 50.1623V32.7656H140.734V35.835H140.934C141.289 34.8157 141.881 34.0114 142.71 33.4225C143.539 32.8335 144.531 32.5391 145.685 32.5391C146.854 32.5391 147.85 32.8374 148.671 33.4338C149.493 34.0227 150.04 34.8232 150.314 35.835H150.492C150.84 34.8383 151.469 34.0417 152.379 33.4451C153.297 32.8411 154.381 32.5391 155.632 32.5391C157.223 32.5391 158.514 33.0562 159.506 34.0907C160.506 35.1175 161.005 36.5749 161.005 38.4626V50.1623H156.287V39.4139C156.287 38.4474 156.035 37.7226 155.532 37.2393C155.029 36.7561 154.4 36.5145 153.645 36.5145C152.786 36.5145 152.116 36.7938 151.635 37.3525C151.154 37.9039 150.914 38.6325 150.914 39.5384V50.1623H146.329V39.312C146.329 38.4587 146.088 37.7792 145.607 37.2733C145.134 36.7674 144.508 36.5145 143.731 36.5145C143.206 36.5145 142.732 36.6504 142.31 36.9222C141.896 37.1865 141.566 37.5602 141.322 38.0435C141.078 38.5192 140.956 39.0779 140.956 39.7198V50.1623H136.227Z" fill="#192129"/>
<path d="M171.471 50.5022C169.716 50.5022 168.206 50.1397 166.941 49.4148C165.684 48.6824 164.713 47.648 164.033 46.3115C163.351 44.9675 163.011 43.378 163.011 41.5433C163.011 39.7537 163.351 38.1832 164.033 36.8316C164.713 35.4801 165.672 34.4267 166.907 33.6717C168.15 32.9165 169.608 32.5391 171.281 32.5391C172.406 32.5391 173.454 32.724 174.422 33.0939C175.4 33.4564 176.252 34.0039 176.977 34.7363C177.71 35.4687 178.279 36.3899 178.686 37.4998C179.093 38.6022 179.296 39.8934 179.296 41.3734V42.6985H164.898V39.7084H174.845C174.845 39.0137 174.697 38.3984 174.401 37.8623C174.105 37.3263 173.694 36.9071 173.168 36.6051C172.651 36.2955 172.046 36.1408 171.359 36.1408C170.641 36.1408 170.005 36.3107 169.45 36.6504C168.902 36.9826 168.472 37.4319 168.162 37.9982C167.852 38.5569 167.692 39.18 167.685 39.867V42.7098C167.685 43.5705 167.84 44.3143 168.15 44.9411C168.47 45.5678 168.917 46.0509 169.494 46.3907C170.071 46.7306 170.756 46.9004 171.548 46.9004C172.073 46.9004 172.554 46.8249 172.991 46.6739C173.428 46.5229 173.802 46.2964 174.112 45.9944C174.422 45.6923 174.66 45.3224 174.823 44.8844L179.196 45.1788C178.975 46.2511 178.52 47.1873 177.831 47.9878C177.151 48.7805 176.27 49.3997 175.189 49.8451C174.117 50.2832 172.876 50.5022 171.471 50.5022Z" fill="#192129"/>
<path d="M195.529 37.7263L191.198 37.9982C191.125 37.6206 190.965 37.2808 190.721 36.9789C190.478 36.6693 190.156 36.4239 189.755 36.2427C189.363 36.0538 188.893 35.9595 188.345 35.9595C187.614 35.9595 186.995 36.118 186.492 36.4352C185.989 36.7448 185.737 37.16 185.737 37.6811C185.737 38.0964 185.899 38.4474 186.224 38.7343C186.551 39.0213 187.109 39.2516 187.902 39.4252L190.988 40.0595C192.646 40.4069 193.882 40.9657 194.696 41.7358C195.51 42.5059 195.917 43.5177 195.917 44.7712C195.917 45.9112 195.588 46.9118 194.929 47.7726C194.278 48.6333 193.382 49.3054 192.241 49.7886C191.11 50.2643 189.803 50.5022 188.324 50.5022C186.067 50.5022 184.268 50.0226 182.928 49.0636C181.597 48.0972 180.815 46.7835 180.585 45.1223L185.238 44.8731C185.378 45.5754 185.719 46.1115 186.258 46.4814C186.799 46.8439 187.491 47.025 188.334 47.025C189.163 47.025 189.83 46.8626 190.333 46.538C190.843 46.2057 191.103 45.7793 191.11 45.2582C191.103 44.8203 190.921 44.4616 190.566 44.1822C190.211 43.8952 189.663 43.6763 188.923 43.5253L185.969 42.925C184.305 42.5853 183.066 41.9963 182.25 41.1582C181.444 40.32 181.04 39.2516 181.04 37.9529C181.04 36.8354 181.337 35.8726 181.929 35.0647C182.528 34.2568 183.368 33.6338 184.449 33.196C185.537 32.7581 186.809 32.5391 188.268 32.5391C190.422 32.5391 192.117 33.0035 193.352 33.9321C194.596 34.8609 195.321 36.1256 195.529 37.7263Z" fill="#192129"/>
<path d="M212.041 37.7263L207.712 37.9982C207.637 37.6206 207.478 37.2808 207.234 36.9789C206.989 36.6693 206.668 36.4239 206.268 36.2427C205.875 36.0538 205.405 35.9595 204.858 35.9595C204.126 35.9595 203.508 36.118 203.005 36.4352C202.502 36.7448 202.249 37.16 202.249 37.6811C202.249 38.0964 202.413 38.4474 202.738 38.7343C203.063 39.0213 203.623 39.2516 204.415 39.4252L207.499 40.0595C209.157 40.4069 210.394 40.9657 211.208 41.7358C212.023 42.5059 212.428 43.5177 212.428 44.7712C212.428 45.9112 212.1 46.9118 211.441 47.7726C210.79 48.6333 209.895 49.3054 208.754 49.7886C207.622 50.2643 206.316 50.5022 204.836 50.5022C202.579 50.5022 200.779 50.0226 199.441 49.0636C198.109 48.0972 197.328 46.7835 197.098 45.1223L201.75 44.8731C201.89 45.5754 202.232 46.1115 202.772 46.4814C203.31 46.8439 204.004 47.025 204.847 47.025C205.676 47.025 206.342 46.8626 206.846 46.538C207.356 46.2057 207.614 45.7793 207.622 45.2582C207.614 44.8203 207.433 44.4616 207.079 44.1822C206.724 43.8952 206.176 43.6763 205.436 43.5253L202.482 42.925C200.817 42.5853 199.578 41.9963 198.763 41.1582C197.956 40.32 197.553 39.2516 197.553 37.9529C197.553 36.8354 197.85 35.8726 198.441 35.0647C199.041 34.2568 199.882 33.6338 200.961 33.196C202.05 32.7581 203.322 32.5391 204.78 32.5391C206.934 32.5391 208.629 33.0035 209.865 33.9321C211.108 34.8609 211.834 36.1256 212.041 37.7263Z" fill="#192129"/>
<path d="M219.228 50.4909C218.14 50.4909 217.171 50.2984 216.319 49.9131C215.468 49.5205 214.795 48.9429 214.299 48.1803C213.811 47.4101 213.566 46.4512 213.566 45.3035C213.566 44.337 213.74 43.5253 214.088 42.8684C214.436 42.2115 214.91 41.683 215.509 41.2828C216.109 40.8825 216.789 40.5805 217.552 40.3766C218.322 40.1727 219.128 40.0294 219.972 39.9462C220.964 39.8405 221.763 39.7424 222.37 39.6518C222.977 39.5536 223.417 39.4102 223.691 39.2213C223.965 39.0327 224.102 38.7533 224.102 38.3834V38.3154C224.102 37.5979 223.879 37.0431 223.436 36.6504C222.999 36.2578 222.376 36.0614 221.57 36.0614C220.72 36.0614 220.043 36.254 219.54 36.6391C219.037 37.0167 218.702 37.4923 218.54 38.0662L214.165 37.7037C214.389 36.6466 214.826 35.733 215.476 34.9627C216.127 34.1851 216.967 33.5886 217.997 33.1733C219.032 32.7505 220.231 32.5391 221.593 32.5391C222.541 32.5391 223.447 32.6524 224.314 32.8788C225.187 33.1054 225.96 33.4564 226.633 33.9321C227.315 34.4078 227.851 35.0194 228.243 35.767C228.635 36.5069 228.831 37.3941 228.831 38.4286V50.1623H224.347V47.7498H224.214C223.939 48.2935 223.573 48.773 223.114 49.1883C222.656 49.5961 222.104 49.9169 221.46 50.1511C220.816 50.3775 220.072 50.4909 219.228 50.4909ZM220.583 47.161C221.279 47.161 221.893 47.0213 222.426 46.7419C222.959 46.4549 223.376 46.0699 223.679 45.5865C223.984 45.1034 224.135 44.556 224.135 43.9443V42.0982C223.987 42.1963 223.784 42.287 223.524 42.3701C223.273 42.4456 222.988 42.5173 222.669 42.5853C222.352 42.6456 222.033 42.7023 221.716 42.7552C221.396 42.8004 221.108 42.842 220.85 42.8797C220.293 42.9627 219.81 43.0949 219.395 43.2762C218.98 43.4573 218.658 43.7027 218.429 44.0123C218.199 44.3143 218.085 44.6918 218.085 45.145C218.085 45.8019 218.318 46.304 218.784 46.6513C219.258 46.991 219.857 47.161 220.583 47.161Z" fill="#192129"/>
</g>
</g>
<defs>
<clipPath id="clip0_656_3258">
<rect width="180.383" height="44.7667" fill="white" transform="translate(50.0332 16.6172)"/>
</clipPath>
</defs>
</svg>
