<svg width="248" height="79" viewBox="0 0 248 79" fill="none" xmlns="http://www.w3.org/2000/svg">
<g clip-path="url(#clip0_656_3260)">
<mask id="mask0_656_3260" style="mask-type:luminance" maskUnits="userSpaceOnUse" x="51" y="17" width="177" height="44">
<path d="M227.638 17.9336H51.167V60.0669H227.638V17.9336Z" fill="white"/>
</mask>
<g mask="url(#mask0_656_3260)">
<path d="M81.1761 36.5221C80.6304 37.1037 80.2128 37.8053 79.9526 38.5771C79.6925 39.3492 79.596 40.1724 79.6705 40.9884L79.6445 40.961C79.721 41.9215 79.5989 42.8879 79.2862 43.7931C78.9738 44.6983 78.4785 45.5202 77.8353 46.2018C77.1918 46.8833 76.4158 47.408 75.5614 47.7389C74.7068 48.0699 73.7945 48.1996 72.8878 48.1185L72.9138 48.1459C71.8293 48.0391 70.7401 48.289 69.7946 48.8618C68.8492 49.4346 68.0936 50.3026 67.6308 51.3471C67.168 52.3916 67.0203 53.5616 67.2084 54.6982C67.3965 55.8347 67.9108 56.8821 68.6813 57.6975C69.4519 58.5131 70.4409 59.0568 71.5139 59.255C72.5871 59.4533 73.6915 59.2959 74.6771 58.8047C75.6625 58.3135 76.4812 57.5123 77.0211 56.5103C77.561 55.508 77.796 54.3541 77.6941 53.2053L77.7215 53.2327C77.6449 52.2725 77.767 51.3059 78.0797 50.4004C78.3921 49.4953 78.8873 48.6733 79.5307 47.9918C80.174 47.3103 80.95 46.7856 81.8045 46.4548C82.6591 46.1238 83.5714 45.9942 84.478 46.0752L84.4507 46.0478C85.3366 46.1322 86.2283 45.9783 87.0431 45.6002C87.8578 45.2226 88.5695 44.6328 89.1118 43.8862C89.6543 43.1394 90.0101 42.2596 90.1458 41.3285C90.2819 40.3974 90.1939 39.445 89.8898 38.5594C89.5858 37.6739 89.0756 36.884 88.4068 36.263C87.7379 35.6419 86.932 35.2098 86.0633 35.0066C85.1948 34.8036 84.2917 34.8358 83.4381 35.1008C82.5847 35.3657 81.8081 35.8545 81.1803 36.5221H81.1761Z" fill="#E31587"/>
<path d="M70.5568 44.5539L70.5294 44.5265C71.2998 44.6086 72.0781 44.5083 72.8077 44.233C73.5371 43.9577 74.1999 43.5141 74.7477 42.9342C75.2954 42.3542 75.7149 41.6527 75.9753 40.8798C76.2358 40.1074 76.331 39.2833 76.254 38.4668L76.2814 38.4942C76.2046 37.5337 76.327 36.5674 76.6393 35.6619C76.952 34.7568 77.4472 33.9348 78.0906 33.2533C78.7339 32.5718 79.5099 32.0471 80.3644 31.7162C81.2188 31.3851 82.1313 31.2557 83.0379 31.3366L83.0105 31.3093C84.0952 31.4172 85.1847 31.168 86.1306 30.5957C87.0768 30.0236 87.8329 29.1562 88.2965 28.1118C88.7599 27.0675 88.9081 25.8972 88.7208 24.7604C88.5332 23.6236 88.0194 22.5758 87.249 21.7598C86.4788 20.9438 85.4896 20.3994 84.4166 20.2009C83.3434 20.0023 82.2387 20.1592 81.253 20.6502C80.2671 21.1412 79.4483 21.9425 78.9081 22.9446C78.3678 23.9467 78.1326 25.1009 78.2346 26.2499L78.2087 26.2209C78.2853 27.1813 78.1633 28.1481 77.8509 29.0534C77.5387 29.9587 77.0434 30.7809 76.4 31.4625C75.7567 32.144 74.9803 32.6686 74.1259 32.9995C73.2711 33.3303 72.3588 33.4598 71.4521 33.3784L71.478 33.4074C70.7073 33.3252 69.9292 33.4255 69.1996 33.7009C68.4702 33.976 67.8074 34.4198 67.2596 34.9995C66.7116 35.5795 66.2924 36.2811 66.032 37.0539C65.7715 37.8265 65.6763 38.6506 65.7534 39.4671L65.7275 39.4395C65.8038 40.4001 65.6813 41.3664 65.3688 42.2714C65.0561 43.1764 64.561 43.9986 63.9176 44.6799C63.2743 45.3614 62.4984 45.8859 61.6441 46.2172C60.7897 46.5482 59.8774 46.6779 58.9708 46.5971L58.9967 46.6246C57.9121 46.5165 56.8226 46.7657 55.8765 47.3381C54.9306 47.9102 54.1742 48.7776 53.7107 49.822C53.2472 50.8664 53.099 52.0368 53.2865 53.1734C53.474 54.3102 53.9879 55.358 54.7582 56.1739C55.5284 56.9902 56.5176 57.5345 57.5907 57.7329C58.6638 57.9313 59.7686 57.7747 60.7544 57.2837C61.7403 56.7927 62.559 55.9915 63.0992 54.9892C63.6395 53.9871 63.8745 52.8329 63.7727 51.6839L63.8001 51.7114C63.7234 50.7509 63.8458 49.7846 64.1584 48.8791C64.4707 47.974 64.966 47.1521 65.6093 46.4704C66.2528 45.789 67.0288 45.2643 67.8831 44.9335C68.7376 44.6025 69.65 44.4729 70.5568 44.5539Z" fill="#FD49AC"/>
<path d="M60.9108 41.4925C61.4563 40.9113 61.874 40.2095 62.134 39.4376C62.394 38.6655 62.4901 37.842 62.4149 37.0262L62.4422 37.0537C62.3657 36.0931 62.488 35.1263 62.8007 34.2208C63.1133 33.3153 63.6088 32.4932 64.2525 31.8116C64.8963 31.1301 65.6725 30.6056 66.5273 30.2747C67.3822 29.9439 68.295 29.8146 69.2018 29.8962L69.1744 29.8688C70.2585 29.9765 71.3478 29.7272 72.2935 29.1549C73.239 28.5828 73.9949 27.7156 74.4581 26.6716C74.9214 25.6277 75.0693 24.4577 74.882 23.3214C74.6945 22.185 74.1806 21.1376 73.4106 20.3219C72.6408 19.5062 71.6519 18.962 70.5791 18.7634C69.5065 18.5648 68.402 18.7216 67.4167 19.2123C66.431 19.703 65.6125 20.5038 65.0723 21.5055C64.5322 22.5071 64.2969 23.6609 64.3984 24.8094L64.3725 24.782C64.4491 25.7424 64.3268 26.709 64.0143 27.6142C63.7017 28.5194 63.2066 29.3415 62.5634 30.023C61.9199 30.7046 61.1439 31.2291 60.2894 31.56C59.4349 31.8911 58.5225 32.0207 57.6159 31.9394L57.6418 31.9669C56.756 31.8828 55.8644 32.037 55.0497 32.415C54.235 32.793 53.5236 33.3827 52.9813 34.1297C52.4391 34.8762 52.0836 35.756 51.9477 36.6872C51.8119 37.6185 51.9001 38.5708 52.2042 39.4561C52.5083 40.3417 53.0185 41.1313 53.6875 41.7523C54.3564 42.3733 55.1625 42.8052 56.031 43.0084C56.8995 43.2114 57.8023 43.1789 58.6559 42.9141C59.5094 42.6489 60.286 42.1602 60.9136 41.4925H60.9108Z" fill="#FF83C7"/>
<path d="M97.9069 49.1257C97.9069 49.1257 100.601 45.2105 105.99 37.38C107.93 34.4758 109.243 32.4651 109.928 31.3481L111.889 28.0472L105.309 28.2985C104.561 28.3321 103.954 28.3935 103.49 28.4829C103.027 28.561 102.663 28.7231 102.399 28.9688C101.946 29.3821 101.656 30.3428 101.529 31.8507C101.529 32.0741 101.281 32.2472 100.786 32.3701C100.659 32.4037 100.496 32.4204 100.295 32.4204C100.095 32.4204 99.9369 32.3199 99.8209 32.1189C99.7154 31.9178 99.6152 31.6441 99.5204 31.2978C99.436 30.9404 99.3674 30.5717 99.3147 30.1919C99.2092 29.4323 99.1566 28.7788 99.1566 28.2315C99.1566 27.673 99.1777 27.2318 99.2199 26.9079C99.262 26.5727 99.3411 26.3158 99.4572 26.1371C99.6574 25.8243 100.085 25.668 100.738 25.668H115.195C115.585 25.668 115.991 25.9248 116.413 26.4387C116.824 26.9413 116.967 27.3379 116.84 27.6284L102.731 48.9078L110.924 48.5728C112.359 48.5057 113.334 48.1482 113.851 47.5004C114.294 46.9419 114.583 45.8472 114.721 44.2163C114.731 44.1046 114.842 43.9985 115.053 43.8979C115.274 43.7974 115.522 43.7471 115.796 43.7471C116.081 43.7471 116.276 43.8533 116.381 44.0655C116.497 44.2778 116.598 44.5849 116.682 44.987C116.777 45.3891 116.856 45.8081 116.919 46.2438C117.046 47.115 117.109 47.869 117.109 48.5057C117.109 49.1314 117.03 49.6283 116.872 49.997C116.714 50.3656 116.476 50.6505 116.16 50.8516C115.633 51.1866 114.71 51.3542 113.392 51.3542H99.4255C99.0037 51.3542 98.603 51.0413 98.2233 50.4159C97.8438 49.8128 97.7383 49.3826 97.9069 49.1257Z" fill="#382630"/>
<path d="M118.349 42.3401C118.349 40.9886 118.481 39.7878 118.745 38.7377C119.008 37.6877 119.361 36.7494 119.804 35.9228C120.258 35.085 120.785 34.3534 121.386 33.7278C121.998 33.1024 122.651 32.583 123.347 32.1695C124.718 31.3431 126.068 30.9297 127.396 30.9297C128.725 30.9297 129.79 31.1811 130.591 31.6837C131.393 32.1752 132.047 32.8342 132.553 33.6609C133.491 35.2359 133.961 37.3303 133.961 39.9442C133.961 40.916 133.576 41.4131 132.806 41.4355L121.766 41.6868C121.829 44.1107 122.419 45.9036 123.537 47.0653C124.486 48.0483 125.715 48.5398 127.222 48.5398C129.469 48.5398 131.293 48.0427 132.695 47.0485C132.79 47.0485 132.906 47.1323 133.043 47.2999C133.307 47.635 133.439 47.9254 133.439 48.1711C133.439 48.7073 132.806 49.3943 131.541 50.2321C130.085 51.1927 128.388 51.6731 126.447 51.6731C123.917 51.6731 121.929 50.8185 120.484 49.1094C119.061 47.4339 118.349 45.1775 118.349 42.3401ZM121.861 39.5252C124.897 39.3689 127.676 39.1622 130.196 38.9053C130.312 35.3532 129.152 33.5771 126.716 33.5771C125.356 33.5771 124.244 34.1356 123.379 35.2526C122.588 36.2803 122.082 37.7045 121.861 39.5252Z" fill="#382630"/>
<path d="M144.074 51.4384C143.864 51.3826 143.526 51.3547 143.062 51.3547H138.016C137.004 51.3547 136.356 51.1648 136.071 50.785C135.955 50.6397 135.897 50.4723 135.897 50.2824C135.897 49.8133 135.981 49.4669 136.15 49.2435C136.403 49.333 136.688 49.3776 137.004 49.3776C137.331 49.3776 137.574 49.2379 137.732 48.9586C137.9 48.6794 137.98 48.1601 137.969 47.4005V36.4423C137.969 35.3923 137.785 34.7388 137.415 34.4819C137.268 34.3814 137.073 34.331 136.83 34.331C136.588 34.331 136.393 34.3701 136.245 34.4483C136.108 34.5265 135.992 34.5825 135.897 34.6159C135.813 34.6494 135.739 34.6494 135.676 34.6159C135.612 34.5711 135.549 34.5098 135.486 34.4316C135.328 34.2528 135.249 34.0686 135.249 33.8787C135.249 33.6777 135.312 33.4709 135.438 33.2587C135.575 33.0352 135.792 32.784 136.087 32.5048C136.382 32.2143 136.72 31.9518 137.099 31.7171C137.953 31.1922 138.807 30.9297 139.661 30.9297C140.642 30.9297 141.222 31.6167 141.401 32.9906C141.454 33.3927 141.486 33.806 141.496 34.2305C143.067 32.8342 144.776 31.8401 146.621 31.248C147.285 31.0358 147.955 30.9297 148.63 30.9297C149.315 30.9297 149.964 31.0247 150.575 31.2146C151.197 31.4044 151.735 31.7116 152.189 32.1361C153.148 33.0297 153.628 34.426 153.628 36.3249V47.6853C153.66 48.5565 153.965 49.0928 154.545 49.2938C154.703 49.3495 154.899 49.3998 155.13 49.4446C155.362 49.4892 155.568 49.5451 155.747 49.6122C155.937 49.6679 156.085 49.7351 156.19 49.8133C156.37 49.9584 156.459 50.193 156.459 50.5169C156.459 50.9078 156.375 51.2151 156.207 51.4384C155.995 51.3826 155.658 51.3547 155.194 51.3547H150.148C149.136 51.3547 148.487 51.1648 148.203 50.785C148.087 50.6397 148.029 50.4723 148.029 50.2824C148.029 49.8133 148.113 49.4669 148.282 49.2435C148.535 49.333 148.767 49.3776 148.978 49.3776C149.199 49.3776 149.384 49.3495 149.531 49.2938C149.679 49.2267 149.795 49.1207 149.879 48.9755C150.027 48.7073 150.101 48.1823 150.101 47.4005V37.5147C150.101 35.6157 149.568 34.5546 148.503 34.331C148.176 34.2641 147.765 34.2305 147.27 34.2305C146.784 34.2305 146.247 34.3087 145.656 34.4651C145.066 34.6216 144.512 34.8226 143.995 35.0683C143.004 35.5374 142.171 36.1294 141.496 36.8444V47.6853C141.528 48.5565 141.828 49.0928 142.398 49.2938C142.566 49.3495 142.762 49.3998 142.983 49.4446C143.215 49.4892 143.426 49.5451 143.616 49.6122C143.806 49.6679 143.953 49.7351 144.059 49.8133C144.238 49.9584 144.328 50.193 144.328 50.5169C144.328 50.9078 144.243 51.2151 144.074 51.4384Z" fill="#382630"/>
<path d="M160.612 27.8104C160.254 27.8104 159.922 27.7545 159.615 27.6429C159.32 27.5199 159.062 27.3468 158.841 27.1235C158.376 26.6543 158.145 26.0231 158.145 25.2301C158.145 24.4704 158.418 23.8282 158.967 23.3031C159.495 22.7781 160.127 22.5156 160.865 22.5156C161.604 22.5156 162.194 22.7502 162.637 23.2194C163.08 23.6885 163.301 24.3252 163.301 25.1295C163.301 25.8891 163.038 26.5314 162.51 27.0564C161.993 27.559 161.361 27.8104 160.612 27.8104ZM159.647 51.3519C158.024 51.3519 157.211 50.9609 157.211 50.179C157.211 49.7769 157.296 49.4641 157.464 49.2408C157.717 49.3302 157.95 49.3748 158.16 49.3748C159.141 49.3748 159.621 48.7157 159.6 47.3976V36.1714C159.6 35.3896 159.495 34.8476 159.283 34.5461C159.084 34.2334 158.72 34.077 158.192 34.077C157.801 34.077 157.449 34.1272 157.132 34.2278C156.943 34.25 156.805 34.0937 156.721 33.7586C156.647 33.457 156.689 33.1946 156.847 32.971C157.006 32.7365 157.248 32.4963 157.575 32.2505C157.913 31.9936 158.282 31.7702 158.683 31.5805C159.547 31.1448 160.269 30.9269 160.849 30.9269C161.429 30.9269 161.857 31.0163 162.131 31.1949C162.415 31.3738 162.632 31.6139 162.779 31.9156C163.011 32.4069 163.127 33.2001 163.127 34.2948V47.6825C163.158 48.5649 163.459 49.1011 164.029 49.2911C164.186 49.3468 164.382 49.3971 164.614 49.4418C164.845 49.4865 165.051 49.5423 165.231 49.6095C165.42 49.6651 165.568 49.7323 165.674 49.8105C165.853 49.9556 165.942 50.1902 165.942 50.5141C165.942 50.9162 165.863 51.2234 165.705 51.4357C165.484 51.3798 165.147 51.3519 164.693 51.3519H159.647Z" fill="#382630"/>
<path d="M171.798 39.9262L171.783 44.3329C171.783 46.1761 171.872 47.2875 172.052 47.6673C172.231 48.036 172.442 48.2593 172.684 48.3375C172.927 48.4045 173.237 48.4381 173.618 48.4381C173.997 48.4381 174.34 48.41 174.646 48.3543C174.962 48.2872 175.257 48.2035 175.531 48.1029C175.806 48.0024 176.069 47.8906 176.322 47.7678L177.097 47.416C177.276 47.3489 177.477 47.5443 177.699 48.0024C177.761 48.1252 177.793 48.2705 177.793 48.4381C177.793 48.5945 177.729 48.8011 177.603 49.058C177.477 49.315 177.229 49.611 176.86 49.9459C176.502 50.27 176.079 50.5604 175.595 50.8173C174.54 51.387 173.591 51.6718 172.747 51.6718C171.914 51.6718 171.235 51.6215 170.707 51.5211C170.18 51.4205 169.731 51.2194 169.362 50.9179C168.604 50.2923 168.224 49.1474 168.224 47.483V34.2964H166.658C166.331 34.2964 166.094 34.1846 165.946 33.9612C165.693 33.6151 165.566 33.3245 165.566 33.09C165.566 32.699 165.656 32.4811 165.836 32.4365C167.512 32.1349 168.698 30.8167 169.394 28.4822C169.595 27.7784 169.753 26.9463 169.869 25.9856C170.375 25.8962 170.754 25.8516 171.007 25.8516C171.272 25.8516 171.498 25.9912 171.688 26.2705C171.877 26.5497 171.968 26.8736 171.956 27.2422C171.956 27.6109 171.951 27.9571 171.941 28.281C171.931 28.6051 171.919 28.9569 171.909 29.3367L171.846 31.6824H177.318C177.456 31.9395 177.524 32.2131 177.524 32.5035V33.0229C177.524 33.4921 177.287 33.8775 176.812 34.1791C176.338 34.4694 175.811 34.6148 175.231 34.6148C174.661 34.6148 174.25 34.6091 173.997 34.5979C173.755 34.5757 173.517 34.5533 173.285 34.5309L172.59 34.4303C172.347 34.4081 172.088 34.3857 171.815 34.3633V34.5476L171.798 39.9262Z" fill="#382630"/>
<path d="M187.069 51.4392C186.859 51.3833 186.522 51.3554 186.057 51.3554H181.011C180 51.3554 179.351 51.1654 179.066 50.7857C178.95 50.6405 178.892 50.473 178.892 50.283C178.892 49.814 178.977 49.4676 179.146 49.2441C179.399 49.3337 179.688 49.3783 180.015 49.3783C180.343 49.3783 180.584 49.2386 180.743 48.9594C180.9 48.6801 180.974 48.1607 180.964 47.4011V26.641C180.964 25.8703 180.89 25.3732 180.743 25.1497C180.522 24.7923 180.132 24.6136 179.571 24.6136H179.257C179.161 24.6136 179.051 24.6303 178.924 24.6638C178.808 24.6862 178.707 24.675 178.623 24.6303C178.539 24.5745 178.465 24.5018 178.402 24.4125C178.18 24.0662 178.434 23.597 179.161 23.005C180.226 22.1449 181.312 21.7148 182.419 21.7148C183.623 21.7148 184.296 22.4018 184.444 23.7758C184.487 24.1891 184.508 24.6247 184.508 25.0827V34.2144C186.1 32.7958 187.803 31.8073 189.616 31.2487C190.28 31.0365 190.95 30.9304 191.625 30.9304C192.309 30.9304 192.959 31.0254 193.57 31.2152C194.193 31.4052 194.725 31.7123 195.169 32.1367C196.138 33.0527 196.623 34.449 196.623 36.3257V47.5687C196.623 48.4959 196.918 49.0655 197.509 49.2777C197.678 49.3447 197.878 49.4006 198.11 49.4452C198.343 49.49 198.547 49.5458 198.726 49.6129C198.917 49.6686 199.064 49.7358 199.17 49.814C199.349 49.9591 199.439 50.1937 199.439 50.5176C199.439 50.9197 199.36 51.2269 199.202 51.4392C198.979 51.3833 198.642 51.3554 198.189 51.3554H193.143C192.132 51.3554 191.482 51.1654 191.197 50.7857C191.082 50.6405 191.024 50.473 191.024 50.283C191.024 49.8027 191.103 49.4565 191.261 49.2441C191.524 49.3337 191.809 49.3783 192.115 49.3783C192.421 49.3783 192.653 49.261 192.812 49.0264C192.981 48.7917 193.075 48.3617 193.096 47.7363V37.5154C193.096 35.6164 192.564 34.5553 191.499 34.3317C191.171 34.2647 190.761 34.2312 190.265 34.2312C189.78 34.2312 189.242 34.3095 188.652 34.4657C188.071 34.6222 187.523 34.8232 187.006 35.069C185.983 35.5606 185.151 36.1469 184.508 36.8282V47.5687C184.508 48.4959 184.803 49.0655 185.394 49.2777C185.562 49.3447 185.762 49.4006 185.993 49.4452C186.226 49.49 186.432 49.5458 186.611 49.6129C186.802 49.6686 186.947 49.7358 187.054 49.814C187.233 49.9591 187.322 50.1937 187.322 50.5176C187.322 50.9085 187.238 51.2159 187.069 51.4392Z" fill="#382630"/>
<path d="M203.368 27.8104C203.01 27.8104 202.677 27.7545 202.372 27.6429C202.078 27.5199 201.818 27.3468 201.597 27.1235C201.134 26.6543 200.901 26.0231 200.901 25.2301C200.901 24.4704 201.175 23.8282 201.723 23.3031C202.25 22.7781 202.883 22.5156 203.621 22.5156C204.36 22.5156 204.95 22.7502 205.393 23.2194C205.836 23.6885 206.057 24.3252 206.057 25.1295C206.057 25.8891 205.794 26.5314 205.267 27.0564C204.75 27.559 204.117 27.8104 203.368 27.8104ZM202.404 51.3519C200.78 51.3519 199.968 50.9609 199.968 50.179C199.968 49.7769 200.052 49.4641 200.221 49.2408C200.474 49.3302 200.705 49.3748 200.916 49.3748C201.897 49.3748 202.377 48.7157 202.356 47.3976V36.1714C202.356 35.3896 202.25 34.8476 202.041 34.5461C201.84 34.2334 201.475 34.077 200.948 34.077C200.558 34.077 200.205 34.1272 199.89 34.2278C199.699 34.25 199.562 34.0937 199.478 33.7586C199.404 33.457 199.446 33.1946 199.604 32.971C199.762 32.7365 200.005 32.4963 200.331 32.2505C200.668 31.9936 201.038 31.7702 201.438 31.5805C202.303 31.1448 203.026 30.9269 203.606 30.9269C204.186 30.9269 204.612 31.0163 204.887 31.1949C205.172 31.3738 205.388 31.6139 205.535 31.9156C205.767 32.4069 205.883 33.2001 205.883 34.2948V47.6825C205.915 48.5649 206.216 49.1011 206.785 49.2911C206.943 49.3468 207.138 49.3971 207.37 49.4418C207.602 49.4865 207.808 49.5423 207.987 49.6095C208.177 49.6651 208.324 49.7323 208.431 49.8105C208.61 49.9556 208.698 50.1902 208.698 50.5141C208.698 50.9162 208.62 51.2234 208.463 51.4357C208.24 51.3798 207.902 51.3519 207.45 51.3519H202.404Z" fill="#382630"/>
<path d="M220.3 49.2267C218.76 50.8576 216.899 51.6731 214.716 51.6731C213.03 51.6731 211.679 51.1592 210.667 50.1316C209.644 49.0928 209.133 47.7466 209.133 46.0934C209.133 44.0381 209.998 42.4966 211.727 41.4689C213.288 40.5306 215.486 40.0614 218.323 40.0614H220.3C220.31 39.637 220.315 39.2237 220.315 38.8215V37.5648C220.315 36.0681 220.109 35.0124 219.699 34.3981C219.234 33.7056 218.444 33.3593 217.326 33.3593C214.764 33.3593 213.445 34.331 213.371 36.2748C213.361 36.5763 213.366 36.8276 213.388 37.0287C213.177 37.2074 212.819 37.2968 212.312 37.2968C211.816 37.2968 211.452 37.2354 211.22 37.1126C210.999 36.9896 210.805 36.8221 210.636 36.6097C210.277 36.1742 210.098 35.6213 210.098 34.951C210.098 34.2696 210.282 33.6777 210.651 33.1749C211.031 32.6612 211.543 32.2422 212.186 31.9183C213.44 31.2593 214.922 30.9297 216.63 30.9297C218.338 30.9297 219.619 31.1084 220.474 31.4659C221.338 31.8121 222.023 32.2757 222.53 32.8566C223.426 33.8842 223.875 35.2638 223.875 36.9953L223.716 45.038C223.716 46.5012 223.78 47.4283 223.906 47.8193C224.043 48.2102 224.201 48.4728 224.38 48.6068C224.571 48.7408 224.797 48.8079 225.06 48.8079C225.334 48.8079 225.557 48.7632 225.725 48.6738L226.168 48.456C226.315 48.4002 226.442 48.4671 226.548 48.6571C226.664 48.8358 226.722 48.9977 226.722 49.143C226.722 49.277 226.664 49.4558 226.548 49.6791C226.442 49.9025 226.236 50.1427 225.931 50.3996C225.636 50.6454 225.297 50.8632 224.919 51.0532C222.82 52.1031 221.392 51.8574 220.632 50.3158C220.473 50.0143 220.364 49.6513 220.3 49.2267ZM220.252 47.0317C220.252 45.4232 220.263 43.8259 220.284 42.2397C218.09 42.3291 216.598 42.4798 215.807 42.6921C215.027 42.8931 214.463 43.0887 214.115 43.2785C213.768 43.4684 213.493 43.6918 213.293 43.9487C212.966 44.3732 212.802 45.0155 212.802 45.8756C212.802 46.7246 213.087 47.406 213.656 47.9199C214.227 48.4225 215.044 48.6738 216.108 48.6738C217.615 48.6738 218.997 48.1265 220.252 47.0317Z" fill="#382630"/>
</g>
</g>
<defs>
<clipPath id="clip0_656_3260">
<rect width="177.75" height="42.1333" fill="white" transform="translate(50.9121 17.9336)"/>
</clipPath>
</defs>
</svg>
