<svg width="248" height="79" viewBox="0 0 248 79" fill="none" xmlns="http://www.w3.org/2000/svg">
<g clip-path="url(#clip0_656_3262)">
<mask id="mask0_656_3262" style="mask-type:luminance" maskUnits="userSpaceOnUse" x="54" y="15" width="171" height="48">
<path d="M224.534 15.9609H54.6841V62.0443H224.534V15.9609Z" fill="white"/>
</mask>
<g mask="url(#mask0_656_3262)">
<path d="M97.994 30.2154C97.1593 28.2652 96.0548 26.4479 94.714 24.8191C92.7322 22.3395 90.2588 20.3168 87.4566 18.8843C84.6546 17.4519 81.5872 16.642 78.4569 16.5081C75.3265 16.3742 72.2038 16.9193 69.2943 18.1074C66.3849 19.2956 63.7547 21.0999 61.5769 23.4016C59.399 25.7032 57.7228 28.4503 56.6588 31.4615C55.5947 34.4729 55.1667 37.6803 55.4031 40.8729C55.6395 44.0654 56.5348 47.1706 58.0302 49.9839C59.5256 52.7975 61.5872 55.2555 64.0791 57.1961C65.6781 58.4662 67.4449 59.4986 69.327 60.2629C71.9658 61.3678 74.79 61.9369 77.6419 61.9386C83.5284 61.9254 89.1695 59.5277 93.329 55.271C97.4884 51.0145 99.8265 45.2464 99.8307 39.2312C99.8349 36.1284 99.2096 33.0584 97.994 30.2154ZM77.6253 21.1155C80.1863 21.1153 82.7164 21.6872 85.0381 22.7914C84.4719 23.0413 83.8765 23.2159 83.2669 23.3109C81.2606 23.6076 79.402 24.5595 77.9685 26.0244C76.5351 27.4891 75.6034 29.3885 75.3131 31.4387C75.1856 32.5883 74.6737 33.6582 73.8641 34.4671C73.0543 35.2762 71.9965 35.7749 70.8687 35.8797C68.8623 36.1763 67.0037 37.1283 65.5702 38.5931C64.1367 40.0578 63.2052 41.9571 62.9148 44.0073C62.8164 45.1005 62.36 46.1281 61.6192 46.9232C60.3411 44.1637 59.7669 41.1183 59.9501 38.071C60.1333 35.0236 61.068 32.0732 62.6671 29.4941C64.2662 26.9152 66.4777 24.7915 69.0959 23.3207C71.7144 21.8498 74.6541 21.0797 77.6419 21.082L77.6253 21.1155ZM64.0627 50.962C64.2595 50.7776 64.4564 50.6101 64.6532 50.409C66.1123 48.9635 67.0487 47.0555 67.3099 44.996C67.4159 43.8384 67.9216 42.7571 68.7367 41.9461C69.5212 41.1118 70.5768 40.5993 71.705 40.5049C73.7115 40.2079 75.5699 39.2563 77.0035 37.7913C78.437 36.3265 79.3685 34.4272 79.6589 32.3772C79.7301 31.1664 80.2385 30.0256 81.0857 29.1763C81.8894 28.3582 82.9551 27.8643 84.0869 27.7852C85.9301 27.5261 87.649 26.6888 89.0069 25.3889C90.5528 26.6996 91.8625 28.2761 92.8771 30.0478C92.8149 30.1337 92.7435 30.2125 92.664 30.2823C91.8812 31.1239 90.8271 31.6479 89.6958 31.7571C87.6872 32.0486 85.8259 32.9988 84.3913 34.4645C82.9571 35.9304 82.027 37.8324 81.7418 39.8848C81.6261 41.0385 81.1239 42.1158 80.32 42.9344C79.5159 43.7529 78.4596 44.2622 77.3302 44.376C75.3181 44.6704 73.4525 45.6205 72.0106 47.0846C70.5689 48.549 69.6278 50.4494 69.327 52.5038C69.2389 53.3227 68.9634 54.109 68.5235 54.7996C66.8409 53.7787 65.3338 52.4823 64.0627 50.962ZM77.6253 57.4307C75.9613 57.4326 74.3052 57.1954 72.7055 56.7267C73.2527 55.6844 73.6084 54.5484 73.7551 53.3751C73.87 52.224 74.3701 51.1488 75.1707 50.3306C75.9714 49.5123 77.0238 49.0014 78.1502 48.884C80.1596 48.5905 82.0219 47.64 83.4586 46.1749C84.8954 44.71 85.8293 42.8088 86.1204 40.7562C86.2355 39.605 86.7355 38.5296 87.5362 37.7114C88.3369 36.8935 89.3892 36.3825 90.5157 36.2651C92.0276 36.064 93.469 35.4887 94.714 34.5892C95.4055 37.2669 95.4873 40.0709 94.9535 42.7862C94.4196 45.5013 93.2842 48.0557 91.6342 50.2528C89.9846 52.4498 87.8642 54.2318 85.4357 55.4615C83.0074 56.691 80.3356 57.3361 77.6253 57.3469V57.4307Z" fill="#26AAF2"/>
<path d="M108.048 52.5881V26.9766H127.741V31.1031H113.267V37.562H126.644V41.6886H113.267V48.4614H128.443V52.5881H108.048Z" fill="#263136"/>
<path d="M129.168 42.7656C129.168 39.5062 129.812 36.9945 131.098 35.2302C132.414 33.4361 134.242 32.5391 136.581 32.5391C139.388 32.5391 141.332 33.7202 142.414 36.0825C142.414 35.5143 142.443 34.9013 142.502 34.2434C142.56 33.5557 142.619 33.1072 142.677 32.8979H147.458C147.4 34.2135 147.37 35.7237 147.37 37.428V60.3035H142.414V52.14L142.502 49.3143H142.458C141.347 51.7365 139.256 52.9474 136.186 52.9474C133.935 52.9474 132.195 52.0504 130.967 50.2561C129.768 48.462 129.168 45.9652 129.168 42.7656ZM142.458 42.6759C142.458 40.5828 142.107 38.9531 141.405 37.7869C140.733 36.6207 139.724 36.0376 138.379 36.0376C135.718 36.0376 134.388 38.2803 134.388 42.7656C134.388 47.2211 135.704 49.4487 138.335 49.4487C139.651 49.4487 140.66 48.8657 141.362 47.6996C142.093 46.5334 142.458 44.8587 142.458 42.6759Z" fill="#263136"/>
<path d="M154.936 32.8984V43.9325C154.936 47.4011 156.077 49.1354 158.358 49.1354C159.556 49.1354 160.521 48.6122 161.252 47.5656C162.012 46.4891 162.393 45.1286 162.393 43.4839V32.8984H167.393V48.1935C167.393 49.868 167.437 51.3332 167.525 52.5892H162.787C162.641 50.8549 162.568 49.5541 162.568 48.6869H162.48C161.808 50.1821 160.96 51.2734 159.936 51.9613C158.913 52.6191 157.7 52.9481 156.296 52.9481C154.249 52.9481 152.67 52.3201 151.559 51.0642C150.477 49.7784 149.937 47.8945 149.937 45.4126V32.8984H154.936Z" fill="#263136"/>
<path d="M170.265 29.3558V25.6328H175.266V29.3558H170.265ZM170.265 52.5899V32.8992H175.266V52.5899H170.265Z" fill="#263136"/>
<path d="M190.654 52.5886V41.5545C190.654 38.0859 189.514 36.3516 187.234 36.3516C186.035 36.3516 185.055 36.8897 184.295 37.9664C183.565 39.013 183.199 40.3735 183.199 42.048V52.5886H178.199V37.3383C178.199 36.2918 178.184 35.4245 178.155 34.7368C178.126 34.049 178.096 33.4361 178.067 32.8979H182.805C182.834 33.1371 182.878 33.765 182.935 34.7816C183.023 35.7686 183.067 36.4563 183.067 36.845H183.111C183.783 35.3499 184.631 34.2584 185.655 33.5705C186.679 32.8828 187.892 32.5391 189.296 32.5391C191.342 32.5391 192.907 33.182 193.988 34.4677C195.1 35.7536 195.655 37.6375 195.655 40.1192V52.5886H190.654Z" fill="#263136"/>
<path d="M198.222 29.3558V25.6328H203.222V29.3558H198.222ZM198.222 52.5899V32.8992H203.222V52.5899H198.222Z" fill="#263136"/>
<path d="M218.174 52.5892L213.701 45.4575L209.183 52.5892H203.876L210.894 42.4074L204.183 32.8984H209.578L213.701 39.3573L217.779 32.8984H223.218L216.507 42.3626L223.613 52.5892H218.174Z" fill="#263136"/>
</g>
</g>
<defs>
<clipPath id="clip0_656_3262">
<rect width="171.167" height="47.4" fill="white" transform="translate(54.4219 15.3008)"/>
</clipPath>
</defs>
</svg>
